<svg xmlns="http://www.w3.org/2000/svg" xmlns:xlink="http://www.w3.org/1999/xlink" contentStyleType="text/css" data-diagram-type="CLASS" height="652px" preserveAspectRatio="none" style="width:1621px;height:652px;background:#FFFFFF;" version="1.1" viewBox="0 0 1621 652" width="1621px" zoomAndPan="magnify"><defs/><g><!--class UserEntity--><g id="elem_UserEntity"><rect codeLine="2" fill="#F1F1F1" height="243.5625" id="UserEntity" rx="2.5" ry="2.5" style="stroke:#181818;stroke-width:0.5;" width="251.7227" x="448" y="245"/><ellipse cx="533.2202" cy="261" fill="#ADD1B2" rx="11" ry="11" style="stroke:#181818;stroke-width:1;"/><path d="M536.189,266.6406 Q535.6108,266.9375 534.9702,267.0781 Q534.3296,267.2344 533.6265,267.2344 Q531.1265,267.2344 529.7983,265.5938 Q528.4858,263.9375 528.4858,260.8125 Q528.4858,257.6875 529.7983,256.0313 Q531.1265,254.375 533.6265,254.375 Q534.3296,254.375 534.9702,254.5313 Q535.6265,254.6875 536.189,254.9844 L536.189,257.7031 Q535.564,257.125 534.9702,256.8594 Q534.3765,256.5781 533.7515,256.5781 Q532.4077,256.5781 531.7202,257.6563 Q531.0327,258.7188 531.0327,260.8125 Q531.0327,262.9063 531.7202,263.9844 Q532.4077,265.0469 533.7515,265.0469 Q534.3765,265.0469 534.9702,264.7813 Q535.564,264.5 536.189,263.9219 L536.189,266.6406 Z " fill="#000000"/><text fill="#000000" font-family="sans-serif" font-size="14" lengthAdjust="spacing" textLength="72.7822" x="553.7202" y="265.8467">UserEntity</text><line style="stroke:#181818;stroke-width:0.5;" x1="449" x2="698.7227" y1="277" y2="277"/><rect fill="transparent" height="6" style="stroke:#C82930;stroke-width:1;" width="6" x="456" y="287.6484"/><text fill="#000000" font-family="sans-serif" font-size="14" lengthAdjust="spacing" textLength="56.0684" x="468" y="293.9951">id: Long</text><rect fill="transparent" height="6" style="stroke:#C82930;stroke-width:1;" width="6" x="456" y="303.9453"/><text fill="#000000" font-family="sans-serif" font-size="14" lengthAdjust="spacing" textLength="121.1875" x="468" y="310.292">username: String</text><rect fill="transparent" height="6" style="stroke:#C82930;stroke-width:1;" width="6" x="456" y="320.2422"/><text fill="#000000" font-family="sans-serif" font-size="14" lengthAdjust="spacing" textLength="117.6602" x="468" y="326.5889">password: String</text><rect fill="transparent" height="6" style="stroke:#C82930;stroke-width:1;" width="6" x="456" y="336.5391"/><text fill="#000000" font-family="sans-serif" font-size="14" lengthAdjust="spacing" textLength="94.7598" x="468" y="342.8857">phone: String</text><rect fill="transparent" height="6" style="stroke:#C82930;stroke-width:1;" width="6" x="456" y="352.8359"/><text fill="#000000" font-family="sans-serif" font-size="14" lengthAdjust="spacing" textLength="89.5576" x="468" y="359.1826">email: String</text><rect fill="transparent" height="6" style="stroke:#C82930;stroke-width:1;" width="6" x="456" y="369.1328"/><text fill="#000000" font-family="sans-serif" font-size="14" lengthAdjust="spacing" textLength="116.1084" x="468" y="375.4795">avatarUrl: String</text><rect fill="transparent" height="6" style="stroke:#C82930;stroke-width:1;" width="6" x="456" y="385.4297"/><text fill="#000000" font-family="sans-serif" font-size="14" lengthAdjust="spacing" textLength="138.3594" x="468" y="391.7764">roleIds: List&lt;Long&gt;</text><rect fill="transparent" height="6" style="stroke:#C82930;stroke-width:1;" width="6" x="456" y="401.7266"/><text fill="#000000" font-family="sans-serif" font-size="14" lengthAdjust="spacing" textLength="211.8115" x="468" y="408.0732">lastLoginTime: LocalDateTime</text><rect fill="transparent" height="6" style="stroke:#C82930;stroke-width:1;" width="6" x="456" y="418.0234"/><text fill="#000000" font-family="sans-serif" font-size="14" lengthAdjust="spacing" textLength="202.1797" x="468" y="424.3701">createdTime: LocalDateTime</text><line style="stroke:#181818;stroke-width:0.5;" x1="449" x2="698.7227" y1="431.6719" y2="431.6719"/><rect fill="#F24D5C" height="6" style="stroke:#C82930;stroke-width:1;" width="6" x="456" y="442.3203"/><text fill="#000000" font-family="sans-serif" font-size="14" lengthAdjust="spacing" textLength="196.4512" x="468" y="448.667">status: Integer (0&#27491;&#24120;/1&#23553;&#31105;)</text><ellipse cx="459" cy="461.6172" fill="#84BE84" rx="3" ry="3" style="stroke:#038048;stroke-width:1;"/><text fill="#000000" font-family="sans-serif" font-size="14" lengthAdjust="spacing" textLength="169.5859" x="468" y="464.9639">encryptPassword(): void</text><ellipse cx="459" cy="477.9141" fill="#84BE84" rx="3" ry="3" style="stroke:#038048;stroke-width:1;"/><text fill="#000000" font-family="sans-serif" font-size="14" lengthAdjust="spacing" textLength="225.7227" x="468" y="481.2607">validatePhoneFormat(): boolean</text></g><!--class UserQuery--><g id="elem_UserQuery"><rect codeLine="18" fill="#F1F1F1" height="178.375" id="UserQuery" rx="2.5" ry="2.5" style="stroke:#181818;stroke-width:0.5;" width="244.1826" x="957" y="7"/><ellipse cx="1037.6128" cy="23" fill="#ADD1B2" rx="11" ry="11" style="stroke:#181818;stroke-width:1;"/><path d="M1040.5815,28.6406 Q1040.0034,28.9375 1039.3628,29.0781 Q1038.7222,29.2344 1038.019,29.2344 Q1035.519,29.2344 1034.1909,27.5938 Q1032.8784,25.9375 1032.8784,22.8125 Q1032.8784,19.6875 1034.1909,18.0313 Q1035.519,16.375 1038.019,16.375 Q1038.7222,16.375 1039.3628,16.5313 Q1040.019,16.6875 1040.5815,16.9844 L1040.5815,19.7031 Q1039.9565,19.125 1039.3628,18.8594 Q1038.769,18.5781 1038.144,18.5781 Q1036.8003,18.5781 1036.1128,19.6563 Q1035.4253,20.7188 1035.4253,22.8125 Q1035.4253,24.9063 1036.1128,25.9844 Q1036.8003,27.0469 1038.144,27.0469 Q1038.769,27.0469 1039.3628,26.7813 Q1039.9565,26.5 1040.5815,25.9219 L1040.5815,28.6406 Z " fill="#000000"/><text fill="#000000" font-family="sans-serif" font-size="14" lengthAdjust="spacing" textLength="74.457" x="1058.1128" y="27.8467">UserQuery</text><line style="stroke:#181818;stroke-width:0.5;" x1="958" x2="1200.1826" y1="39" y2="39"/><rect fill="transparent" height="6" style="stroke:#C82930;stroke-width:1;" width="6" x="965" y="49.6484"/><text fill="#000000" font-family="sans-serif" font-size="14" lengthAdjust="spacing" textLength="110.6123" x="977" y="55.9951">keyword: String</text><rect fill="transparent" height="6" style="stroke:#C82930;stroke-width:1;" width="6" x="965" y="65.9453"/><text fill="#000000" font-family="sans-serif" font-size="14" lengthAdjust="spacing" textLength="102.5459" x="977" y="72.292">status: Integer</text><rect fill="transparent" height="6" style="stroke:#C82930;stroke-width:1;" width="6" x="965" y="82.2422"/><text fill="#000000" font-family="sans-serif" font-size="14" lengthAdjust="spacing" textLength="83.1318" x="977" y="88.5889">roleId: Long</text><rect fill="transparent" height="6" style="stroke:#C82930;stroke-width:1;" width="6" x="965" y="98.5391"/><text fill="#000000" font-family="sans-serif" font-size="14" lengthAdjust="spacing" textLength="181.1523" x="977" y="104.8857">startTime: LocalDateTime</text><rect fill="transparent" height="6" style="stroke:#C82930;stroke-width:1;" width="6" x="965" y="114.8359"/><text fill="#000000" font-family="sans-serif" font-size="14" lengthAdjust="spacing" textLength="174.918" x="977" y="121.1826">endTime: LocalDateTime</text><rect fill="transparent" height="6" style="stroke:#C82930;stroke-width:1;" width="6" x="965" y="131.1328"/><text fill="#000000" font-family="sans-serif" font-size="14" lengthAdjust="spacing" textLength="127.4766" x="977" y="137.4795">pageNum: Integer</text><rect fill="transparent" height="6" style="stroke:#C82930;stroke-width:1;" width="6" x="965" y="147.4297"/><text fill="#000000" font-family="sans-serif" font-size="14" lengthAdjust="spacing" textLength="123.2314" x="977" y="153.7764">pageSize: Integer</text><line style="stroke:#181818;stroke-width:0.5;" x1="958" x2="1200.1826" y1="161.0781" y2="161.0781"/><ellipse cx="968" cy="174.7266" fill="#84BE84" rx="3" ry="3" style="stroke:#038048;stroke-width:1;"/><text fill="#000000" font-family="sans-serif" font-size="14" lengthAdjust="spacing" textLength="218.1826" x="977" y="178.0732">toPageRequest(): PageRequest</text></g><!--class UserDTO--><g id="elem_UserDTO"><rect codeLine="30" fill="#F1F1F1" height="129.4844" id="UserDTO" rx="2.5" ry="2.5" style="stroke:#181818;stroke-width:0.5;" width="173.7998" x="441" y="31.5"/><ellipse cx="492.519" cy="47.5" fill="#ADD1B2" rx="11" ry="11" style="stroke:#181818;stroke-width:1;"/><path d="M495.4878,53.1406 Q494.9097,53.4375 494.269,53.5781 Q493.6284,53.7344 492.9253,53.7344 Q490.4253,53.7344 489.0972,52.0938 Q487.7847,50.4375 487.7847,47.3125 Q487.7847,44.1875 489.0972,42.5313 Q490.4253,40.875 492.9253,40.875 Q493.6284,40.875 494.269,41.0313 Q494.9253,41.1875 495.4878,41.4844 L495.4878,44.2031 Q494.8628,43.625 494.269,43.3594 Q493.6753,43.0781 493.0503,43.0781 Q491.7065,43.0781 491.019,44.1563 Q490.3315,45.2188 490.3315,47.3125 Q490.3315,49.4063 491.019,50.4844 Q491.7065,51.5469 493.0503,51.5469 Q493.6753,51.5469 494.269,51.2813 Q494.8628,51 495.4878,50.4219 L495.4878,53.1406 Z " fill="#000000"/><text fill="#000000" font-family="sans-serif" font-size="14" lengthAdjust="spacing" textLength="62.2617" x="513.019" y="52.3467">UserDTO</text><line style="stroke:#181818;stroke-width:0.5;" x1="442" x2="613.7998" y1="63.5" y2="63.5"/><rect fill="transparent" height="6" style="stroke:#C82930;stroke-width:1;" width="6" x="449" y="74.1484"/><text fill="#000000" font-family="sans-serif" font-size="14" lengthAdjust="spacing" textLength="121.1875" x="461" y="80.4951">username: String</text><rect fill="transparent" height="6" style="stroke:#C82930;stroke-width:1;" width="6" x="449" y="90.4453"/><text fill="#000000" font-family="sans-serif" font-size="14" lengthAdjust="spacing" textLength="94.7598" x="461" y="96.792">phone: String</text><rect fill="transparent" height="6" style="stroke:#C82930;stroke-width:1;" width="6" x="449" y="106.7422"/><text fill="#000000" font-family="sans-serif" font-size="14" lengthAdjust="spacing" textLength="89.5576" x="461" y="113.0889">email: String</text><rect fill="transparent" height="6" style="stroke:#C82930;stroke-width:1;" width="6" x="449" y="123.0391"/><text fill="#000000" font-family="sans-serif" font-size="14" lengthAdjust="spacing" textLength="138.3594" x="461" y="129.3857">roleIds: List&lt;Long&gt;</text><line style="stroke:#181818;stroke-width:0.5;" x1="442" x2="613.7998" y1="136.6875" y2="136.6875"/><ellipse cx="452" cy="150.3359" fill="#84BE84" rx="3" ry="3" style="stroke:#038048;stroke-width:1;"/><text fill="#000000" font-family="sans-serif" font-size="14" lengthAdjust="spacing" textLength="147.7998" x="461" y="153.6826">toEntity(): UserEntity</text></g><!--class UserVO--><g id="elem_UserVO"><rect codeLine="39" fill="#F1F1F1" height="162.0781" id="UserVO" rx="2.5" ry="2.5" style="stroke:#181818;stroke-width:0.5;" width="271.1367" x="650.5" y="15"/><ellipse cx="755.5649" cy="31" fill="#ADD1B2" rx="11" ry="11" style="stroke:#181818;stroke-width:1;"/><path d="M758.5337,36.6406 Q757.9556,36.9375 757.3149,37.0781 Q756.6743,37.2344 755.9712,37.2344 Q753.4712,37.2344 752.1431,35.5938 Q750.8306,33.9375 750.8306,30.8125 Q750.8306,27.6875 752.1431,26.0313 Q753.4712,24.375 755.9712,24.375 Q756.6743,24.375 757.3149,24.5313 Q757.9712,24.6875 758.5337,24.9844 L758.5337,27.7031 Q757.9087,27.125 757.3149,26.8594 Q756.7212,26.5781 756.0962,26.5781 Q754.7524,26.5781 754.0649,27.6563 Q753.3774,28.7188 753.3774,30.8125 Q753.3774,32.9063 754.0649,33.9844 Q754.7524,35.0469 756.0962,35.0469 Q756.7212,35.0469 757.3149,34.7813 Q757.9087,34.5 758.5337,33.9219 L758.5337,36.6406 Z " fill="#000000"/><text fill="#000000" font-family="sans-serif" font-size="14" lengthAdjust="spacing" textLength="52.5068" x="776.0649" y="35.8467">UserVO</text><line style="stroke:#181818;stroke-width:0.5;" x1="651.5" x2="920.6367" y1="47" y2="47"/><rect fill="transparent" height="6" style="stroke:#C82930;stroke-width:1;" width="6" x="658.5" y="57.6484"/><text fill="#000000" font-family="sans-serif" font-size="14" lengthAdjust="spacing" textLength="56.0684" x="670.5" y="63.9951">id: Long</text><rect fill="transparent" height="6" style="stroke:#C82930;stroke-width:1;" width="6" x="658.5" y="73.9453"/><text fill="#000000" font-family="sans-serif" font-size="14" lengthAdjust="spacing" textLength="121.1875" x="670.5" y="80.292">username: String</text><rect fill="transparent" height="6" style="stroke:#C82930;stroke-width:1;" width="6" x="658.5" y="90.2422"/><text fill="#000000" font-family="sans-serif" font-size="14" lengthAdjust="spacing" textLength="116.1084" x="670.5" y="96.5889">avatarUrl: String</text><rect fill="transparent" height="6" style="stroke:#C82930;stroke-width:1;" width="6" x="658.5" y="106.5391"/><text fill="#000000" font-family="sans-serif" font-size="14" lengthAdjust="spacing" textLength="131.7354" x="670.5" y="112.8857">statusLabel: String</text><rect fill="transparent" height="6" style="stroke:#C82930;stroke-width:1;" width="6" x="658.5" y="122.8359"/><text fill="#000000" font-family="sans-serif" font-size="14" lengthAdjust="spacing" textLength="148.9072" x="670.5" y="129.1826">lastLoginTime: String</text><line style="stroke:#181818;stroke-width:0.5;" x1="651.5" x2="920.6367" y1="136.4844" y2="136.4844"/><rect fill="#F24D5C" height="6" style="stroke:#C82930;stroke-width:1;" width="6" x="658.5" y="147.1328"/><text fill="#000000" font-family="sans-serif" font-size="14" lengthAdjust="spacing" textLength="245.1367" x="670.5" y="153.4795">phoneMasked: String (136****890)</text><ellipse cx="661.5" cy="166.4297" fill="#84BE84" rx="3" ry="3" style="stroke:#038048;stroke-width:1;"/><text fill="#000000" font-family="sans-serif" font-size="14" lengthAdjust="spacing" textLength="196.2598" x="670.5" y="169.7764">fromEntity(UserEntity): void</text></g><!--class UserDetailVO--><g id="elem_UserDetailVO"><rect codeLine="50" fill="#F1F1F1" height="113.1875" id="UserDetailVO" rx="2.5" ry="2.5" style="stroke:#181818;stroke-width:0.5;" width="378.1943" x="1236" y="39.5"/><ellipse cx="1373.9731" cy="55.5" fill="#ADD1B2" rx="11" ry="11" style="stroke:#181818;stroke-width:1;"/><path d="M1376.9419,61.1406 Q1376.3638,61.4375 1375.7231,61.5781 Q1375.0825,61.7344 1374.3794,61.7344 Q1371.8794,61.7344 1370.5513,60.0938 Q1369.2388,58.4375 1369.2388,55.3125 Q1369.2388,52.1875 1370.5513,50.5313 Q1371.8794,48.875 1374.3794,48.875 Q1375.0825,48.875 1375.7231,49.0313 Q1376.3794,49.1875 1376.9419,49.4844 L1376.9419,52.2031 Q1376.3169,51.625 1375.7231,51.3594 Q1375.1294,51.0781 1374.5044,51.0781 Q1373.1606,51.0781 1372.4731,52.1563 Q1371.7856,53.2188 1371.7856,55.3125 Q1371.7856,57.4063 1372.4731,58.4844 Q1373.1606,59.5469 1374.5044,59.5469 Q1375.1294,59.5469 1375.7231,59.2813 Q1376.3169,59 1376.9419,58.4219 L1376.9419,61.1406 Z " fill="#000000"/><text fill="#000000" font-family="sans-serif" font-size="14" lengthAdjust="spacing" textLength="93.748" x="1394.4731" y="60.3467">UserDetailVO</text><line style="stroke:#181818;stroke-width:0.5;" x1="1237" x2="1613.1943" y1="71.5" y2="71.5"/><rect fill="transparent" height="6" style="stroke:#C82930;stroke-width:1;" width="6" x="1244" y="82.1484"/><text fill="#000000" font-family="sans-serif" font-size="14" lengthAdjust="spacing" textLength="248.8691" x="1256" y="88.4951">loginHistory: List&lt;LoginRecordVO&gt;</text><rect fill="transparent" height="6" style="stroke:#C82930;stroke-width:1;" width="6" x="1244" y="98.4453"/><text fill="#000000" font-family="sans-serif" font-size="14" lengthAdjust="spacing" textLength="197.6953" x="1256" y="104.792">socialConnections: SocialVO</text><line style="stroke:#181818;stroke-width:0.5;" x1="1237" x2="1613.1943" y1="112.0938" y2="112.0938"/><rect fill="#F24D5C" height="6" style="stroke:#C82930;stroke-width:1;" width="6" x="1244" y="122.7422"/><text fill="#000000" font-family="sans-serif" font-size="14" lengthAdjust="spacing" textLength="352.1943" x="1256" y="129.0889">contentStats: Map&lt;String,Integer&gt; (&#21160;&#24577;&#25968;/&#25361;&#25112;&#25968;)</text><ellipse cx="1247" cy="142.0391" fill="#84BE84" rx="3" ry="3" style="stroke:#038048;stroke-width:1;"/><text fill="#000000" font-family="sans-serif" font-size="14" lengthAdjust="spacing" textLength="212.7754" x="1256" y="145.3857">addOperationLog(String): void</text></g><!--class UserController--><g id="elem_UserController"><rect codeLine="58" fill="#F1F1F1" height="113.1875" id="UserController" rx="2.5" ry="2.5" style="stroke:#181818;stroke-width:0.5;" width="391.5791" x="7" y="39.5"/><ellipse cx="147.998" cy="55.5" fill="#ADD1B2" rx="11" ry="11" style="stroke:#181818;stroke-width:1;"/><path d="M150.9668,61.1406 Q150.3887,61.4375 149.748,61.5781 Q149.1074,61.7344 148.4043,61.7344 Q145.9043,61.7344 144.5762,60.0938 Q143.2637,58.4375 143.2637,55.3125 Q143.2637,52.1875 144.5762,50.5313 Q145.9043,48.875 148.4043,48.875 Q149.1074,48.875 149.748,49.0313 Q150.4043,49.1875 150.9668,49.4844 L150.9668,52.2031 Q150.3418,51.625 149.748,51.3594 Q149.1543,51.0781 148.5293,51.0781 Q147.1855,51.0781 146.498,52.1563 Q145.8105,53.2188 145.8105,55.3125 Q145.8105,57.4063 146.498,58.4844 Q147.1855,59.5469 148.5293,59.5469 Q149.1543,59.5469 149.748,59.2813 Q150.3418,59 150.9668,58.4219 L150.9668,61.1406 Z " fill="#000000"/><text fill="#000000" font-family="sans-serif" font-size="14" lengthAdjust="spacing" textLength="101.083" x="168.498" y="60.3467">UserController</text><line style="stroke:#181818;stroke-width:0.5;" x1="8" x2="397.5791" y1="71.5" y2="71.5"/><line style="stroke:#181818;stroke-width:0.5;" x1="8" x2="397.5791" y1="79.5" y2="79.5"/><ellipse cx="18" cy="93.1484" fill="#84BE84" rx="3" ry="3" style="stroke:#038048;stroke-width:1;"/><text fill="#000000" font-family="sans-serif" font-size="14" lengthAdjust="spacing" textLength="365.5791" x="27" y="96.4951">listUsers(UserQuery): Result&lt;PageData&lt;UserVO&gt;&gt;</text><ellipse cx="18" cy="109.4453" fill="#84BE84" rx="3" ry="3" style="stroke:#038048;stroke-width:1;"/><text fill="#000000" font-family="sans-serif" font-size="14" lengthAdjust="spacing" textLength="311.4521" x="27" y="112.792">getUserDetail(Long): Result&lt;UserDetailVO&gt;</text><ellipse cx="18" cy="125.7422" fill="#84BE84" rx="3" ry="3" style="stroke:#038048;stroke-width:1;"/><text fill="#000000" font-family="sans-serif" font-size="14" lengthAdjust="spacing" textLength="333.3066" x="27" y="129.0889">batchBan(List&lt;Long&gt;, BanDTO): Result&lt;Void&gt;</text><ellipse cx="18" cy="142.0391" fill="#84BE84" rx="3" ry="3" style="stroke:#038048;stroke-width:1;"/><text fill="#000000" font-family="sans-serif" font-size="14" lengthAdjust="spacing" textLength="289.6797" x="27" y="145.3857">exportUsers(UserQuery): void (Excel&#23548;&#20986;)</text></g><!--class UserService--><g id="elem_UserService"><rect codeLine="66" fill="#F1F1F1" height="129.4844" id="UserService" rx="2.5" ry="2.5" style="stroke:#181818;stroke-width:0.5;" width="344.2197" x="31" y="302.5"/><ellipse cx="157.0342" cy="318.5" fill="#ADD1B2" rx="11" ry="11" style="stroke:#181818;stroke-width:1;"/><path d="M160.0029,324.1406 Q159.4248,324.4375 158.7842,324.5781 Q158.1436,324.7344 157.4404,324.7344 Q154.9404,324.7344 153.6123,323.0938 Q152.2998,321.4375 152.2998,318.3125 Q152.2998,315.1875 153.6123,313.5313 Q154.9404,311.875 157.4404,311.875 Q158.1436,311.875 158.7842,312.0313 Q159.4404,312.1875 160.0029,312.4844 L160.0029,315.2031 Q159.3779,314.625 158.7842,314.3594 Q158.1904,314.0781 157.5654,314.0781 Q156.2217,314.0781 155.5342,315.1563 Q154.8467,316.2188 154.8467,318.3125 Q154.8467,320.4063 155.5342,321.4844 Q156.2217,322.5469 157.5654,322.5469 Q158.1904,322.5469 158.7842,322.2813 Q159.3779,322 160.0029,321.4219 L160.0029,324.1406 Z " fill="#000000"/><text fill="#000000" font-family="sans-serif" font-size="14" lengthAdjust="spacing" textLength="83.6514" x="177.5342" y="323.3467">UserService</text><line style="stroke:#181818;stroke-width:0.5;" x1="32" x2="374.2197" y1="334.5" y2="334.5"/><rect fill="transparent" height="6" style="stroke:#C82930;stroke-width:1;" width="6" x="39" y="345.1484"/><text fill="#000000" font-family="sans-serif" font-size="14" lengthAdjust="spacing" textLength="177.2148" x="51" y="351.4951">userMapper: UserMapper</text><rect fill="transparent" height="6" style="stroke:#C82930;stroke-width:1;" width="6" x="39" y="361.4453"/><text fill="#000000" font-family="sans-serif" font-size="14" lengthAdjust="spacing" textLength="285.3799" x="51" y="367.792">loginRecordMapper: LoginRecordMapper</text><line style="stroke:#181818;stroke-width:0.5;" x1="32" x2="374.2197" y1="375.0938" y2="375.0938"/><ellipse cx="42" cy="388.7422" fill="#84BE84" rx="3" ry="3" style="stroke:#038048;stroke-width:1;"/><text fill="#000000" font-family="sans-serif" font-size="14" lengthAdjust="spacing" textLength="317.5498" x="51" y="392.0889">searchUsers(UserQuery): PageInfo&lt;UserVO&gt;</text><ellipse cx="42" cy="405.0391" fill="#84BE84" rx="3" ry="3" style="stroke:#038048;stroke-width:1;"/><text fill="#000000" font-family="sans-serif" font-size="14" lengthAdjust="spacing" textLength="318.2197" x="51" y="408.3857">getContentStats(Long): Map&lt;String,Integer&gt;</text><ellipse cx="42" cy="421.3359" fill="#84BE84" rx="3" ry="3" style="stroke:#038048;stroke-width:1;"/><text fill="#000000" font-family="sans-serif" font-size="14" lengthAdjust="spacing" textLength="314.501" x="51" y="424.6826">batchUpdateStatus(List&lt;Long&gt;, Integer): int</text></g><!--class UserMapper--><g id="elem_UserMapper"><rect codeLine="75" fill="#F1F1F1" height="96.8906" id="UserMapper" rx="2.5" ry="2.5" style="stroke:#181818;stroke-width:0.5;" width="577.4277" x="285.5" y="549"/><ellipse cx="527.6084" cy="565" fill="#B4A7E5" rx="11" ry="11" style="stroke:#181818;stroke-width:1;"/><path d="M523.5303,560.7656 L523.5303,558.6094 L530.9209,558.6094 L530.9209,560.7656 L528.4521,560.7656 L528.4521,568.8438 L530.9209,568.8438 L530.9209,571 L523.5303,571 L523.5303,568.8438 L525.999,568.8438 L525.999,560.7656 L523.5303,560.7656 Z " fill="#000000"/><text fill="#000000" font-family="sans-serif" font-size="14" font-style="italic" lengthAdjust="spacing" textLength="84.7109" x="548.1084" y="569.8467">UserMapper</text><line style="stroke:#181818;stroke-width:0.5;" x1="286.5" x2="861.9277" y1="581" y2="581"/><line style="stroke:#181818;stroke-width:0.5;" x1="286.5" x2="861.9277" y1="589" y2="589"/><ellipse cx="296.5" cy="602.6484" fill="#84BE84" rx="3" ry="3" style="stroke:#038048;stroke-width:1;"/><text fill="#000000" font-family="sans-serif" font-size="14" lengthAdjust="spacing" textLength="469.2188" x="305.5" y="605.9951">selectByCondition(@Param("query") UserQuery): List&lt;UserEntity&gt;</text><ellipse cx="296.5" cy="618.9453" fill="#84BE84" rx="3" ry="3" style="stroke:#038048;stroke-width:1;"/><text fill="#000000" font-family="sans-serif" font-size="14" lengthAdjust="spacing" textLength="551.4277" x="305.5" y="622.292">updateStatusBatch(@Param("ids") List&lt;Long&gt;, @Param("status") Integer): int</text><ellipse cx="296.5" cy="635.2422" fill="#84BE84" rx="3" ry="3" style="stroke:#038048;stroke-width:1;"/><text fill="#000000" font-family="sans-serif" font-size="14" lengthAdjust="spacing" textLength="192.7598" x="305.5" y="638.5889">countByRole(Long): Integer</text></g><!--class LoginRecordMapper--><g id="elem_LoginRecordMapper"><rect fill="#F1F1F1" height="48" id="LoginRecordMapper" rx="2.5" ry="2.5" style="stroke:#181818;stroke-width:0.5;" width="172.0615" x="78" y="573.5"/><ellipse cx="93" cy="589.5" fill="#ADD1B2" rx="11" ry="11" style="stroke:#181818;stroke-width:1;"/><path d="M95.9688,595.1406 Q95.3906,595.4375 94.75,595.5781 Q94.1094,595.7344 93.4063,595.7344 Q90.9063,595.7344 89.5781,594.0938 Q88.2656,592.4375 88.2656,589.3125 Q88.2656,586.1875 89.5781,584.5313 Q90.9063,582.875 93.4063,582.875 Q94.1094,582.875 94.75,583.0313 Q95.4063,583.1875 95.9688,583.4844 L95.9688,586.2031 Q95.3438,585.625 94.75,585.3594 Q94.1563,585.0781 93.5313,585.0781 Q92.1875,585.0781 91.5,586.1563 Q90.8125,587.2188 90.8125,589.3125 Q90.8125,591.4063 91.5,592.4844 Q92.1875,593.5469 93.5313,593.5469 Q94.1563,593.5469 94.75,593.2813 Q95.3438,593 95.9688,592.4219 L95.9688,595.1406 Z " fill="#000000"/><text fill="#000000" font-family="sans-serif" font-size="14" lengthAdjust="spacing" textLength="140.0615" x="107" y="594.3467">LoginRecordMapper</text><line style="stroke:#181818;stroke-width:0.5;" x1="79" x2="249.0615" y1="605.5" y2="605.5"/><line style="stroke:#181818;stroke-width:0.5;" x1="79" x2="249.0615" y1="613.5" y2="613.5"/></g><!--link UserController to UserService--><g id="link_UserController_UserService"><path codeLine="81" d="M203,152.74 C203,196.29 203,250.85 203,296.31 " fill="transparent" id="UserController-to-UserService" style="stroke:#181818;stroke-width:1;"/><polygon fill="#181818" points="203,302.31,207,293.31,203,297.31,199,293.31,203,302.31" style="stroke:#181818;stroke-width:1;"/></g><!--link UserService to UserMapper--><g id="link_UserService_UserMapper"><path codeLine="82" d="M306.34,431.65 C366.7,468.82 436.4913,511.8034 491.6913,545.8034 " fill="transparent" id="UserService-to-UserMapper" style="stroke:#181818;stroke-width:1;"/><polygon fill="#181818" points="496.8,548.95,491.2347,540.8242,492.5428,546.3278,487.0392,547.6358,496.8,548.95" style="stroke:#181818;stroke-width:1;"/></g><!--link UserService to LoginRecordMapper--><g id="link_UserService_LoginRecordMapper"><path codeLine="83" d="M192.14,431.65 C184.09,478.79 174.6008,534.4258 168.9708,567.3658 " fill="transparent" id="UserService-to-LoginRecordMapper" style="stroke:#181818;stroke-width:1;"/><polygon fill="#181818" points="167.96,573.28,173.4191,565.0825,168.8024,568.3515,165.5334,563.7347,167.96,573.28" style="stroke:#181818;stroke-width:1;"/></g><!--reverse link UserEntity to UserMapper--><g id="link_UserEntity_UserMapper"><path codeLine="84" d="M574,495.28 C574,516.42 574,531.25 574,548.84 " fill="transparent" id="UserEntity-backto-UserMapper" style="stroke:#181818;stroke-width:1;"/><polygon fill="#181818" points="574,489.28,570,498.28,574,494.28,578,498.28,574,489.28" style="stroke:#181818;stroke-width:1;"/></g><!--link UserDTO to UserEntity--><g id="link_UserDTO_UserEntity"><path codeLine="85" d="M538.9,160.75 C543.22,186 547.3182,209.9759 552.2882,239.0259 " fill="transparent" id="UserDTO-to-UserEntity" style="stroke:#181818;stroke-width:1;"/><polygon fill="#181818" points="553.3,244.94,555.725,235.3944,552.4568,240.0116,547.8396,236.7434,553.3,244.94" style="stroke:#181818;stroke-width:1;"/></g><!--reverse link UserVO to UserEntity--><g id="link_UserVO_UserEntity"><path codeLine="86" d="M718.9655,182.052 C702.2455,203.262 687.55,221.92 669.54,244.77 " fill="transparent" id="UserVO-backto-UserEntity" style="stroke:#181818;stroke-width:1;"/><polygon fill="#181818" points="722.68,177.34,713.967,181.9316,719.5846,181.2666,720.2496,186.8843,722.68,177.34" style="stroke:#181818;stroke-width:1;"/></g><!--SRC=[ZLLRJnD157xlhvZmmbPeW9WO9KrZk1X9YaKAl0-xGzcmdIcpKwGI4y6WX0Z488c9HaN2vKKABugA_1fswS_mpCvkTxOjYJnrpZap-zrcw4RUwUVhlxitvtzIfeDT5qsxX8zIOOiQMaaXb46sDOZoZ9Q2HHMw59V982eAReV52knxnhYLBCupcXmZPMmxYGfUmWBpQPwikWABgZk8ngWW9SAHqUz_F_0kBle6lBFLcwFLT335cKF6B1ZBswx8Ie2ve0uaH9wLR3fbIvXvPc9d10iYby60oGaihSxj7aIeoMiLCH5oCjA3Q8dPLj1RmevjmV24vFQ8yJ8MiZ_B00kcgHUfL3Volnmswj-ydJL_xmpmDWxMDM6VLWcFT5qWjJRHMgXhH3KFO8YBszWHQjtMgk0IUL8j9q-NnQBzdEZL7YJO1DGdoMALk055RHdIt3lpjqwlBxyshdQz-g_6-Rv6SsIg49Bid9V_Y4PdUoKo5Ku9AewgmjGuVkrzl6f3CrFuxoHt3cI0Tnox2wJf5Z86xjwx0t_t7_IdDUloU9OaDxVaiTdfGNESbKCoCPCeRW6Xc_Sd_iRFHlt8VxMkoEaY4m6YDSavyXkFGIp6QqtLe3H9J4ZPJ47T3fE1orGK0IneEuuhMGMeDtG_XmnlyyH_kGh-zlblt_aR7-1No92PDdQ66QN453QZS40nACqK0ZxOiWeLmh7imQSDTNA2aBzzx6tyyCxND1vme02t7RZfAy4v3c2N3TTeNXauP9AuLKTaPH0XrJYhdCsfL9I8Y2KnfCVn3bqhDJsBXJa_XAaHPwiNmHfY6s-R0T1gd2nN6E-0ID92nkYoIHolVkcz-PqEINxQyZRtaoIBX2_P9j5k1MWFOgaGgz-nZSgpQ2BVMWfGkGHpSxuTbHHeZCwnIA18ds7D-KYX3lx70arNv5DN36ATK2eSXVqs3Ly3XSlVFlHs3b9G9NmE0zkOMsYjInp8pb0Dm5Ysp8dnS09pN3Qw5YNyhZJIgGGVZQ-6mbRLO0r9dCqZRCk50tIaKKVTJMWceSlZJ5Qb06WIdfj8bUWX16Oj-SnaShgRATtPg1TQrDfgDr7xHvlDP5htoYSqEZ9yuyAtB1fMrNy0]--></g></svg>