<svg xmlns="http://www.w3.org/2000/svg" xmlns:xlink="http://www.w3.org/1999/xlink" contentStyleType="text/css" data-diagram-type="CLASS" height="636px" preserveAspectRatio="none" style="width:1181px;height:636px;background:#FFFFFF;" version="1.1" viewBox="0 0 1181 636" width="1181px" zoomAndPan="magnify"><defs/><g><!--class LikeEntity--><g id="elem_LikeEntity"><rect codeLine="1" fill="#F1F1F1" height="145.7813" id="LikeEntity" rx="2.5" ry="2.5" style="stroke:#181818;stroke-width:0.5;" width="484.5615" x="48" y="204.5"/><ellipse cx="251.3896" cy="220.5" fill="#ADD1B2" rx="11" ry="11" style="stroke:#181818;stroke-width:1;"/><path d="M254.3584,226.1406 Q253.7803,226.4375 253.1396,226.5781 Q252.499,226.7344 251.7959,226.7344 Q249.2959,226.7344 247.9678,225.0938 Q246.6553,223.4375 246.6553,220.3125 Q246.6553,217.1875 247.9678,215.5313 Q249.2959,213.875 251.7959,213.875 Q252.499,213.875 253.1396,214.0313 Q253.7959,214.1875 254.3584,214.4844 L254.3584,217.2031 Q253.7334,216.625 253.1396,216.3594 Q252.5459,216.0781 251.9209,216.0781 Q250.5771,216.0781 249.8896,217.1563 Q249.2021,218.2188 249.2021,220.3125 Q249.2021,222.4063 249.8896,223.4844 Q250.5771,224.5469 251.9209,224.5469 Q252.5459,224.5469 253.1396,224.2813 Q253.7334,224 254.3584,223.4219 L254.3584,226.1406 Z " fill="#000000"/><text fill="#000000" font-family="sans-serif" font-size="14" lengthAdjust="spacing" textLength="69.2822" x="271.8896" y="225.3467">LikeEntity</text><line style="stroke:#181818;stroke-width:0.5;" x1="49" x2="531.5615" y1="236.5" y2="236.5"/><rect fill="transparent" height="6" style="stroke:#C82930;stroke-width:1;" width="6" x="56" y="247.1484"/><text fill="#000000" font-family="sans-serif" font-size="14" lengthAdjust="spacing" textLength="56.0684" x="68" y="253.4951">id: Long</text><rect fill="transparent" height="6" style="stroke:#C82930;stroke-width:1;" width="6" x="56" y="263.4453"/><text fill="#000000" font-family="sans-serif" font-size="14" lengthAdjust="spacing" textLength="146.9521" x="68" y="269.792">userId: Long  ' &#29992;&#25143;ID</text><rect fill="transparent" height="6" style="stroke:#C82930;stroke-width:1;" width="6" x="56" y="279.7422"/><text fill="#000000" font-family="sans-serif" font-size="14" lengthAdjust="spacing" textLength="361.5664" x="68" y="286.0889">contentId: Long ' &#20869;&#23481;ID&#65288;&#21487;&#33021;&#26159;&#24086;&#23376;&#12289;&#25361;&#25112;&#12289;&#21338;&#23458;&#31561;&#65289;</text><rect fill="transparent" height="6" style="stroke:#C82930;stroke-width:1;" width="6" x="56" y="296.0391"/><text fill="#000000" font-family="sans-serif" font-size="14" lengthAdjust="spacing" textLength="193.293" x="68" y="302.3857">createTime: LocalDateTime</text><line style="stroke:#181818;stroke-width:0.5;" x1="49" x2="531.5615" y1="309.6875" y2="309.6875"/><rect fill="#F24D5C" height="6" style="stroke:#C82930;stroke-width:1;" width="6" x="56" y="320.3359"/><text fill="#000000" font-family="sans-serif" font-size="14" lengthAdjust="spacing" textLength="458.5615" x="68" y="326.6826">contentType: String ' &#20869;&#23481;&#31867;&#22411; (&#22914; "BLOG", "POST", "CHALLENGE")</text><ellipse cx="59" cy="339.6328" fill="#84BE84" rx="3" ry="3" style="stroke:#038048;stroke-width:1;"/><text fill="#000000" font-family="sans-serif" font-size="14" lengthAdjust="spacing" textLength="330.1963" x="68" y="342.9795">isLiked(userId: Long, contentId: Long): boolean</text></g><!--class LikeDTO--><g id="elem_LikeDTO"><rect codeLine="10" fill="#F1F1F1" height="96.8906" id="LikeDTO" rx="2.5" ry="2.5" style="stroke:#181818;stroke-width:0.5;" width="164.8857" x="7" y="484"/><ellipse cx="55.812" cy="500" fill="#ADD1B2" rx="11" ry="11" style="stroke:#181818;stroke-width:1;"/><path d="M58.7808,505.6406 Q58.2026,505.9375 57.562,506.0781 Q56.9214,506.2344 56.2183,506.2344 Q53.7183,506.2344 52.3901,504.5938 Q51.0776,502.9375 51.0776,499.8125 Q51.0776,496.6875 52.3901,495.0313 Q53.7183,493.375 56.2183,493.375 Q56.9214,493.375 57.562,493.5313 Q58.2183,493.6875 58.7808,493.9844 L58.7808,496.7031 Q58.1558,496.125 57.562,495.8594 Q56.9683,495.5781 56.3433,495.5781 Q54.9995,495.5781 54.312,496.6563 Q53.6245,497.7188 53.6245,499.8125 Q53.6245,501.9063 54.312,502.9844 Q54.9995,504.0469 56.3433,504.0469 Q56.9683,504.0469 57.562,503.7813 Q58.1558,503.5 58.7808,502.9219 L58.7808,505.6406 Z " fill="#000000"/><text fill="#000000" font-family="sans-serif" font-size="14" lengthAdjust="spacing" textLength="58.7617" x="76.312" y="504.8467">LikeDTO</text><line style="stroke:#181818;stroke-width:0.5;" x1="8" x2="170.8857" y1="516" y2="516"/><rect fill="transparent" height="6" style="stroke:#C82930;stroke-width:1;" width="6" x="15" y="526.6484"/><text fill="#000000" font-family="sans-serif" font-size="14" lengthAdjust="spacing" textLength="86.8438" x="27" y="532.9951">userId: Long</text><rect fill="transparent" height="6" style="stroke:#C82930;stroke-width:1;" width="6" x="15" y="542.9453"/><text fill="#000000" font-family="sans-serif" font-size="14" lengthAdjust="spacing" textLength="109.9082" x="27" y="549.292">contentId: Long</text><rect fill="transparent" height="6" style="stroke:#C82930;stroke-width:1;" width="6" x="15" y="559.2422"/><text fill="#000000" font-family="sans-serif" font-size="14" lengthAdjust="spacing" textLength="138.8857" x="27" y="565.5889">contentType: String</text><line style="stroke:#181818;stroke-width:0.5;" x1="8" x2="170.8857" y1="572.8906" y2="572.8906"/></g><!--class LikeVO--><g id="elem_LikeVO"><rect codeLine="16" fill="#F1F1F1" height="129.4844" id="LikeVO" rx="2.5" ry="2.5" style="stroke:#181818;stroke-width:0.5;" width="267.1377" x="207" y="468"/><ellipse cx="311.8154" cy="484" fill="#ADD1B2" rx="11" ry="11" style="stroke:#181818;stroke-width:1;"/><path d="M314.7842,489.6406 Q314.2061,489.9375 313.5654,490.0781 Q312.9248,490.2344 312.2217,490.2344 Q309.7217,490.2344 308.3936,488.5938 Q307.0811,486.9375 307.0811,483.8125 Q307.0811,480.6875 308.3936,479.0313 Q309.7217,477.375 312.2217,477.375 Q312.9248,477.375 313.5654,477.5313 Q314.2217,477.6875 314.7842,477.9844 L314.7842,480.7031 Q314.1592,480.125 313.5654,479.8594 Q312.9717,479.5781 312.3467,479.5781 Q311.0029,479.5781 310.3154,480.6563 Q309.6279,481.7188 309.6279,483.8125 Q309.6279,485.9063 310.3154,486.9844 Q311.0029,488.0469 312.3467,488.0469 Q312.9717,488.0469 313.5654,487.7813 Q314.1592,487.5 314.7842,486.9219 L314.7842,489.6406 Z " fill="#000000"/><text fill="#000000" font-family="sans-serif" font-size="14" lengthAdjust="spacing" textLength="49.0068" x="332.3154" y="488.8467">LikeVO</text><line style="stroke:#181818;stroke-width:0.5;" x1="208" x2="473.1377" y1="500" y2="500"/><rect fill="transparent" height="6" style="stroke:#C82930;stroke-width:1;" width="6" x="215" y="510.6484"/><text fill="#000000" font-family="sans-serif" font-size="14" lengthAdjust="spacing" textLength="86.8438" x="227" y="516.9951">userId: Long</text><rect fill="transparent" height="6" style="stroke:#C82930;stroke-width:1;" width="6" x="215" y="526.9453"/><text fill="#000000" font-family="sans-serif" font-size="14" lengthAdjust="spacing" textLength="121.1875" x="227" y="533.292">username: String</text><rect fill="transparent" height="6" style="stroke:#C82930;stroke-width:1;" width="6" x="215" y="543.2422"/><text fill="#000000" font-family="sans-serif" font-size="14" lengthAdjust="spacing" textLength="109.9082" x="227" y="549.5889">contentId: Long</text><rect fill="transparent" height="6" style="stroke:#C82930;stroke-width:1;" width="6" x="215" y="559.5391"/><text fill="#000000" font-family="sans-serif" font-size="14" lengthAdjust="spacing" textLength="138.8857" x="227" y="565.8857">contentType: String</text><rect fill="transparent" height="6" style="stroke:#C82930;stroke-width:1;" width="6" x="215" y="575.8359"/><text fill="#000000" font-family="sans-serif" font-size="14" lengthAdjust="spacing" textLength="241.1377" x="227" y="582.1826">createTime: String ' &#26684;&#24335;&#21270;&#21518;&#30340;&#26102;&#38388;</text><line style="stroke:#181818;stroke-width:0.5;" x1="208" x2="473.1377" y1="589.4844" y2="589.4844"/></g><!--class CommentEntity--><g id="elem_CommentEntity"><rect codeLine="24" fill="#F1F1F1" height="194.6719" id="CommentEntity" rx="2.5" ry="2.5" style="stroke:#181818;stroke-width:0.5;" width="344.4316" x="568.5" y="180"/><ellipse cx="681.7339" cy="196" fill="#ADD1B2" rx="11" ry="11" style="stroke:#181818;stroke-width:1;"/><path d="M684.7026,201.6406 Q684.1245,201.9375 683.4839,202.0781 Q682.8433,202.2344 682.1401,202.2344 Q679.6401,202.2344 678.312,200.5938 Q676.9995,198.9375 676.9995,195.8125 Q676.9995,192.6875 678.312,191.0313 Q679.6401,189.375 682.1401,189.375 Q682.8433,189.375 683.4839,189.5313 Q684.1401,189.6875 684.7026,189.9844 L684.7026,192.7031 Q684.0776,192.125 683.4839,191.8594 Q682.8901,191.5781 682.2651,191.5781 Q680.9214,191.5781 680.2339,192.6563 Q679.5464,193.7188 679.5464,195.8125 Q679.5464,197.9063 680.2339,198.9844 Q680.9214,200.0469 682.2651,200.0469 Q682.8901,200.0469 683.4839,199.7813 Q684.0776,199.5 684.7026,198.9219 L684.7026,201.6406 Z " fill="#000000"/><text fill="#000000" font-family="sans-serif" font-size="14" lengthAdjust="spacing" textLength="109.4639" x="702.2339" y="200.8467">CommentEntity</text><line style="stroke:#181818;stroke-width:0.5;" x1="569.5" x2="911.9316" y1="212" y2="212"/><rect fill="transparent" height="6" style="stroke:#C82930;stroke-width:1;" width="6" x="576.5" y="222.6484"/><text fill="#000000" font-family="sans-serif" font-size="14" lengthAdjust="spacing" textLength="56.0684" x="588.5" y="228.9951">id: Long</text><rect fill="transparent" height="6" style="stroke:#C82930;stroke-width:1;" width="6" x="576.5" y="238.9453"/><text fill="#000000" font-family="sans-serif" font-size="14" lengthAdjust="spacing" textLength="142.502" x="588.5" y="245.292">userId: Long ' &#29992;&#25143;ID</text><rect fill="transparent" height="6" style="stroke:#C82930;stroke-width:1;" width="6" x="576.5" y="255.2422"/><text fill="#000000" font-family="sans-serif" font-size="14" lengthAdjust="spacing" textLength="165.5664" x="588.5" y="261.5889">contentId: Long ' &#20869;&#23481;ID</text><rect fill="transparent" height="6" style="stroke:#C82930;stroke-width:1;" width="6" x="576.5" y="271.5391"/><text fill="#000000" font-family="sans-serif" font-size="14" lengthAdjust="spacing" textLength="207.6348" x="588.5" y="277.8857">contentType: String ' &#20869;&#23481;&#31867;&#22411;</text><rect fill="transparent" height="6" style="stroke:#C82930;stroke-width:1;" width="6" x="576.5" y="287.8359"/><text fill="#000000" font-family="sans-serif" font-size="14" lengthAdjust="spacing" textLength="147.5742" x="588.5" y="294.1826">text: String ' &#35780;&#35770;&#20869;&#23481;</text><rect fill="transparent" height="6" style="stroke:#C82930;stroke-width:1;" width="6" x="576.5" y="304.1328"/><text fill="#000000" font-family="sans-serif" font-size="14" lengthAdjust="spacing" textLength="193.293" x="588.5" y="310.4795">createTime: LocalDateTime</text><line style="stroke:#181818;stroke-width:0.5;" x1="569.5" x2="911.9316" y1="317.7813" y2="317.7813"/><rect fill="#F24D5C" height="6" style="stroke:#C82930;stroke-width:1;" width="6" x="576.5" y="328.4297"/><text fill="#000000" font-family="sans-serif" font-size="14" lengthAdjust="spacing" textLength="271.5371" x="588.5" y="334.7764">parentId: Long ' &#29238;&#35780;&#35770;ID (&#22914;&#26524;&#26159;&#23376;&#35780;&#35770;)</text><ellipse cx="579.5" cy="347.7266" fill="#84BE84" rx="3" ry="3" style="stroke:#038048;stroke-width:1;"/><text fill="#000000" font-family="sans-serif" font-size="14" lengthAdjust="spacing" textLength="318.4316" x="588.5" y="351.0732">getCommentAuthor(userId: Long): UserEntity</text><ellipse cx="579.5" cy="364.0234" fill="#84BE84" rx="3" ry="3" style="stroke:#038048;stroke-width:1;"/><text fill="#000000" font-family="sans-serif" font-size="14" lengthAdjust="spacing" textLength="266.8887" x="588.5" y="367.3701">getParentComment(): CommentEntity</text></g><!--class CommentDTO--><g id="elem_CommentDTO"><rect codeLine="36" fill="#F1F1F1" height="129.4844" id="CommentDTO" rx="2.5" ry="2.5" style="stroke:#181818;stroke-width:0.5;" width="164.8857" x="608" y="468"/><ellipse cx="638.2741" cy="484" fill="#ADD1B2" rx="11" ry="11" style="stroke:#181818;stroke-width:1;"/><path d="M641.2428,489.6406 Q640.6647,489.9375 640.0241,490.0781 Q639.3834,490.2344 638.6803,490.2344 Q636.1803,490.2344 634.8522,488.5938 Q633.5397,486.9375 633.5397,483.8125 Q633.5397,480.6875 634.8522,479.0313 Q636.1803,477.375 638.6803,477.375 Q639.3834,477.375 640.0241,477.5313 Q640.6803,477.6875 641.2428,477.9844 L641.2428,480.7031 Q640.6178,480.125 640.0241,479.8594 Q639.4303,479.5781 638.8053,479.5781 Q637.4616,479.5781 636.7741,480.6563 Q636.0866,481.7188 636.0866,483.8125 Q636.0866,485.9063 636.7741,486.9844 Q637.4616,488.0469 638.8053,488.0469 Q639.4303,488.0469 640.0241,487.7813 Q640.6178,487.5 641.2428,486.9219 L641.2428,489.6406 Z " fill="#000000"/><text fill="#000000" font-family="sans-serif" font-size="14" lengthAdjust="spacing" textLength="98.9434" x="655.6683" y="488.8467">CommentDTO</text><line style="stroke:#181818;stroke-width:0.5;" x1="609" x2="771.8857" y1="500" y2="500"/><rect fill="transparent" height="6" style="stroke:#C82930;stroke-width:1;" width="6" x="616" y="510.6484"/><text fill="#000000" font-family="sans-serif" font-size="14" lengthAdjust="spacing" textLength="86.8438" x="628" y="516.9951">userId: Long</text><rect fill="transparent" height="6" style="stroke:#C82930;stroke-width:1;" width="6" x="616" y="526.9453"/><text fill="#000000" font-family="sans-serif" font-size="14" lengthAdjust="spacing" textLength="109.9082" x="628" y="533.292">contentId: Long</text><rect fill="transparent" height="6" style="stroke:#C82930;stroke-width:1;" width="6" x="616" y="543.2422"/><text fill="#000000" font-family="sans-serif" font-size="14" lengthAdjust="spacing" textLength="138.8857" x="628" y="549.5889">contentType: String</text><rect fill="transparent" height="6" style="stroke:#C82930;stroke-width:1;" width="6" x="616" y="559.5391"/><text fill="#000000" font-family="sans-serif" font-size="14" lengthAdjust="spacing" textLength="78.8252" x="628" y="565.8857">text: String</text><rect fill="transparent" height="6" style="stroke:#C82930;stroke-width:1;" width="6" x="616" y="575.8359"/><text fill="#000000" font-family="sans-serif" font-size="14" lengthAdjust="spacing" textLength="102.5049" x="628" y="582.1826">parentId: Long</text><line style="stroke:#181818;stroke-width:0.5;" x1="609" x2="771.8857" y1="589.4844" y2="589.4844"/></g><!--class CommentVO--><g id="elem_CommentVO"><rect codeLine="44" fill="#F1F1F1" height="194.6719" id="CommentVO" rx="2.5" ry="2.5" style="stroke:#181818;stroke-width:0.5;" width="366.3545" x="808.5" y="435"/><ellipse cx="942.833" cy="451" fill="#ADD1B2" rx="11" ry="11" style="stroke:#181818;stroke-width:1;"/><path d="M945.8018,456.6406 Q945.2236,456.9375 944.583,457.0781 Q943.9424,457.2344 943.2393,457.2344 Q940.7393,457.2344 939.4111,455.5938 Q938.0986,453.9375 938.0986,450.8125 Q938.0986,447.6875 939.4111,446.0313 Q940.7393,444.375 943.2393,444.375 Q943.9424,444.375 944.583,444.5313 Q945.2393,444.6875 945.8018,444.9844 L945.8018,447.7031 Q945.1768,447.125 944.583,446.8594 Q943.9893,446.5781 943.3643,446.5781 Q942.0205,446.5781 941.333,447.6563 Q940.6455,448.7188 940.6455,450.8125 Q940.6455,452.9063 941.333,453.9844 Q942.0205,455.0469 943.3643,455.0469 Q943.9893,455.0469 944.583,454.7813 Q945.1768,454.5 945.8018,453.9219 L945.8018,456.6406 Z " fill="#000000"/><text fill="#000000" font-family="sans-serif" font-size="14" lengthAdjust="spacing" textLength="89.1885" x="963.333" y="455.8467">CommentVO</text><line style="stroke:#181818;stroke-width:0.5;" x1="809.5" x2="1173.8545" y1="467" y2="467"/><rect fill="transparent" height="6" style="stroke:#C82930;stroke-width:1;" width="6" x="816.5" y="477.6484"/><text fill="#000000" font-family="sans-serif" font-size="14" lengthAdjust="spacing" textLength="56.0684" x="828.5" y="483.9951">id: Long</text><rect fill="transparent" height="6" style="stroke:#C82930;stroke-width:1;" width="6" x="816.5" y="493.9453"/><text fill="#000000" font-family="sans-serif" font-size="14" lengthAdjust="spacing" textLength="86.8438" x="828.5" y="500.292">userId: Long</text><rect fill="transparent" height="6" style="stroke:#C82930;stroke-width:1;" width="6" x="816.5" y="510.2422"/><text fill="#000000" font-family="sans-serif" font-size="14" lengthAdjust="spacing" textLength="121.1875" x="828.5" y="516.5889">username: String</text><rect fill="transparent" height="6" style="stroke:#C82930;stroke-width:1;" width="6" x="816.5" y="526.5391"/><text fill="#000000" font-family="sans-serif" font-size="14" lengthAdjust="spacing" textLength="109.9082" x="828.5" y="532.8857">contentId: Long</text><rect fill="transparent" height="6" style="stroke:#C82930;stroke-width:1;" width="6" x="816.5" y="542.8359"/><text fill="#000000" font-family="sans-serif" font-size="14" lengthAdjust="spacing" textLength="138.8857" x="828.5" y="549.1826">contentType: String</text><rect fill="transparent" height="6" style="stroke:#C82930;stroke-width:1;" width="6" x="816.5" y="559.1328"/><text fill="#000000" font-family="sans-serif" font-size="14" lengthAdjust="spacing" textLength="78.8252" x="828.5" y="565.4795">text: String</text><rect fill="transparent" height="6" style="stroke:#C82930;stroke-width:1;" width="6" x="816.5" y="575.4297"/><text fill="#000000" font-family="sans-serif" font-size="14" lengthAdjust="spacing" textLength="102.5049" x="828.5" y="581.7764">parentId: Long</text><rect fill="transparent" height="6" style="stroke:#C82930;stroke-width:1;" width="6" x="816.5" y="591.7266"/><text fill="#000000" font-family="sans-serif" font-size="14" lengthAdjust="spacing" textLength="241.1377" x="828.5" y="598.0732">createTime: String ' &#26684;&#24335;&#21270;&#21518;&#30340;&#26102;&#38388;</text><rect fill="transparent" height="6" style="stroke:#C82930;stroke-width:1;" width="6" x="816.5" y="608.0234"/><text fill="#000000" font-family="sans-serif" font-size="14" lengthAdjust="spacing" textLength="340.3545" x="828.5" y="614.3701">replyComments: List&lt;CommentVO&gt; ' &#23376;&#35780;&#35770;&#21015;&#34920;</text><line style="stroke:#181818;stroke-width:0.5;" x1="809.5" x2="1173.8545" y1="621.6719" y2="621.6719"/></g><!--class ContentInteractionService--><g id="elem_ContentInteractionService"><rect codeLine="56" fill="#F1F1F1" height="113.1875" id="ContentInteractionService" rx="2.5" ry="2.5" style="stroke:#181818;stroke-width:0.5;" width="822.3252" x="104.5" y="7"/><ellipse cx="419.7256" cy="23" fill="#ADD1B2" rx="11" ry="11" style="stroke:#181818;stroke-width:1;"/><path d="M422.6943,28.6406 Q422.1162,28.9375 421.4756,29.0781 Q420.835,29.2344 420.1318,29.2344 Q417.6318,29.2344 416.3037,27.5938 Q414.9912,25.9375 414.9912,22.8125 Q414.9912,19.6875 416.3037,18.0313 Q417.6318,16.375 420.1318,16.375 Q420.835,16.375 421.4756,16.5313 Q422.1318,16.6875 422.6943,16.9844 L422.6943,19.7031 Q422.0693,19.125 421.4756,18.8594 Q420.8818,18.5781 420.2568,18.5781 Q418.9131,18.5781 418.2256,19.6563 Q417.5381,20.7188 417.5381,22.8125 Q417.5381,24.9063 418.2256,25.9844 Q418.9131,27.0469 420.2568,27.0469 Q420.8818,27.0469 421.4756,26.7813 Q422.0693,26.5 422.6943,25.9219 L422.6943,28.6406 Z " fill="#000000"/><text fill="#000000" font-family="sans-serif" font-size="14" lengthAdjust="spacing" textLength="183.374" x="440.2256" y="27.8467">ContentInteractionService</text><line style="stroke:#181818;stroke-width:0.5;" x1="105.5" x2="925.8252" y1="39" y2="39"/><line style="stroke:#181818;stroke-width:0.5;" x1="105.5" x2="925.8252" y1="47" y2="47"/><ellipse cx="115.5" cy="60.6484" fill="#84BE84" rx="3" ry="3" style="stroke:#038048;stroke-width:1;"/><text fill="#000000" font-family="sans-serif" font-size="14" lengthAdjust="spacing" textLength="551.9746" x="124.5" y="63.9951">likeContent(userId: Long, contentId: Long, contentType: String): Result&lt;Void&gt;</text><ellipse cx="115.5" cy="76.9453" fill="#84BE84" rx="3" ry="3" style="stroke:#038048;stroke-width:1;"/><text fill="#000000" font-family="sans-serif" font-size="14" lengthAdjust="spacing" textLength="796.3252" x="124.5" y="80.292">commentContent(userId: Long, contentId: Long, contentType: String, text: String, parentId: Long): Result&lt;Long&gt;</text><ellipse cx="115.5" cy="93.2422" fill="#84BE84" rx="3" ry="3" style="stroke:#038048;stroke-width:1;"/><text fill="#000000" font-family="sans-serif" font-size="14" lengthAdjust="spacing" textLength="511.4717" x="124.5" y="96.5889">getLikesForContent(contentId: Long, contentType: String): List&lt;LikeVO&gt;</text><ellipse cx="115.5" cy="109.5391" fill="#84BE84" rx="3" ry="3" style="stroke:#038048;stroke-width:1;"/><text fill="#000000" font-family="sans-serif" font-size="14" lengthAdjust="spacing" textLength="591.835" x="124.5" y="112.8857">getCommentsForContent(contentId: Long, contentType: String): List&lt;CommentVO&gt;</text></g><!--link LikeEntity to LikeDTO--><g id="link_LikeEntity_LikeDTO"><path codeLine="63" d="M233.17,350.66 C199.29,393.31 157.32,446.13 127.52,483.65 " fill="transparent" id="LikeEntity-LikeDTO" style="stroke:#181818;stroke-width:1;"/></g><!--link LikeEntity to LikeVO--><g id="link_LikeEntity_LikeVO"><path codeLine="64" d="M304.76,350.66 C312.06,387.61 320.88,432.2 327.92,467.86 " fill="transparent" id="LikeEntity-LikeVO" style="stroke:#181818;stroke-width:1;"/></g><!--link CommentEntity to CommentDTO--><g id="link_CommentEntity_CommentDTO"><path codeLine="65" d="M721.38,375.23 C715.26,406.2 708.64,439.69 703.11,467.7 " fill="transparent" id="CommentEntity-CommentDTO" style="stroke:#181818;stroke-width:1;"/></g><!--link CommentEntity to CommentVO--><g id="link_CommentEntity_CommentVO"><path codeLine="66" d="M836.47,375.23 C855.84,394.76 876.21,415.29 895.59,434.82 " fill="transparent" id="CommentEntity-CommentVO" style="stroke:#181818;stroke-width:1;"/></g><!--link ContentInteractionService to LikeEntity--><g id="link_ContentInteractionService_LikeEntity"><path codeLine="67" d="M456.38,120.2 C429.04,145.96 396.22,176.89 367.02,204.4 " fill="transparent" id="ContentInteractionService-LikeEntity" style="stroke:#181818;stroke-width:1;"/></g><!--link ContentInteractionService to CommentEntity--><g id="link_ContentInteractionService_CommentEntity"><path codeLine="68" d="M574.62,120.2 C594.02,138.48 616.17,159.36 637.84,179.77 " fill="transparent" id="ContentInteractionService-CommentEntity" style="stroke:#181818;stroke-width:1;"/></g><!--SRC=[hLNDQjj04BxhAHPVuX3v1Kmmf96R64GTQjTtLLxIfR9af7MfAON-f4MXIUD2YKCeeScXv6ARG4d_tASfAxcdl49tL_-AbIeX5zixC_lDp3VVZbLDiImWeyUmgcE4- -2P0409e7OPo8Q-oGyz2vertm300d0_dZhsjvh4dQgXOwZZqBy0oDitPFoZ9brCRR8tcRt-xHnCoFTzCXhyUV7IsVdWs0Vq1zaz9ECJTxHzCTsE0pNxNLW63MoY69XxzeiSlGD5ykKLADoHwsi54HGsweqc-rvTNv7bwhsrQc7H0pAXWc4JTI0hILKqoJzIxn905cksNOmt9QQxM2o3XuQXGKKNdWk26d8aDUi-GV7hytZ8QYc9ryg4OmPTwKJthfCZpKB8flDvIgPxP6UV3DwxXrlEyFply6jKqghHwL2id4h8BOISu-LX63x5CVziiZKR__IYkB-hcCaahdtk1TKahW_dw1FJssZWMVD8OXDYl_EL7dvac0bjK2aye4UFao1yWrVXNohIa0HpbmYz1TcakPb3ngMqeReoPtWxKljVNTUK8mitOLVh-srO50PPU3digiA44moOsCFPyMcyTwzm-cagAaQ6te3c4wH2piKIqEYpysEktW7Yl7xfgEz3gwVXvPQ1sXMEg7frtHnKJ30efkYBKh9J9P0WMn_MNSCCqkQidZFfhPvAIlmtHOlcmgOG-oifbOAbESVQgWl9TKFjqNF9zF5hMHFseVrNU6LS0lyV]--></g></svg>