<svg xmlns="http://www.w3.org/2000/svg" xmlns:xlink="http://www.w3.org/1999/xlink" contentStyleType="text/css" data-diagram-type="CLASS" height="489px" preserveAspectRatio="none" style="width:716px;height:489px;background:#FFFFFF;" version="1.1" viewBox="0 0 716 489" width="716px" zoomAndPan="magnify"><defs/><g><!--class GroupEntity--><g id="elem_GroupEntity"><rect codeLine="1" fill="#F1F1F1" height="145.7813" id="GroupEntity" rx="2.5" ry="2.5" style="stroke:#181818;stroke-width:0.5;" width="269.1748" x="18" y="180"/><ellipse cx="106.4365" cy="196" fill="#ADD1B2" rx="11" ry="11" style="stroke:#181818;stroke-width:1;"/><path d="M109.4053,201.6406 Q108.8271,201.9375 108.1865,202.0781 Q107.5459,202.2344 106.8428,202.2344 Q104.3428,202.2344 103.0146,200.5938 Q101.7021,198.9375 101.7021,195.8125 Q101.7021,192.6875 103.0146,191.0313 Q104.3428,189.375 106.8428,189.375 Q107.5459,189.375 108.1865,189.5313 Q108.8428,189.6875 109.4053,189.9844 L109.4053,192.7031 Q108.7803,192.125 108.1865,191.8594 Q107.5928,191.5781 106.9678,191.5781 Q105.624,191.5781 104.9365,192.6563 Q104.249,193.7188 104.249,195.8125 Q104.249,197.9063 104.9365,198.9844 Q105.624,200.0469 106.9678,200.0469 Q107.5928,200.0469 108.1865,199.7813 Q108.7803,199.5 109.4053,198.9219 L109.4053,201.6406 Z " fill="#000000"/><text fill="#000000" font-family="sans-serif" font-size="14" lengthAdjust="spacing" textLength="83.8018" x="126.9365" y="200.8467">GroupEntity</text><line style="stroke:#181818;stroke-width:0.5;" x1="19" x2="286.1748" y1="212" y2="212"/><rect fill="transparent" height="6" style="stroke:#C82930;stroke-width:1;" width="6" x="26" y="222.6484"/><text fill="#000000" font-family="sans-serif" font-size="14" lengthAdjust="spacing" textLength="56.0684" x="38" y="228.9951">id: Long</text><rect fill="transparent" height="6" style="stroke:#C82930;stroke-width:1;" width="6" x="26" y="238.9453"/><text fill="#000000" font-family="sans-serif" font-size="14" lengthAdjust="spacing" textLength="90.6514" x="38" y="245.292">name: String</text><rect fill="transparent" height="6" style="stroke:#C82930;stroke-width:1;" width="6" x="26" y="255.2422"/><text fill="#000000" font-family="sans-serif" font-size="14" lengthAdjust="spacing" textLength="224.0547" x="38" y="261.5889">members: List&lt;GroupMember&gt;</text><rect fill="transparent" height="6" style="stroke:#C82930;stroke-width:1;" width="6" x="26" y="271.5391"/><text fill="#000000" font-family="sans-serif" font-size="14" lengthAdjust="spacing" textLength="243.1748" x="38" y="277.8857">challenges: List&lt;ChallengeEntity&gt;</text><line style="stroke:#181818;stroke-width:0.5;" x1="19" x2="286.1748" y1="285.1875" y2="285.1875"/><ellipse cx="29" cy="298.8359" fill="#84BE84" rx="3" ry="3" style="stroke:#038048;stroke-width:1;"/><text fill="#000000" font-family="sans-serif" font-size="14" lengthAdjust="spacing" textLength="234.1719" x="38" y="302.1826">addMember(GroupMember): void</text><ellipse cx="29" cy="315.1328" fill="#84BE84" rx="3" ry="3" style="stroke:#038048;stroke-width:1;"/><text fill="#000000" font-family="sans-serif" font-size="14" lengthAdjust="spacing" textLength="221.2451" x="38" y="318.4795">removeMember(Long): boolean</text></g><!--class GroupMember--><g id="elem_GroupMember"><rect codeLine="10" fill="#F1F1F1" height="113.1875" id="GroupMember" rx="2.5" ry="2.5" style="stroke:#181818;stroke-width:0.5;" width="290.708" x="7" y="7"/><ellipse cx="97.8462" cy="23" fill="#ADD1B2" rx="11" ry="11" style="stroke:#181818;stroke-width:1;"/><path d="M100.8149,28.6406 Q100.2368,28.9375 99.5962,29.0781 Q98.9556,29.2344 98.2524,29.2344 Q95.7524,29.2344 94.4243,27.5938 Q93.1118,25.9375 93.1118,22.8125 Q93.1118,19.6875 94.4243,18.0313 Q95.7524,16.375 98.2524,16.375 Q98.9556,16.375 99.5962,16.5313 Q100.2524,16.6875 100.8149,16.9844 L100.8149,19.7031 Q100.1899,19.125 99.5962,18.8594 Q99.0024,18.5781 98.3774,18.5781 Q97.0337,18.5781 96.3462,19.6563 Q95.6587,20.7188 95.6587,22.8125 Q95.6587,24.9063 96.3462,25.9844 Q97.0337,27.0469 98.3774,27.0469 Q99.0024,27.0469 99.5962,26.7813 Q100.1899,26.5 100.8149,25.9219 L100.8149,28.6406 Z " fill="#000000"/><text fill="#000000" font-family="sans-serif" font-size="14" lengthAdjust="spacing" textLength="100.5156" x="118.3462" y="27.8467">GroupMember</text><line style="stroke:#181818;stroke-width:0.5;" x1="8" x2="296.708" y1="39" y2="39"/><rect fill="transparent" height="6" style="stroke:#C82930;stroke-width:1;" width="6" x="15" y="49.6484"/><text fill="#000000" font-family="sans-serif" font-size="14" lengthAdjust="spacing" textLength="86.8438" x="27" y="55.9951">userId: Long</text><rect fill="transparent" height="6" style="stroke:#C82930;stroke-width:1;" width="6" x="15" y="65.9453"/><text fill="#000000" font-family="sans-serif" font-size="14" lengthAdjust="spacing" textLength="173.7627" x="27" y="72.292">joinTime: LocalDateTime</text><line style="stroke:#181818;stroke-width:0.5;" x1="8" x2="296.708" y1="79.5938" y2="79.5938"/><rect fill="#F24D5C" height="6" style="stroke:#C82930;stroke-width:1;" width="6" x="15" y="90.2422"/><text fill="#000000" font-family="sans-serif" font-size="14" lengthAdjust="spacing" textLength="264.708" x="27" y="96.5889">role: String (OWNER/ADMIN/MEMBER)</text><ellipse cx="18" cy="109.5391" fill="#84BE84" rx="3" ry="3" style="stroke:#038048;stroke-width:1;"/><text fill="#000000" font-family="sans-serif" font-size="14" lengthAdjust="spacing" textLength="171.2129" x="27" y="112.8857">promoteToAdmin(): void</text></g><!--class GroupService--><g id="elem_GroupService"><rect codeLine="17" fill="#F1F1F1" height="129.4844" id="GroupService" rx="2.5" ry="2.5" style="stroke:#181818;stroke-width:0.5;" width="387.1016" x="322" y="188.5"/><ellipse cx="463.9653" cy="204.5" fill="#ADD1B2" rx="11" ry="11" style="stroke:#181818;stroke-width:1;"/><path d="M466.9341,210.1406 Q466.356,210.4375 465.7153,210.5781 Q465.0747,210.7344 464.3716,210.7344 Q461.8716,210.7344 460.5435,209.0938 Q459.231,207.4375 459.231,204.3125 Q459.231,201.1875 460.5435,199.5313 Q461.8716,197.875 464.3716,197.875 Q465.0747,197.875 465.7153,198.0313 Q466.3716,198.1875 466.9341,198.4844 L466.9341,201.2031 Q466.3091,200.625 465.7153,200.3594 Q465.1216,200.0781 464.4966,200.0781 Q463.1528,200.0781 462.4653,201.1563 Q461.7778,202.2188 461.7778,204.3125 Q461.7778,206.4063 462.4653,207.4844 Q463.1528,208.5469 464.4966,208.5469 Q465.1216,208.5469 465.7153,208.2813 Q466.3091,208 466.9341,207.4219 L466.9341,210.1406 Z " fill="#000000"/><text fill="#000000" font-family="sans-serif" font-size="14" lengthAdjust="spacing" textLength="94.6709" x="484.4653" y="209.3467">GroupService</text><line style="stroke:#181818;stroke-width:0.5;" x1="323" x2="708.1016" y1="220.5" y2="220.5"/><rect fill="transparent" height="6" style="stroke:#C82930;stroke-width:1;" width="6" x="330" y="231.1484"/><text fill="#000000" font-family="sans-serif" font-size="14" lengthAdjust="spacing" textLength="198.666" x="342" y="237.4951">groupMapper: GroupMapper</text><rect fill="transparent" height="6" style="stroke:#C82930;stroke-width:1;" width="6" x="330" y="247.4453"/><text fill="#000000" font-family="sans-serif" font-size="14" lengthAdjust="spacing" textLength="250.5576" x="342" y="253.792">challengeService: ChallengeService</text><line style="stroke:#181818;stroke-width:0.5;" x1="323" x2="708.1016" y1="261.0938" y2="261.0938"/><ellipse cx="333" cy="274.7422" fill="#84BE84" rx="3" ry="3" style="stroke:#038048;stroke-width:1;"/><text fill="#000000" font-family="sans-serif" font-size="14" lengthAdjust="spacing" textLength="258.2002" x="342" y="278.0889">createGroup(GroupDTO, Long): Long</text><ellipse cx="333" cy="291.0391" fill="#84BE84" rx="3" ry="3" style="stroke:#038048;stroke-width:1;"/><text fill="#000000" font-family="sans-serif" font-size="14" lengthAdjust="spacing" textLength="361.1016" x="342" y="294.3857">publishGroupChallenge(Long, ChallengeDTO): Long</text><ellipse cx="333" cy="307.3359" fill="#84BE84" rx="3" ry="3" style="stroke:#038048;stroke-width:1;"/><text fill="#000000" font-family="sans-serif" font-size="14" lengthAdjust="spacing" textLength="341.0381" x="342" y="310.6826">getMemberProgress(Long): Map&lt;Long, Double&gt;</text></g><!--class GroupController--><g id="elem_GroupController"><rect codeLine="25" fill="#F1F1F1" height="96.8906" id="GroupController" rx="2.5" ry="2.5" style="stroke:#181818;stroke-width:0.5;" width="361.9453" x="334.5" y="15"/><ellipse cx="455.1714" cy="31" fill="#ADD1B2" rx="11" ry="11" style="stroke:#181818;stroke-width:1;"/><path d="M458.1401,36.6406 Q457.562,36.9375 456.9214,37.0781 Q456.2808,37.2344 455.5776,37.2344 Q453.0776,37.2344 451.7495,35.5938 Q450.437,33.9375 450.437,30.8125 Q450.437,27.6875 451.7495,26.0313 Q453.0776,24.375 455.5776,24.375 Q456.2808,24.375 456.9214,24.5313 Q457.5776,24.6875 458.1401,24.9844 L458.1401,27.7031 Q457.5151,27.125 456.9214,26.8594 Q456.3276,26.5781 455.7026,26.5781 Q454.3589,26.5781 453.6714,27.6563 Q452.9839,28.7188 452.9839,30.8125 Q452.9839,32.9063 453.6714,33.9844 Q454.3589,35.0469 455.7026,35.0469 Q456.3276,35.0469 456.9214,34.7813 Q457.5151,34.5 458.1401,33.9219 L458.1401,36.6406 Z " fill="#000000"/><text fill="#000000" font-family="sans-serif" font-size="14" lengthAdjust="spacing" textLength="112.1025" x="475.6714" y="35.8467">GroupController</text><line style="stroke:#181818;stroke-width:0.5;" x1="335.5" x2="695.4453" y1="47" y2="47"/><line style="stroke:#181818;stroke-width:0.5;" x1="335.5" x2="695.4453" y1="55" y2="55"/><ellipse cx="345.5" cy="68.6484" fill="#84BE84" rx="3" ry="3" style="stroke:#038048;stroke-width:1;"/><text fill="#000000" font-family="sans-serif" font-size="14" lengthAdjust="spacing" textLength="282.5225" x="354.5" y="71.9951">createGroup(GroupDTO): Result&lt;Long&gt;</text><ellipse cx="345.5" cy="84.9453" fill="#84BE84" rx="3" ry="3" style="stroke:#038048;stroke-width:1;"/><text fill="#000000" font-family="sans-serif" font-size="14" lengthAdjust="spacing" textLength="335.9453" x="354.5" y="88.292">getGroupChallenges(Long): List&lt;ChallengeVO&gt;</text><ellipse cx="345.5" cy="101.2422" fill="#84BE84" rx="3" ry="3" style="stroke:#038048;stroke-width:1;"/><text fill="#000000" font-family="sans-serif" font-size="14" lengthAdjust="spacing" textLength="284.6143" x="354.5" y="104.5889">inviteMember(InviteDTO): Result&lt;Void&gt;</text></g><!--class FaceAuthService--><g id="elem_FaceAuthService"><rect codeLine="32" fill="#F1F1F1" height="96.8906" id="FaceAuthService" rx="2.5" ry="2.5" style="stroke:#181818;stroke-width:0.5;" width="274.5273" x="378" y="386"/><ellipse cx="452.2656" cy="402" fill="#ADD1B2" rx="11" ry="11" style="stroke:#181818;stroke-width:1;"/><path d="M455.2344,407.6406 Q454.6563,407.9375 454.0156,408.0781 Q453.375,408.2344 452.6719,408.2344 Q450.1719,408.2344 448.8438,406.5938 Q447.5313,404.9375 447.5313,401.8125 Q447.5313,398.6875 448.8438,397.0313 Q450.1719,395.375 452.6719,395.375 Q453.375,395.375 454.0156,395.5313 Q454.6719,395.6875 455.2344,395.9844 L455.2344,398.7031 Q454.6094,398.125 454.0156,397.8594 Q453.4219,397.5781 452.7969,397.5781 Q451.4531,397.5781 450.7656,398.6563 Q450.0781,399.7188 450.0781,401.8125 Q450.0781,403.9063 450.7656,404.9844 Q451.4531,406.0469 452.7969,406.0469 Q453.4219,406.0469 454.0156,405.7813 Q454.6094,405.5 455.2344,404.9219 L455.2344,407.6406 Z " fill="#000000"/><text fill="#000000" font-family="sans-serif" font-size="14" lengthAdjust="spacing" textLength="117.4961" x="472.7656" y="406.8467">FaceAuthService</text><line style="stroke:#181818;stroke-width:0.5;" x1="379" x2="651.5273" y1="418" y2="418"/><line style="stroke:#181818;stroke-width:0.5;" x1="379" x2="651.5273" y1="426" y2="426"/><ellipse cx="389" cy="439.6484" fill="#84BE84" rx="3" ry="3" style="stroke:#038048;stroke-width:1;"/><text fill="#000000" font-family="sans-serif" font-size="14" lengthAdjust="spacing" textLength="248.5273" x="398" y="442.9951">registerFace(Long, byte[]): boolean</text><ellipse cx="389" cy="455.9453" fill="#84BE84" rx="3" ry="3" style="stroke:#038048;stroke-width:1;"/><text fill="#000000" font-family="sans-serif" font-size="14" lengthAdjust="spacing" textLength="234.7051" x="398" y="459.292">verifyFace(Long, byte[]): Boolean</text><ellipse cx="389" cy="472.2422" fill="#84BE84" rx="3" ry="3" style="stroke:#038048;stroke-width:1;"/><text fill="#000000" font-family="sans-serif" font-size="14" lengthAdjust="spacing" textLength="224.041" x="398" y="475.5889">encryptFaceData(byte[]): String</text></g><!--class GroupMapper--><g id="elem_GroupMapper"><rect fill="#F1F1F1" height="48" id="GroupMapper" rx="2.5" ry="2.5" style="stroke:#181818;stroke-width:0.5;" width="127.7305" x="88.5" y="410.5"/><ellipse cx="103.5" cy="426.5" fill="#ADD1B2" rx="11" ry="11" style="stroke:#181818;stroke-width:1;"/><path d="M106.4688,432.1406 Q105.8906,432.4375 105.25,432.5781 Q104.6094,432.7344 103.9063,432.7344 Q101.4063,432.7344 100.0781,431.0938 Q98.7656,429.4375 98.7656,426.3125 Q98.7656,423.1875 100.0781,421.5313 Q101.4063,419.875 103.9063,419.875 Q104.6094,419.875 105.25,420.0313 Q105.9063,420.1875 106.4688,420.4844 L106.4688,423.2031 Q105.8438,422.625 105.25,422.3594 Q104.6563,422.0781 104.0313,422.0781 Q102.6875,422.0781 102,423.1563 Q101.3125,424.2188 101.3125,426.3125 Q101.3125,428.4063 102,429.4844 Q102.6875,430.5469 104.0313,430.5469 Q104.6563,430.5469 105.25,430.2813 Q105.8438,430 106.4688,429.4219 L106.4688,432.1406 Z " fill="#000000"/><text fill="#000000" font-family="sans-serif" font-size="14" lengthAdjust="spacing" textLength="95.7305" x="117.5" y="431.3467">GroupMapper</text><line style="stroke:#181818;stroke-width:0.5;" x1="89.5" x2="215.2305" y1="442.5" y2="442.5"/><line style="stroke:#181818;stroke-width:0.5;" x1="89.5" x2="215.2305" y1="450.5" y2="450.5"/></g><!--link GroupController to GroupService--><g id="link_GroupController_GroupService"><path codeLine="38" d="M515.5,112.3 C515.5,135.41 515.5,157.47 515.5,182.36 " fill="transparent" id="GroupController-to-GroupService" style="stroke:#181818;stroke-width:1;"/><polygon fill="#181818" points="515.5,188.36,519.5,179.36,515.5,183.36,511.5,179.36,515.5,188.36" style="stroke:#181818;stroke-width:1;"/></g><!--link GroupService to FaceAuthService--><g id="link_GroupService_FaceAuthService"><path codeLine="39" d="M515.5,317.54 C515.5,340.03 515.5,358.93 515.5,379.87 " fill="transparent" id="GroupService-to-FaceAuthService" style="stroke:#181818;stroke-width:1;"/><polygon fill="#181818" points="515.5,385.87,519.5,376.87,515.5,380.87,511.5,376.87,515.5,385.87" style="stroke:#181818;stroke-width:1;"/></g><!--reverse link GroupEntity to GroupMapper--><g id="link_GroupEntity_GroupMapper"><path codeLine="40" d="M152.5,332.23 C152.5,362.24 152.5,388.96 152.5,410.27 " fill="transparent" id="GroupEntity-backto-GroupMapper" style="stroke:#181818;stroke-width:1;"/><polygon fill="#181818" points="152.5,326.23,148.5,335.23,152.5,331.23,156.5,335.23,152.5,326.23" style="stroke:#181818;stroke-width:1;"/></g><!--link GroupMember to GroupEntity--><g id="link_GroupMember_GroupEntity"><path codeLine="41" d="M152.5,120.25 C152.5,138.92 152.5,154.02 152.5,173.77 " fill="transparent" id="GroupMember-to-GroupEntity" style="stroke:#181818;stroke-width:1;"/><polygon fill="#181818" points="152.5,179.77,156.5,170.77,152.5,174.77,148.5,170.77,152.5,179.77" style="stroke:#181818;stroke-width:1;"/></g><!--SRC=[RPEzJiCm4CVtF8KtMa7KFQegzGjKgH-ehSg06DpaI8qIExATI1LYG8ADD-0DM1XOgZuFYF8Ms8xJ9bN7E__lxkU_ptw4XK1NdAL9dqeYr-ZHGSX59F3GaD7G11J7uA6PvCGcOeYNm8MI426RfdfaKYrpxAzm504DeL1qYqG-GwlE4Gw2lAXMQb3tKCP8O0GSOfQ1rMWOTRXaB09CdIV7yG_ekSQYfmBue8pFLKc1ZsgJct5_scZtHeDnOzGVTVhJkb4zC4BdH5zqo7mSzR047HgIXBEOgPYrWvZGMW5PXPW1puWFbY8qN3X9W7iMqWHLWsoDXxf76JFMvw0eJ77kKMy-kK3M2Niz1PSk8o9MHh1lO_owEBHLbUMQ46JksJLd8GSX2dyLP3ClxJ7L5rf7b-moAfMVaNNxDAFgCmMHHjAqQXKJguJxaTKDMKnoFQ4PaSNZ3qnGwRnG3s3Wpj3tThjxsVnzlEq-dt_VDp-lNvRu4llGJkMg_39whK8r4RW-jJOjrn9kxqhhfNKPS7A_FgNgb5H0VRvEf9QfbS6rlSX-5qLuR9phjYeRurJMHvyUWJlb_zbqtSe-bJ_0ldEk_GS0]--></g></svg>