<svg xmlns="http://www.w3.org/2000/svg" xmlns:xlink="http://www.w3.org/1999/xlink" contentStyleType="text/css" data-diagram-type="CLASS" height="203px" preserveAspectRatio="none" style="width:1526px;height:203px;background:#FFFFFF;" version="1.1" viewBox="0 0 1526 203" width="1526px" zoomAndPan="magnify"><defs/><g><!--class GeoUtils--><g id="elem_GeoUtils"><rect codeLine="1" fill="#F1F1F1" height="80.5938" id="GeoUtils" rx="2.5" ry="2.5" style="stroke:#181818;stroke-width:0.5;" width="297.749" x="7" y="7"/><ellipse cx="122.2061" cy="23" fill="#ADD1B2" rx="11" ry="11" style="stroke:#181818;stroke-width:1;"/><path d="M125.1748,28.6406 Q124.5967,28.9375 123.9561,29.0781 Q123.3154,29.2344 122.6123,29.2344 Q120.1123,29.2344 118.7842,27.5938 Q117.4717,25.9375 117.4717,22.8125 Q117.4717,19.6875 118.7842,18.0313 Q120.1123,16.375 122.6123,16.375 Q123.3154,16.375 123.9561,16.5313 Q124.6123,16.6875 125.1748,16.9844 L125.1748,19.7031 Q124.5498,19.125 123.9561,18.8594 Q123.3623,18.5781 122.7373,18.5781 Q121.3936,18.5781 120.7061,19.6563 Q120.0186,20.7188 120.0186,22.8125 Q120.0186,24.9063 120.7061,25.9844 Q121.3936,27.0469 122.7373,27.0469 Q123.3623,27.0469 123.9561,26.7813 Q124.5498,26.5 125.1748,25.9219 L125.1748,28.6406 Z " fill="#000000"/><text fill="#000000" font-family="sans-serif" font-size="14" lengthAdjust="spacing" textLength="58.8369" x="142.7061" y="27.8467">GeoUtils</text><line style="stroke:#181818;stroke-width:0.5;" x1="8" x2="303.749" y1="39" y2="39"/><line style="stroke:#181818;stroke-width:0.5;" x1="8" x2="303.749" y1="47" y2="47"/><ellipse cx="18" cy="60.6484" fill="#84BE84" rx="3" ry="3" style="stroke:#038048;stroke-width:1;"/><text fill="#000000" font-family="sans-serif" font-size="14" lengthAdjust="spacing" textLength="271.749" x="27" y="63.9951">calculateDistance(Point, Point): double</text><ellipse cx="18" cy="76.9453" fill="#84BE84" rx="3" ry="3" style="stroke:#038048;stroke-width:1;"/><text fill="#000000" font-family="sans-serif" font-size="14" lengthAdjust="spacing" textLength="175.499" x="27" y="80.292">isInChina(Point): boolean</text></g><!--class ImageUtils--><g id="elem_ImageUtils"><rect codeLine="6" fill="#F1F1F1" height="80.5938" id="ImageUtils" rx="2.5" ry="2.5" style="stroke:#181818;stroke-width:0.5;" width="362.4375" x="340" y="7"/><ellipse cx="479.6411" cy="23" fill="#ADD1B2" rx="11" ry="11" style="stroke:#181818;stroke-width:1;"/><path d="M482.6099,28.6406 Q482.0317,28.9375 481.3911,29.0781 Q480.7505,29.2344 480.0474,29.2344 Q477.5474,29.2344 476.2192,27.5938 Q474.9067,25.9375 474.9067,22.8125 Q474.9067,19.6875 476.2192,18.0313 Q477.5474,16.375 480.0474,16.375 Q480.7505,16.375 481.3911,16.5313 Q482.0474,16.6875 482.6099,16.9844 L482.6099,19.7031 Q481.9849,19.125 481.3911,18.8594 Q480.7974,18.5781 480.1724,18.5781 Q478.8286,18.5781 478.1411,19.6563 Q477.4536,20.7188 477.4536,22.8125 Q477.4536,24.9063 478.1411,25.9844 Q478.8286,27.0469 480.1724,27.0469 Q480.7974,27.0469 481.3911,26.7813 Q481.9849,26.5 482.6099,25.9219 L482.6099,28.6406 Z " fill="#000000"/><text fill="#000000" font-family="sans-serif" font-size="14" lengthAdjust="spacing" textLength="74.6553" x="500.1411" y="27.8467">ImageUtils</text><line style="stroke:#181818;stroke-width:0.5;" x1="341" x2="701.4375" y1="39" y2="39"/><line style="stroke:#181818;stroke-width:0.5;" x1="341" x2="701.4375" y1="47" y2="47"/><ellipse cx="351" cy="60.6484" fill="#84BE84" rx="3" ry="3" style="stroke:#038048;stroke-width:1;"/><text fill="#000000" font-family="sans-serif" font-size="14" lengthAdjust="spacing" textLength="336.4375" x="360" y="63.9951">compressImage(BufferedImage, Double): byte[]</text><ellipse cx="351" cy="76.9453" fill="#84BE84" rx="3" ry="3" style="stroke:#038048;stroke-width:1;"/><text fill="#000000" font-family="sans-serif" font-size="14" lengthAdjust="spacing" textLength="241.1309" x="360" y="80.292">generateThumbnail(String): String</text></g><!--class WechatUtil--><g id="elem_WechatUtil"><rect codeLine="11" fill="#F1F1F1" height="80.5938" id="WechatUtil" rx="2.5" ry="2.5" style="stroke:#181818;stroke-width:0.5;" width="425.7656" x="737" y="7"/><ellipse cx="907.3276" cy="23" fill="#ADD1B2" rx="11" ry="11" style="stroke:#181818;stroke-width:1;"/><path d="M910.2964,28.6406 Q909.7183,28.9375 909.0776,29.0781 Q908.437,29.2344 907.7339,29.2344 Q905.2339,29.2344 903.9058,27.5938 Q902.5933,25.9375 902.5933,22.8125 Q902.5933,19.6875 903.9058,18.0313 Q905.2339,16.375 907.7339,16.375 Q908.437,16.375 909.0776,16.5313 Q909.7339,16.6875 910.2964,16.9844 L910.2964,19.7031 Q909.6714,19.125 909.0776,18.8594 Q908.4839,18.5781 907.8589,18.5781 Q906.5151,18.5781 905.8276,19.6563 Q905.1401,20.7188 905.1401,22.8125 Q905.1401,24.9063 905.8276,25.9844 Q906.5151,27.0469 907.8589,27.0469 Q908.4839,27.0469 909.0776,26.7813 Q909.6714,26.5 910.2964,25.9219 L910.2964,28.6406 Z " fill="#000000"/><text fill="#000000" font-family="sans-serif" font-size="14" lengthAdjust="spacing" textLength="76.6104" x="927.8276" y="27.8467">WechatUtil</text><line style="stroke:#181818;stroke-width:0.5;" x1="738" x2="1161.7656" y1="39" y2="39"/><line style="stroke:#181818;stroke-width:0.5;" x1="738" x2="1161.7656" y1="47" y2="47"/><ellipse cx="748" cy="60.6484" fill="#84BE84" rx="3" ry="3" style="stroke:#038048;stroke-width:1;"/><text fill="#000000" font-family="sans-serif" font-size="14" lengthAdjust="spacing" textLength="245.9297" x="757" y="63.9951">getWxUserInfo(String): WxUserInfo</text><ellipse cx="748" cy="76.9453" fill="#84BE84" rx="3" ry="3" style="stroke:#038048;stroke-width:1;"/><text fill="#000000" font-family="sans-serif" font-size="14" lengthAdjust="spacing" textLength="399.7656" x="757" y="80.292">sendTemplateMsg(String, Map&lt;String,Object&gt;): boolean</text></g><!--class AuditLogAspect--><g id="elem_AuditLogAspect"><rect codeLine="16" fill="#F1F1F1" height="64.2969" id="AuditLogAspect" rx="2.5" ry="2.5" style="stroke:#181818;stroke-width:0.5;" width="321.6406" x="1198" y="15.5"/><ellipse cx="1299.8076" cy="31.5" fill="#ADD1B2" rx="11" ry="11" style="stroke:#181818;stroke-width:1;"/><path d="M1302.7764,37.1406 Q1302.1982,37.4375 1301.5576,37.5781 Q1300.917,37.7344 1300.2139,37.7344 Q1297.7139,37.7344 1296.3857,36.0938 Q1295.0732,34.4375 1295.0732,31.3125 Q1295.0732,28.1875 1296.3857,26.5313 Q1297.7139,24.875 1300.2139,24.875 Q1300.917,24.875 1301.5576,25.0313 Q1302.2139,25.1875 1302.7764,25.4844 L1302.7764,28.2031 Q1302.1514,27.625 1301.5576,27.3594 Q1300.9639,27.0781 1300.3389,27.0781 Q1298.9951,27.0781 1298.3076,28.1563 Q1297.6201,29.2188 1297.6201,31.3125 Q1297.6201,33.4063 1298.3076,34.4844 Q1298.9951,35.5469 1300.3389,35.5469 Q1300.9639,35.5469 1301.5576,35.2813 Q1302.1514,35 1302.7764,34.4219 L1302.7764,37.1406 Z " fill="#000000"/><text fill="#000000" font-family="sans-serif" font-size="14" lengthAdjust="spacing" textLength="109.5254" x="1320.3076" y="36.3467">AuditLogAspect</text><line style="stroke:#181818;stroke-width:0.5;" x1="1199" x2="1518.6406" y1="47.5" y2="47.5"/><line style="stroke:#181818;stroke-width:0.5;" x1="1199" x2="1518.6406" y1="55.5" y2="55.5"/><ellipse cx="1209" cy="69.1484" fill="#84BE84" rx="3" ry="3" style="stroke:#038048;stroke-width:1;"/><text fill="#000000" font-family="sans-serif" font-size="14" lengthAdjust="spacing" textLength="295.6406" x="1218" y="72.4951">logOperation(ProceedingJoinPoint): Object</text></g><!--class ChallengeService--><g id="elem_ChallengeService"><rect fill="#F1F1F1" height="48" id="ChallengeService" rx="2.5" ry="2.5" style="stroke:#181818;stroke-width:0.5;" width="153.7344" x="79" y="148"/><ellipse cx="94" cy="164" fill="#ADD1B2" rx="11" ry="11" style="stroke:#181818;stroke-width:1;"/><path d="M96.9688,169.6406 Q96.3906,169.9375 95.75,170.0781 Q95.1094,170.2344 94.4063,170.2344 Q91.9063,170.2344 90.5781,168.5938 Q89.2656,166.9375 89.2656,163.8125 Q89.2656,160.6875 90.5781,159.0313 Q91.9063,157.375 94.4063,157.375 Q95.1094,157.375 95.75,157.5313 Q96.4063,157.6875 96.9688,157.9844 L96.9688,160.7031 Q96.3438,160.125 95.75,159.8594 Q95.1563,159.5781 94.5313,159.5781 Q93.1875,159.5781 92.5,160.6563 Q91.8125,161.7188 91.8125,163.8125 Q91.8125,165.9063 92.5,166.9844 Q93.1875,168.0469 94.5313,168.0469 Q95.1563,168.0469 95.75,167.7813 Q96.3438,167.5 96.9688,166.9219 L96.9688,169.6406 Z " fill="#000000"/><text fill="#000000" font-family="sans-serif" font-size="14" lengthAdjust="spacing" textLength="121.7344" x="108" y="168.8467">ChallengeService</text><line style="stroke:#181818;stroke-width:0.5;" x1="80" x2="231.7344" y1="180" y2="180"/><line style="stroke:#181818;stroke-width:0.5;" x1="80" x2="231.7344" y1="188" y2="188"/></g><!--class BlogService--><g id="elem_BlogService"><rect fill="#F1F1F1" height="48" id="BlogService" rx="2.5" ry="2.5" style="stroke:#181818;stroke-width:0.5;" width="114.6875" x="463.5" y="148"/><ellipse cx="478.5" cy="164" fill="#ADD1B2" rx="11" ry="11" style="stroke:#181818;stroke-width:1;"/><path d="M481.4688,169.6406 Q480.8906,169.9375 480.25,170.0781 Q479.6094,170.2344 478.9063,170.2344 Q476.4063,170.2344 475.0781,168.5938 Q473.7656,166.9375 473.7656,163.8125 Q473.7656,160.6875 475.0781,159.0313 Q476.4063,157.375 478.9063,157.375 Q479.6094,157.375 480.25,157.5313 Q480.9063,157.6875 481.4688,157.9844 L481.4688,160.7031 Q480.8438,160.125 480.25,159.8594 Q479.6563,159.5781 479.0313,159.5781 Q477.6875,159.5781 477,160.6563 Q476.3125,161.7188 476.3125,163.8125 Q476.3125,165.9063 477,166.9844 Q477.6875,168.0469 479.0313,168.0469 Q479.6563,168.0469 480.25,167.7813 Q480.8438,167.5 481.4688,166.9219 L481.4688,169.6406 Z " fill="#000000"/><text fill="#000000" font-family="sans-serif" font-size="14" lengthAdjust="spacing" textLength="82.6875" x="492.5" y="168.8467">BlogService</text><line style="stroke:#181818;stroke-width:0.5;" x1="464.5" x2="577.1875" y1="180" y2="180"/><line style="stroke:#181818;stroke-width:0.5;" x1="464.5" x2="577.1875" y1="188" y2="188"/></g><!--class WxAuthService--><g id="elem_WxAuthService"><rect fill="#F1F1F1" height="48" id="WxAuthService" rx="2.5" ry="2.5" style="stroke:#181818;stroke-width:0.5;" width="138.6816" x="880.5" y="148"/><ellipse cx="895.5" cy="164" fill="#ADD1B2" rx="11" ry="11" style="stroke:#181818;stroke-width:1;"/><path d="M898.4688,169.6406 Q897.8906,169.9375 897.25,170.0781 Q896.6094,170.2344 895.9063,170.2344 Q893.4063,170.2344 892.0781,168.5938 Q890.7656,166.9375 890.7656,163.8125 Q890.7656,160.6875 892.0781,159.0313 Q893.4063,157.375 895.9063,157.375 Q896.6094,157.375 897.25,157.5313 Q897.9063,157.6875 898.4688,157.9844 L898.4688,160.7031 Q897.8438,160.125 897.25,159.8594 Q896.6563,159.5781 896.0313,159.5781 Q894.6875,159.5781 894,160.6563 Q893.3125,161.7188 893.3125,163.8125 Q893.3125,165.9063 894,166.9844 Q894.6875,168.0469 896.0313,168.0469 Q896.6563,168.0469 897.25,167.7813 Q897.8438,167.5 898.4688,166.9219 L898.4688,169.6406 Z " fill="#000000"/><text fill="#000000" font-family="sans-serif" font-size="14" lengthAdjust="spacing" textLength="106.6816" x="909.5" y="168.8467">WxAuthService</text><line style="stroke:#181818;stroke-width:0.5;" x1="881.5" x2="1018.1816" y1="180" y2="180"/><line style="stroke:#181818;stroke-width:0.5;" x1="881.5" x2="1018.1816" y1="188" y2="188"/></g><!--class AdminOperation--><g id="elem_AdminOperation"><rect fill="#F1F1F1" height="48" id="AdminOperation" rx="2.5" ry="2.5" style="stroke:#181818;stroke-width:0.5;" width="146.5361" x="1285.5" y="148"/><ellipse cx="1300.5" cy="164" fill="#ADD1B2" rx="11" ry="11" style="stroke:#181818;stroke-width:1;"/><path d="M1303.4688,169.6406 Q1302.8906,169.9375 1302.25,170.0781 Q1301.6094,170.2344 1300.9063,170.2344 Q1298.4063,170.2344 1297.0781,168.5938 Q1295.7656,166.9375 1295.7656,163.8125 Q1295.7656,160.6875 1297.0781,159.0313 Q1298.4063,157.375 1300.9063,157.375 Q1301.6094,157.375 1302.25,157.5313 Q1302.9063,157.6875 1303.4688,157.9844 L1303.4688,160.7031 Q1302.8438,160.125 1302.25,159.8594 Q1301.6563,159.5781 1301.0313,159.5781 Q1299.6875,159.5781 1299,160.6563 Q1298.3125,161.7188 1298.3125,163.8125 Q1298.3125,165.9063 1299,166.9844 Q1299.6875,168.0469 1301.0313,168.0469 Q1301.6563,168.0469 1302.25,167.7813 Q1302.8438,167.5 1303.4688,166.9219 L1303.4688,169.6406 Z " fill="#000000"/><text fill="#000000" font-family="sans-serif" font-size="14" lengthAdjust="spacing" textLength="114.5361" x="1314.5" y="168.8467">AdminOperation</text><line style="stroke:#181818;stroke-width:0.5;" x1="1286.5" x2="1431.0361" y1="180" y2="180"/><line style="stroke:#181818;stroke-width:0.5;" x1="1286.5" x2="1431.0361" y1="188" y2="188"/></g><!--link GeoUtils to ChallengeService--><g id="link_GeoUtils_ChallengeService"><path codeLine="20" d="M156,88.27 C156,107.97 156,125.07 156,141.84 " fill="transparent" id="GeoUtils-to-ChallengeService" style="stroke:#181818;stroke-width:1;"/><polygon fill="#181818" points="156,147.84,160,138.84,156,142.84,152,138.84,156,147.84" style="stroke:#181818;stroke-width:1;"/></g><!--link ImageUtils to BlogService--><g id="link_ImageUtils_BlogService"><path codeLine="21" d="M521,88.27 C521,107.97 521,125.07 521,141.84 " fill="transparent" id="ImageUtils-to-BlogService" style="stroke:#181818;stroke-width:1;"/><polygon fill="#181818" points="521,147.84,525,138.84,521,142.84,517,138.84,521,147.84" style="stroke:#181818;stroke-width:1;"/></g><!--link WechatUtil to WxAuthService--><g id="link_WechatUtil_WxAuthService"><path codeLine="22" d="M950,88.27 C950,107.97 950,125.07 950,141.84 " fill="transparent" id="WechatUtil-to-WxAuthService" style="stroke:#181818;stroke-width:1;"/><polygon fill="#181818" points="950,147.84,954,138.84,950,142.84,946,138.84,950,147.84" style="stroke:#181818;stroke-width:1;"/></g><!--link AuditLogAspect to AdminOperation--><g id="link_AuditLogAspect_AdminOperation"><path codeLine="23" d="M1359,79.73 C1359,100.99 1359,122.68 1359,141.95 " fill="transparent" id="AuditLogAspect-to-AdminOperation" style="stroke:#181818;stroke-width:1;"/><polygon fill="#181818" points="1359,147.95,1363,138.95,1359,142.95,1355,138.95,1359,147.95" style="stroke:#181818;stroke-width:1;"/></g><!--SRC=[RL7BQiCm4BpxAtHqgVC3fGIS18fBGm99yA7q84jhMKLU6JrAIkc_LrBiE2qzQQMPdPbTCKMj9K-WJqugIxuoGku9eufvHHrif7KK6UHxBT4L91rt3uHhtoX8N6ahN7SIQJw1ZTOAA6RVMSQIUjLJ0R_qTJyOi3O1-SgtBHZWwLQGJTAEEfyENjzIWm044_8SEzytIANA3yv8585rAMQp6bX7NNGRpGIu-dooO2fizTmtloMM1UH7w8SuzTQAaLUGBHqUnthNl0Dpo_ycB3sNxaMBqWw1CXehBNP3Z2qrvdkZ6G0FEizXJTEgBf9Hv_e3YyMIh3kg5A200vWFoI2xsM34Lq5wWcxcZL1zBhth9l1FhaWeUI_ncki7]--></g></svg>