<svg xmlns="http://www.w3.org/2000/svg" xmlns:xlink="http://www.w3.org/1999/xlink" contentStyleType="text/css" data-diagram-type="CLASS" height="219px" preserveAspectRatio="none" style="width:1557px;height:219px;background:#FFFFFF;" version="1.1" viewBox="0 0 1557 219" width="1557px" zoomAndPan="magnify"><defs/><g><!--class GeoUtils--><g id="elem_GeoUtils"><rect codeLine="1" fill="#F1F1F1" height="96.8906" id="GeoUtils" rx="2.5" ry="2.5" style="stroke:#181818;stroke-width:0.5;" width="297.749" x="7" y="7"/><ellipse cx="122.2061" cy="23" fill="#ADD1B2" rx="11" ry="11" style="stroke:#181818;stroke-width:1;"/><path d="M125.1748,28.6406 Q124.5967,28.9375 123.9561,29.0781 Q123.3154,29.2344 122.6123,29.2344 Q120.1123,29.2344 118.7842,27.5938 Q117.4717,25.9375 117.4717,22.8125 Q117.4717,19.6875 118.7842,18.0313 Q120.1123,16.375 122.6123,16.375 Q123.3154,16.375 123.9561,16.5313 Q124.6123,16.6875 125.1748,16.9844 L125.1748,19.7031 Q124.5498,19.125 123.9561,18.8594 Q123.3623,18.5781 122.7373,18.5781 Q121.3936,18.5781 120.7061,19.6563 Q120.0186,20.7188 120.0186,22.8125 Q120.0186,24.9063 120.7061,25.9844 Q121.3936,27.0469 122.7373,27.0469 Q123.3623,27.0469 123.9561,26.7813 Q124.5498,26.5 125.1748,25.9219 L125.1748,28.6406 Z " fill="#000000"/><text fill="#000000" font-family="sans-serif" font-size="14" lengthAdjust="spacing" textLength="58.8369" x="142.7061" y="27.8467">GeoUtils</text><line style="stroke:#181818;stroke-width:0.5;" x1="8" x2="303.749" y1="39" y2="39"/><line style="stroke:#181818;stroke-width:0.5;" x1="8" x2="303.749" y1="47" y2="47"/><ellipse cx="18" cy="60.6484" fill="#84BE84" rx="3" ry="3" style="stroke:#038048;stroke-width:1;"/><text fill="#000000" font-family="sans-serif" font-size="14" lengthAdjust="spacing" textLength="271.749" x="27" y="63.9951">calculateDistance(Point, Point): double</text><ellipse cx="18" cy="76.9453" fill="#84BE84" rx="3" ry="3" style="stroke:#038048;stroke-width:1;"/><text fill="#000000" font-family="sans-serif" font-size="14" lengthAdjust="spacing" textLength="201.6875" x="27" y="80.292">WGS84ToGCJ02(Point): Point</text><ellipse cx="18" cy="93.2422" fill="#84BE84" rx="3" ry="3" style="stroke:#038048;stroke-width:1;"/><text fill="#000000" font-family="sans-serif" font-size="14" lengthAdjust="spacing" textLength="175.499" x="27" y="96.5889">isInChina(Point): boolean</text></g><!--class ImageUtils--><g id="elem_ImageUtils"><rect codeLine="7" fill="#F1F1F1" height="96.8906" id="ImageUtils" rx="2.5" ry="2.5" style="stroke:#181818;stroke-width:0.5;" width="318.5918" x="340.5" y="7"/><ellipse cx="458.2183" cy="23" fill="#ADD1B2" rx="11" ry="11" style="stroke:#181818;stroke-width:1;"/><path d="M461.187,28.6406 Q460.6089,28.9375 459.9683,29.0781 Q459.3276,29.2344 458.6245,29.2344 Q456.1245,29.2344 454.7964,27.5938 Q453.4839,25.9375 453.4839,22.8125 Q453.4839,19.6875 454.7964,18.0313 Q456.1245,16.375 458.6245,16.375 Q459.3276,16.375 459.9683,16.5313 Q460.6245,16.6875 461.187,16.9844 L461.187,19.7031 Q460.562,19.125 459.9683,18.8594 Q459.3745,18.5781 458.7495,18.5781 Q457.4058,18.5781 456.7183,19.6563 Q456.0308,20.7188 456.0308,22.8125 Q456.0308,24.9063 456.7183,25.9844 Q457.4058,27.0469 458.7495,27.0469 Q459.3745,27.0469 459.9683,26.7813 Q460.562,26.5 461.187,25.9219 L461.187,28.6406 Z " fill="#000000"/><text fill="#000000" font-family="sans-serif" font-size="14" lengthAdjust="spacing" textLength="74.6553" x="478.7183" y="27.8467">ImageUtils</text><line style="stroke:#181818;stroke-width:0.5;" x1="341.5" x2="658.0918" y1="39" y2="39"/><line style="stroke:#181818;stroke-width:0.5;" x1="341.5" x2="658.0918" y1="47" y2="47"/><ellipse cx="351.5" cy="60.6484" fill="#84BE84" rx="3" ry="3" style="stroke:#038048;stroke-width:1;"/><text fill="#000000" font-family="sans-serif" font-size="14" lengthAdjust="spacing" textLength="292.5918" x="360.5" y="63.9951">compress(BufferedImage, Double): byte[]</text><ellipse cx="351.5" cy="76.9453" fill="#84BE84" rx="3" ry="3" style="stroke:#038048;stroke-width:1;"/><text fill="#000000" font-family="sans-serif" font-size="14" lengthAdjust="spacing" textLength="259.8818" x="360.5" y="80.292">addWatermark(byte[], String): byte[]</text><ellipse cx="351.5" cy="93.2422" fill="#84BE84" rx="3" ry="3" style="stroke:#038048;stroke-width:1;"/><text fill="#000000" font-family="sans-serif" font-size="14" lengthAdjust="spacing" textLength="202.7676" x="360.5" y="96.5889">generateHash(byte[]): String</text></g><!--class AuditLogAspect--><g id="elem_AuditLogAspect"><rect codeLine="13" fill="#F1F1F1" height="96.8906" id="AuditLogAspect" rx="2.5" ry="2.5" style="stroke:#181818;stroke-width:0.5;" width="336.0166" x="695" y="7"/><ellipse cx="803.9956" cy="23" fill="#ADD1B2" rx="11" ry="11" style="stroke:#181818;stroke-width:1;"/><path d="M806.9644,28.6406 Q806.3862,28.9375 805.7456,29.0781 Q805.105,29.2344 804.4019,29.2344 Q801.9019,29.2344 800.5737,27.5938 Q799.2612,25.9375 799.2612,22.8125 Q799.2612,19.6875 800.5737,18.0313 Q801.9019,16.375 804.4019,16.375 Q805.105,16.375 805.7456,16.5313 Q806.4019,16.6875 806.9644,16.9844 L806.9644,19.7031 Q806.3394,19.125 805.7456,18.8594 Q805.1519,18.5781 804.5269,18.5781 Q803.1831,18.5781 802.4956,19.6563 Q801.8081,20.7188 801.8081,22.8125 Q801.8081,24.9063 802.4956,25.9844 Q803.1831,27.0469 804.5269,27.0469 Q805.1519,27.0469 805.7456,26.7813 Q806.3394,26.5 806.9644,25.9219 L806.9644,28.6406 Z " fill="#000000"/><text fill="#000000" font-family="sans-serif" font-size="14" lengthAdjust="spacing" textLength="109.5254" x="824.4956" y="27.8467">AuditLogAspect</text><line style="stroke:#181818;stroke-width:0.5;" x1="696" x2="1030.0166" y1="39" y2="39"/><rect fill="transparent" height="6" style="stroke:#C82930;stroke-width:1;" width="6" x="703" y="49.6484"/><text fill="#000000" font-family="sans-serif" font-size="14" lengthAdjust="spacing" textLength="159.2432" x="715" y="55.9951">logService: LogService</text><line style="stroke:#181818;stroke-width:0.5;" x1="696" x2="1030.0166" y1="63.2969" y2="63.2969"/><ellipse cx="706" cy="76.9453" fill="#84BE84" rx="3" ry="3" style="stroke:#038048;stroke-width:1;"/><text fill="#000000" font-family="sans-serif" font-size="14" lengthAdjust="spacing" textLength="310.0166" x="715" y="80.292">auditOperation(ProceedingJoinPoint): Object</text><ellipse cx="706" cy="93.2422" fill="#84BE84" rx="3" ry="3" style="stroke:#038048;stroke-width:1;"/><text fill="#000000" font-family="sans-serif" font-size="14" lengthAdjust="spacing" textLength="209.8086" x="715" y="96.5889">parseParams(Object[]): String</text></g><!--class SmsConfig--><g id="elem_SmsConfig"><rect codeLine="19" fill="#F1F1F1" height="96.8906" id="SmsConfig" rx="2.5" ry="2.5" style="stroke:#181818;stroke-width:0.5;" width="198.1563" x="1066" y="7"/><ellipse cx="1123.4595" cy="23" fill="#ADD1B2" rx="11" ry="11" style="stroke:#181818;stroke-width:1;"/><path d="M1126.4282,28.6406 Q1125.8501,28.9375 1125.2095,29.0781 Q1124.5688,29.2344 1123.8657,29.2344 Q1121.3657,29.2344 1120.0376,27.5938 Q1118.7251,25.9375 1118.7251,22.8125 Q1118.7251,19.6875 1120.0376,18.0313 Q1121.3657,16.375 1123.8657,16.375 Q1124.5688,16.375 1125.2095,16.5313 Q1125.8657,16.6875 1126.4282,16.9844 L1126.4282,19.7031 Q1125.8032,19.125 1125.2095,18.8594 Q1124.6157,18.5781 1123.9907,18.5781 Q1122.647,18.5781 1121.9595,19.6563 Q1121.272,20.7188 1121.272,22.8125 Q1121.272,24.9063 1121.9595,25.9844 Q1122.647,27.0469 1123.9907,27.0469 Q1124.6157,27.0469 1125.2095,26.7813 Q1125.8032,26.5 1126.4282,25.9219 L1126.4282,28.6406 Z " fill="#000000"/><text fill="#000000" font-family="sans-serif" font-size="14" lengthAdjust="spacing" textLength="74.7373" x="1143.9595" y="27.8467">SmsConfig</text><line style="stroke:#181818;stroke-width:0.5;" x1="1067" x2="1263.1563" y1="39" y2="39"/><rect fill="transparent" height="6" style="stroke:#C82930;stroke-width:1;" width="6" x="1074" y="49.6484"/><text fill="#000000" font-family="sans-serif" font-size="14" lengthAdjust="spacing" textLength="127.1621" x="1086" y="55.9951">templateId: String</text><rect fill="transparent" height="6" style="stroke:#C82930;stroke-width:1;" width="6" x="1074" y="65.9453"/><text fill="#000000" font-family="sans-serif" font-size="14" lengthAdjust="spacing" textLength="121.1943" x="1086" y="72.292">signName: String</text><line style="stroke:#181818;stroke-width:0.5;" x1="1067" x2="1263.1563" y1="79.5938" y2="79.5938"/><ellipse cx="1077" cy="93.2422" fill="#84BE84" rx="3" ry="3" style="stroke:#038048;stroke-width:1;"/><text fill="#000000" font-family="sans-serif" font-size="14" lengthAdjust="spacing" textLength="172.1563" x="1086" y="96.5889">getSender(): SmsSender</text></g><!--class RedisConfig--><g id="elem_RedisConfig"><rect codeLine="25" fill="#F1F1F1" height="96.8906" id="RedisConfig" rx="2.5" ry="2.5" style="stroke:#181818;stroke-width:0.5;" width="251.4629" x="1299.5" y="7"/><ellipse cx="1379.3164" cy="23" fill="#ADD1B2" rx="11" ry="11" style="stroke:#181818;stroke-width:1;"/><path d="M1382.2852,28.6406 Q1381.707,28.9375 1381.0664,29.0781 Q1380.4258,29.2344 1379.7227,29.2344 Q1377.2227,29.2344 1375.8945,27.5938 Q1374.582,25.9375 1374.582,22.8125 Q1374.582,19.6875 1375.8945,18.0313 Q1377.2227,16.375 1379.7227,16.375 Q1380.4258,16.375 1381.0664,16.5313 Q1381.7227,16.6875 1382.2852,16.9844 L1382.2852,19.7031 Q1381.6602,19.125 1381.0664,18.8594 Q1380.4727,18.5781 1379.8477,18.5781 Q1378.5039,18.5781 1377.8164,19.6563 Q1377.1289,20.7188 1377.1289,22.8125 Q1377.1289,24.9063 1377.8164,25.9844 Q1378.5039,27.0469 1379.8477,27.0469 Q1380.4727,27.0469 1381.0664,26.7813 Q1381.6602,26.5 1382.2852,25.9219 L1382.2852,28.6406 Z " fill="#000000"/><text fill="#000000" font-family="sans-serif" font-size="14" lengthAdjust="spacing" textLength="83.3301" x="1399.8164" y="27.8467">RedisConfig</text><line style="stroke:#181818;stroke-width:0.5;" x1="1300.5" x2="1549.9629" y1="39" y2="39"/><rect fill="transparent" height="6" style="stroke:#C82930;stroke-width:1;" width="6" x="1307.5" y="49.6484"/><text fill="#000000" font-family="sans-serif" font-size="14" lengthAdjust="spacing" textLength="81.1699" x="1319.5" y="55.9951">host: String</text><rect fill="transparent" height="6" style="stroke:#C82930;stroke-width:1;" width="6" x="1307.5" y="65.9453"/><text fill="#000000" font-family="sans-serif" font-size="14" lengthAdjust="spacing" textLength="117.6602" x="1319.5" y="72.292">password: String</text><line style="stroke:#181818;stroke-width:0.5;" x1="1300.5" x2="1549.9629" y1="79.5938" y2="79.5938"/><ellipse cx="1310.5" cy="93.2422" fill="#84BE84" rx="3" ry="3" style="stroke:#038048;stroke-width:1;"/><text fill="#000000" font-family="sans-serif" font-size="14" lengthAdjust="spacing" textLength="225.4629" x="1319.5" y="96.5889">redisTemplate(): RedisTemplate</text></g><!--class ChallengeService--><g id="elem_ChallengeService"><rect fill="#F1F1F1" height="48" id="ChallengeService" rx="2.5" ry="2.5" style="stroke:#181818;stroke-width:0.5;" width="153.7344" x="79" y="164"/><ellipse cx="94" cy="180" fill="#ADD1B2" rx="11" ry="11" style="stroke:#181818;stroke-width:1;"/><path d="M96.9688,185.6406 Q96.3906,185.9375 95.75,186.0781 Q95.1094,186.2344 94.4063,186.2344 Q91.9063,186.2344 90.5781,184.5938 Q89.2656,182.9375 89.2656,179.8125 Q89.2656,176.6875 90.5781,175.0313 Q91.9063,173.375 94.4063,173.375 Q95.1094,173.375 95.75,173.5313 Q96.4063,173.6875 96.9688,173.9844 L96.9688,176.7031 Q96.3438,176.125 95.75,175.8594 Q95.1563,175.5781 94.5313,175.5781 Q93.1875,175.5781 92.5,176.6563 Q91.8125,177.7188 91.8125,179.8125 Q91.8125,181.9063 92.5,182.9844 Q93.1875,184.0469 94.5313,184.0469 Q95.1563,184.0469 95.75,183.7813 Q96.3438,183.5 96.9688,182.9219 L96.9688,185.6406 Z " fill="#000000"/><text fill="#000000" font-family="sans-serif" font-size="14" lengthAdjust="spacing" textLength="121.7344" x="108" y="184.8467">ChallengeService</text><line style="stroke:#181818;stroke-width:0.5;" x1="80" x2="231.7344" y1="196" y2="196"/><line style="stroke:#181818;stroke-width:0.5;" x1="80" x2="231.7344" y1="204" y2="204"/></g><!--class BlogService--><g id="elem_BlogService"><rect fill="#F1F1F1" height="48" id="BlogService" rx="2.5" ry="2.5" style="stroke:#181818;stroke-width:0.5;" width="114.6875" x="442.5" y="164"/><ellipse cx="457.5" cy="180" fill="#ADD1B2" rx="11" ry="11" style="stroke:#181818;stroke-width:1;"/><path d="M460.4688,185.6406 Q459.8906,185.9375 459.25,186.0781 Q458.6094,186.2344 457.9063,186.2344 Q455.4063,186.2344 454.0781,184.5938 Q452.7656,182.9375 452.7656,179.8125 Q452.7656,176.6875 454.0781,175.0313 Q455.4063,173.375 457.9063,173.375 Q458.6094,173.375 459.25,173.5313 Q459.9063,173.6875 460.4688,173.9844 L460.4688,176.7031 Q459.8438,176.125 459.25,175.8594 Q458.6563,175.5781 458.0313,175.5781 Q456.6875,175.5781 456,176.6563 Q455.3125,177.7188 455.3125,179.8125 Q455.3125,181.9063 456,182.9844 Q456.6875,184.0469 458.0313,184.0469 Q458.6563,184.0469 459.25,183.7813 Q459.8438,183.5 460.4688,182.9219 L460.4688,185.6406 Z " fill="#000000"/><text fill="#000000" font-family="sans-serif" font-size="14" lengthAdjust="spacing" textLength="82.6875" x="471.5" y="184.8467">BlogService</text><line style="stroke:#181818;stroke-width:0.5;" x1="443.5" x2="556.1875" y1="196" y2="196"/><line style="stroke:#181818;stroke-width:0.5;" x1="443.5" x2="556.1875" y1="204" y2="204"/></g><!--class UserController--><g id="elem_UserController"><rect fill="#F1F1F1" height="48" id="UserController" rx="2.5" ry="2.5" style="stroke:#181818;stroke-width:0.5;" width="133.083" x="706.5" y="164"/><ellipse cx="721.5" cy="180" fill="#ADD1B2" rx="11" ry="11" style="stroke:#181818;stroke-width:1;"/><path d="M724.4688,185.6406 Q723.8906,185.9375 723.25,186.0781 Q722.6094,186.2344 721.9063,186.2344 Q719.4063,186.2344 718.0781,184.5938 Q716.7656,182.9375 716.7656,179.8125 Q716.7656,176.6875 718.0781,175.0313 Q719.4063,173.375 721.9063,173.375 Q722.6094,173.375 723.25,173.5313 Q723.9063,173.6875 724.4688,173.9844 L724.4688,176.7031 Q723.8438,176.125 723.25,175.8594 Q722.6563,175.5781 722.0313,175.5781 Q720.6875,175.5781 720,176.6563 Q719.3125,177.7188 719.3125,179.8125 Q719.3125,181.9063 720,182.9844 Q720.6875,184.0469 722.0313,184.0469 Q722.6563,184.0469 723.25,183.7813 Q723.8438,183.5 724.4688,182.9219 L724.4688,185.6406 Z " fill="#000000"/><text fill="#000000" font-family="sans-serif" font-size="14" lengthAdjust="spacing" textLength="101.083" x="735.5" y="184.8467">UserController</text><line style="stroke:#181818;stroke-width:0.5;" x1="707.5" x2="838.583" y1="196" y2="196"/><line style="stroke:#181818;stroke-width:0.5;" x1="707.5" x2="838.583" y1="204" y2="204"/></g><!--class ContentController--><g id="elem_ContentController"><rect fill="#F1F1F1" height="48" id="ContentController" rx="2.5" ry="2.5" style="stroke:#181818;stroke-width:0.5;" width="156.8516" x="874.5" y="164"/><ellipse cx="889.5" cy="180" fill="#ADD1B2" rx="11" ry="11" style="stroke:#181818;stroke-width:1;"/><path d="M892.4688,185.6406 Q891.8906,185.9375 891.25,186.0781 Q890.6094,186.2344 889.9063,186.2344 Q887.4063,186.2344 886.0781,184.5938 Q884.7656,182.9375 884.7656,179.8125 Q884.7656,176.6875 886.0781,175.0313 Q887.4063,173.375 889.9063,173.375 Q890.6094,173.375 891.25,173.5313 Q891.9063,173.6875 892.4688,173.9844 L892.4688,176.7031 Q891.8438,176.125 891.25,175.8594 Q890.6563,175.5781 890.0313,175.5781 Q888.6875,175.5781 888,176.6563 Q887.3125,177.7188 887.3125,179.8125 Q887.3125,181.9063 888,182.9844 Q888.6875,184.0469 890.0313,184.0469 Q890.6563,184.0469 891.25,183.7813 Q891.8438,183.5 892.4688,182.9219 L892.4688,185.6406 Z " fill="#000000"/><text fill="#000000" font-family="sans-serif" font-size="14" lengthAdjust="spacing" textLength="124.8516" x="903.5" y="184.8467">ContentController</text><line style="stroke:#181818;stroke-width:0.5;" x1="875.5" x2="1030.3516" y1="196" y2="196"/><line style="stroke:#181818;stroke-width:0.5;" x1="875.5" x2="1030.3516" y1="204" y2="204"/></g><!--link GeoUtils to ChallengeService--><g id="link_GeoUtils_ChallengeService"><path codeLine="31" d="M156,104.35 C156,124.58 156,141.2 156,157.66 " fill="transparent" id="GeoUtils-to-ChallengeService" style="stroke:#181818;stroke-width:1;"/><polygon fill="#181818" points="156,163.66,160,154.66,156,158.66,152,154.66,156,163.66" style="stroke:#181818;stroke-width:1;"/></g><!--link ImageUtils to BlogService--><g id="link_ImageUtils_BlogService"><path codeLine="32" d="M500,104.35 C500,124.58 500,141.2 500,157.66 " fill="transparent" id="ImageUtils-to-BlogService" style="stroke:#181818;stroke-width:1;"/><polygon fill="#181818" points="500,163.66,504,154.66,500,158.66,496,154.66,500,163.66" style="stroke:#181818;stroke-width:1;"/></g><!--link AuditLogAspect to UserController--><g id="link_AuditLogAspect_UserController"><path codeLine="33" d="M830,104.35 C816.05,124.58 803.856,142.2605 792.506,158.7205 " fill="transparent" id="AuditLogAspect-to-UserController" style="stroke:#181818;stroke-width:1;"/><polygon fill="#181818" points="789.1,163.66,797.5021,158.5214,791.9384,159.5437,790.9161,153.98,789.1,163.66" style="stroke:#181818;stroke-width:1;"/></g><!--link AuditLogAspect to ContentController--><g id="link_AuditLogAspect_ContentController"><path codeLine="34" d="M896,104.35 C909.95,124.58 922.144,142.2605 933.494,158.7205 " fill="transparent" id="AuditLogAspect-to-ContentController" style="stroke:#181818;stroke-width:1;"/><polygon fill="#181818" points="936.9,163.66,935.0839,153.98,934.0616,159.5437,928.4979,158.5214,936.9,163.66" style="stroke:#181818;stroke-width:1;"/></g><!--SRC=[RPBDRi8m48JlUGeVKnMagkgXub09WaH1g202ub3rOEmbSUkVQEsqggg-Usq74b9nShBpPNPs7IQfjMG6PkU4jEGd8UIMC2fPBQc3gR2EQWRfsWZj1YGUDoF2JNsG4DdzB7zys9fPjhYxJyzwFACix5ndfT2qrGx6IA0w-KqI5flF5IsWrzwe2i7QT58VZu308p4WqzWrM7mxU7sBBELyxuEYelYHDlK1oHqANVJ10ZIW9v-fBK-W1ngoopAkkN1BKunj1Sp5F4CYJP43VWe68x9idvlsWLzLmLaOdQxHC03kBHT-slF4gyExDujyHT72cY9LDctALsFaocP67qLnIk10LU4-vhnbGzcAGhzG1HV5CAZBGNF0D1WhsxnqtXkVh-zU6kjwlfNdlWpodY-6xxQd8C5xSra8_krVD1m-aQoaKe8kuBokYsiE-gJRQl9lwq7UMK0Vqg7nBdYD22ferq5_]--></g></svg>