<svg xmlns="http://www.w3.org/2000/svg" xmlns:xlink="http://www.w3.org/1999/xlink" contentStyleType="text/css" data-diagram-type="CLASS" height="505px" preserveAspectRatio="none" style="width:1131px;height:505px;background:#FFFFFF;" version="1.1" viewBox="0 0 1131 505" width="1131px" zoomAndPan="magnify"><defs/><g><!--class ChallengeDTO--><g id="elem_ChallengeDTO"><rect codeLine="1" fill="#F1F1F1" height="162.0781" id="ChallengeDTO" rx="2.5" ry="2.5" style="stroke:#181818;stroke-width:0.5;" width="255.291" x="141" y="7"/><ellipse cx="214.2231" cy="23" fill="#ADD1B2" rx="11" ry="11" style="stroke:#181818;stroke-width:1;"/><path d="M217.1919,28.6406 Q216.6138,28.9375 215.9731,29.0781 Q215.3325,29.2344 214.6294,29.2344 Q212.1294,29.2344 210.8013,27.5938 Q209.4888,25.9375 209.4888,22.8125 Q209.4888,19.6875 210.8013,18.0313 Q212.1294,16.375 214.6294,16.375 Q215.3325,16.375 215.9731,16.5313 Q216.6294,16.6875 217.1919,16.9844 L217.1919,19.7031 Q216.5669,19.125 215.9731,18.8594 Q215.3794,18.5781 214.7544,18.5781 Q213.4106,18.5781 212.7231,19.6563 Q212.0356,20.7188 212.0356,22.8125 Q212.0356,24.9063 212.7231,25.9844 Q213.4106,27.0469 214.7544,27.0469 Q215.3794,27.0469 215.9731,26.7813 Q216.5669,26.5 217.1919,25.9219 L217.1919,28.6406 Z " fill="#000000"/><text fill="#000000" font-family="sans-serif" font-size="14" lengthAdjust="spacing" textLength="100.3447" x="234.7231" y="27.8467">ChallengeDTO</text><line style="stroke:#181818;stroke-width:0.5;" x1="142" x2="395.291" y1="39" y2="39"/><rect fill="transparent" height="6" style="stroke:#C82930;stroke-width:1;" width="6" x="149" y="49.6484"/><text fill="#000000" font-family="sans-serif" font-size="14" lengthAdjust="spacing" textLength="78.3193" x="161" y="55.9951">title: String</text><rect fill="transparent" height="6" style="stroke:#C82930;stroke-width:1;" width="6" x="149" y="65.9453"/><text fill="#000000" font-family="sans-serif" font-size="14" lengthAdjust="spacing" textLength="128.7891" x="161" y="72.292">description: String</text><rect fill="transparent" height="6" style="stroke:#C82930;stroke-width:1;" width="6" x="149" y="82.2422"/><text fill="#000000" font-family="sans-serif" font-size="14" lengthAdjust="spacing" textLength="122.6162" x="161" y="88.5889">landmarkId: Long</text><rect fill="transparent" height="6" style="stroke:#C82930;stroke-width:1;" width="6" x="149" y="98.5391"/><text fill="#000000" font-family="sans-serif" font-size="14" lengthAdjust="spacing" textLength="102.0537" x="161" y="104.8857">radius: Double</text><line style="stroke:#181818;stroke-width:0.5;" x1="142" x2="395.291" y1="112.1875" y2="112.1875"/><rect fill="#F24D5C" height="6" style="stroke:#C82930;stroke-width:1;" width="6" x="149" y="122.8359"/><text fill="#000000" font-family="sans-serif" font-size="14" lengthAdjust="spacing" textLength="229.291" x="161" y="129.1826">challengeType: String (&#25163;&#21183;/&#22320;&#26631;)</text><rect fill="#F24D5C" height="6" style="stroke:#C82930;stroke-width:1;" width="6" x="149" y="139.1328"/><text fill="#000000" font-family="sans-serif" font-size="14" lengthAdjust="spacing" textLength="184.6318" x="161" y="145.4795">gestureType: String (&#9996;&#65039;/&#128077;)</text><ellipse cx="152" cy="158.4297" fill="#84BE84" rx="3" ry="3" style="stroke:#038048;stroke-width:1;"/><text fill="#000000" font-family="sans-serif" font-size="14" lengthAdjust="spacing" textLength="105.9297" x="161" y="161.7764">validate(): void</text></g><!--class ParticipationVO--><g id="elem_ParticipationVO"><rect codeLine="11" fill="#F1F1F1" height="113.1875" id="ParticipationVO" rx="2.5" ry="2.5" style="stroke:#181818;stroke-width:0.5;" width="250.9775" x="874" y="31.5"/><ellipse cx="940.9272" cy="47.5" fill="#ADD1B2" rx="11" ry="11" style="stroke:#181818;stroke-width:1;"/><path d="M943.896,53.1406 Q943.3179,53.4375 942.6772,53.5781 Q942.0366,53.7344 941.3335,53.7344 Q938.8335,53.7344 937.5054,52.0938 Q936.1929,50.4375 936.1929,47.3125 Q936.1929,44.1875 937.5054,42.5313 Q938.8335,40.875 941.3335,40.875 Q942.0366,40.875 942.6772,41.0313 Q943.3335,41.1875 943.896,41.4844 L943.896,44.2031 Q943.271,43.625 942.6772,43.3594 Q942.0835,43.0781 941.4585,43.0781 Q940.1147,43.0781 939.4272,44.1563 Q938.7397,45.2188 938.7397,47.3125 Q938.7397,49.4063 939.4272,50.4844 Q940.1147,51.5469 941.4585,51.5469 Q942.0835,51.5469 942.6772,51.2813 Q943.271,51 943.896,50.4219 L943.896,53.1406 Z " fill="#000000"/><text fill="#000000" font-family="sans-serif" font-size="14" lengthAdjust="spacing" textLength="108.623" x="961.4272" y="52.3467">ParticipationVO</text><line style="stroke:#181818;stroke-width:0.5;" x1="875" x2="1123.9775" y1="63.5" y2="63.5"/><rect fill="transparent" height="6" style="stroke:#C82930;stroke-width:1;" width="6" x="882" y="74.1484"/><text fill="#000000" font-family="sans-serif" font-size="14" lengthAdjust="spacing" textLength="119.8271" x="894" y="80.4951">progress: Double</text><rect fill="transparent" height="6" style="stroke:#C82930;stroke-width:1;" width="6" x="882" y="90.4453"/><text fill="#000000" font-family="sans-serif" font-size="14" lengthAdjust="spacing" textLength="112.4922" x="894" y="96.792">ranking: Integer</text><rect fill="transparent" height="6" style="stroke:#C82930;stroke-width:1;" width="6" x="882" y="106.7422"/><text fill="#000000" font-family="sans-serif" font-size="14" lengthAdjust="spacing" textLength="130.4775" x="894" y="113.0889">bestRecord: String</text><line style="stroke:#181818;stroke-width:0.5;" x1="875" x2="1123.9775" y1="120.3906" y2="120.3906"/><ellipse cx="885" cy="134.0391" fill="#84BE84" rx="3" ry="3" style="stroke:#038048;stroke-width:1;"/><text fill="#000000" font-family="sans-serif" font-size="14" lengthAdjust="spacing" textLength="224.9775" x="894" y="137.3857">calculateBadges(): List&lt;String&gt;</text></g><!--class ChallengeService--><g id="elem_ChallengeService"><rect codeLine="18" fill="#F1F1F1" height="129.4844" id="ChallengeService" rx="2.5" ry="2.5" style="stroke:#181818;stroke-width:0.5;" width="386.0488" x="259.5" y="229"/><ellipse cx="387.4072" cy="245" fill="#ADD1B2" rx="11" ry="11" style="stroke:#181818;stroke-width:1;"/><path d="M390.376,250.6406 Q389.7979,250.9375 389.1572,251.0781 Q388.5166,251.2344 387.8135,251.2344 Q385.3135,251.2344 383.9854,249.5938 Q382.6729,247.9375 382.6729,244.8125 Q382.6729,241.6875 383.9854,240.0313 Q385.3135,238.375 387.8135,238.375 Q388.5166,238.375 389.1572,238.5313 Q389.8135,238.6875 390.376,238.9844 L390.376,241.7031 Q389.751,241.125 389.1572,240.8594 Q388.5635,240.5781 387.9385,240.5781 Q386.5947,240.5781 385.9072,241.6563 Q385.2197,242.7188 385.2197,244.8125 Q385.2197,246.9063 385.9072,247.9844 Q386.5947,249.0469 387.9385,249.0469 Q388.5635,249.0469 389.1572,248.7813 Q389.751,248.5 390.376,247.9219 L390.376,250.6406 Z " fill="#000000"/><text fill="#000000" font-family="sans-serif" font-size="14" lengthAdjust="spacing" textLength="121.7344" x="407.9072" y="249.8467">ChallengeService</text><line style="stroke:#181818;stroke-width:0.5;" x1="260.5" x2="644.5488" y1="261" y2="261"/><rect fill="transparent" height="6" style="stroke:#C82930;stroke-width:1;" width="6" x="267.5" y="271.6484"/><text fill="#000000" font-family="sans-serif" font-size="14" lengthAdjust="spacing" textLength="252.6768" x="279.5" y="277.9951">challengeMapper: ChallengeMapper</text><rect fill="transparent" height="6" style="stroke:#C82930;stroke-width:1;" width="6" x="267.5" y="287.9453"/><text fill="#000000" font-family="sans-serif" font-size="14" lengthAdjust="spacing" textLength="250.5986" x="279.5" y="294.292">locationValidator: LocationValidator</text><rect fill="transparent" height="6" style="stroke:#C82930;stroke-width:1;" width="6" x="267.5" y="304.2422"/><text fill="#000000" font-family="sans-serif" font-size="14" lengthAdjust="spacing" textLength="150.2949" x="279.5" y="310.5889">aiValidator: AIService</text><line style="stroke:#181818;stroke-width:0.5;" x1="260.5" x2="644.5488" y1="317.8906" y2="317.8906"/><ellipse cx="270.5" cy="331.5391" fill="#84BE84" rx="3" ry="3" style="stroke:#038048;stroke-width:1;"/><text fill="#000000" font-family="sans-serif" font-size="14" lengthAdjust="spacing" textLength="312.3271" x="279.5" y="334.8857">createChallenge(ChallengeDTO, Long): Long</text><ellipse cx="270.5" cy="347.8359" fill="#84BE84" rx="3" ry="3" style="stroke:#038048;stroke-width:1;"/><text fill="#000000" font-family="sans-serif" font-size="14" lengthAdjust="spacing" textLength="360.0488" x="279.5" y="351.1826">verifyParticipation(Long, VerificationData): boolean</text></g><!--class ChallengeController--><g id="elem_ChallengeController"><rect codeLine="26" fill="#F1F1F1" height="96.8906" id="ChallengeController" rx="2.5" ry="2.5" style="stroke:#181818;stroke-width:0.5;" width="408.0469" x="431.5" y="39.5"/><ellipse cx="561.6904" cy="55.5" fill="#ADD1B2" rx="11" ry="11" style="stroke:#181818;stroke-width:1;"/><path d="M564.6592,61.1406 Q564.0811,61.4375 563.4404,61.5781 Q562.7998,61.7344 562.0967,61.7344 Q559.5967,61.7344 558.2686,60.0938 Q556.9561,58.4375 556.9561,55.3125 Q556.9561,52.1875 558.2686,50.5313 Q559.5967,48.875 562.0967,48.875 Q562.7998,48.875 563.4404,49.0313 Q564.0967,49.1875 564.6592,49.4844 L564.6592,52.2031 Q564.0342,51.625 563.4404,51.3594 Q562.8467,51.0781 562.2217,51.0781 Q560.8779,51.0781 560.1904,52.1563 Q559.5029,53.2188 559.5029,55.3125 Q559.5029,57.4063 560.1904,58.4844 Q560.8779,59.5469 562.2217,59.5469 Q562.8467,59.5469 563.4404,59.2813 Q564.0342,59 564.6592,58.4219 L564.6592,61.1406 Z " fill="#000000"/><text fill="#000000" font-family="sans-serif" font-size="14" lengthAdjust="spacing" textLength="139.166" x="582.1904" y="60.3467">ChallengeController</text><line style="stroke:#181818;stroke-width:0.5;" x1="432.5" x2="838.5469" y1="71.5" y2="71.5"/><line style="stroke:#181818;stroke-width:0.5;" x1="432.5" x2="838.5469" y1="79.5" y2="79.5"/><ellipse cx="442.5" cy="93.1484" fill="#84BE84" rx="3" ry="3" style="stroke:#038048;stroke-width:1;"/><text fill="#000000" font-family="sans-serif" font-size="14" lengthAdjust="spacing" textLength="336.6494" x="451.5" y="96.4951">createChallenge(ChallengeDTO): Result&lt;Long&gt;</text><ellipse cx="442.5" cy="109.4453" fill="#84BE84" rx="3" ry="3" style="stroke:#038048;stroke-width:1;"/><text fill="#000000" font-family="sans-serif" font-size="14" lengthAdjust="spacing" textLength="368.9424" x="451.5" y="112.792">getNearbyChallenges(Location): List&lt;ChallengeVO&gt;</text><ellipse cx="442.5" cy="125.7422" fill="#84BE84" rx="3" ry="3" style="stroke:#038048;stroke-width:1;"/><text fill="#000000" font-family="sans-serif" font-size="14" lengthAdjust="spacing" textLength="382.0469" x="451.5" y="129.0889">submitVerification(VerificationDTO): Result&lt;Boolean&gt;</text></g><!--class AIService--><g id="elem_AIService"><rect codeLine="33" fill="#F1F1F1" height="80.5938" id="AIService" rx="2.5" ry="2.5" style="stroke:#181818;stroke-width:0.5;" width="467.1846" x="7" y="418"/><ellipse cx="203.6187" cy="434" fill="#ADD1B2" rx="11" ry="11" style="stroke:#181818;stroke-width:1;"/><path d="M206.5874,439.6406 Q206.0093,439.9375 205.3687,440.0781 Q204.728,440.2344 204.0249,440.2344 Q201.5249,440.2344 200.1968,438.5938 Q198.8843,436.9375 198.8843,433.8125 Q198.8843,430.6875 200.1968,429.0313 Q201.5249,427.375 204.0249,427.375 Q204.728,427.375 205.3687,427.5313 Q206.0249,427.6875 206.5874,427.9844 L206.5874,430.7031 Q205.9624,430.125 205.3687,429.8594 Q204.7749,429.5781 204.1499,429.5781 Q202.8062,429.5781 202.1187,430.6563 Q201.4312,431.7188 201.4312,433.8125 Q201.4312,435.9063 202.1187,436.9844 Q202.8062,438.0469 204.1499,438.0469 Q204.7749,438.0469 205.3687,437.7813 Q205.9624,437.5 206.5874,436.9219 L206.5874,439.6406 Z " fill="#000000"/><text fill="#000000" font-family="sans-serif" font-size="14" lengthAdjust="spacing" textLength="65.4473" x="224.1187" y="438.8467">AIService</text><line style="stroke:#181818;stroke-width:0.5;" x1="8" x2="473.1846" y1="450" y2="450"/><line style="stroke:#181818;stroke-width:0.5;" x1="8" x2="473.1846" y1="458" y2="458"/><ellipse cx="18" cy="471.6484" fill="#84BE84" rx="3" ry="3" style="stroke:#038048;stroke-width:1;"/><text fill="#000000" font-family="sans-serif" font-size="14" lengthAdjust="spacing" textLength="441.1846" x="27" y="474.9951">validateGesture(image: String, targetGesture: String): Boolean</text><ellipse cx="18" cy="487.9453" fill="#84BE84" rx="3" ry="3" style="stroke:#038048;stroke-width:1;"/><text fill="#000000" font-family="sans-serif" font-size="14" lengthAdjust="spacing" textLength="263.7783" x="27" y="491.292">detectLandmark(image: String): Long</text></g><!--class LocationValidator--><g id="elem_LocationValidator"><rect codeLine="39" fill="#F1F1F1" height="80.5938" id="LocationValidator" rx="2.5" ry="2.5" style="stroke:#181818;stroke-width:0.5;" width="309.5752" x="509.5" y="418"/><ellipse cx="598.7021" cy="434" fill="#ADD1B2" rx="11" ry="11" style="stroke:#181818;stroke-width:1;"/><path d="M601.6709,439.6406 Q601.0928,439.9375 600.4521,440.0781 Q599.8115,440.2344 599.1084,440.2344 Q596.6084,440.2344 595.2803,438.5938 Q593.9678,436.9375 593.9678,433.8125 Q593.9678,430.6875 595.2803,429.0313 Q596.6084,427.375 599.1084,427.375 Q599.8115,427.375 600.4521,427.5313 Q601.1084,427.6875 601.6709,427.9844 L601.6709,430.7031 Q601.0459,430.125 600.4521,429.8594 Q599.8584,429.5781 599.2334,429.5781 Q597.8896,429.5781 597.2021,430.6563 Q596.5146,431.7188 596.5146,433.8125 Q596.5146,435.9063 597.2021,436.9844 Q597.8896,438.0469 599.2334,438.0469 Q599.8584,438.0469 600.4521,437.7813 Q601.0459,437.5 601.6709,436.9219 L601.6709,439.6406 Z " fill="#000000"/><text fill="#000000" font-family="sans-serif" font-size="14" lengthAdjust="spacing" textLength="122.6709" x="619.2021" y="438.8467">LocationValidator</text><line style="stroke:#181818;stroke-width:0.5;" x1="510.5" x2="818.0752" y1="450" y2="450"/><line style="stroke:#181818;stroke-width:0.5;" x1="510.5" x2="818.0752" y1="458" y2="458"/><ellipse cx="520.5" cy="471.6484" fill="#84BE84" rx="3" ry="3" style="stroke:#038048;stroke-width:1;"/><text fill="#000000" font-family="sans-serif" font-size="14" lengthAdjust="spacing" textLength="283.5752" x="529.5" y="474.9951">isInRange(Point, Point, Double): Boolean</text><ellipse cx="520.5" cy="487.9453" fill="#84BE84" rx="3" ry="3" style="stroke:#038048;stroke-width:1;"/><text fill="#000000" font-family="sans-serif" font-size="14" lengthAdjust="spacing" textLength="176.2168" x="529.5" y="491.292">isInChina(Point): Boolean</text></g><!--class ChallengeEntity--><g id="elem_ChallengeEntity"><rect fill="#F1F1F1" height="48" id="ChallengeEntity" rx="2.5" ry="2.5" style="stroke:#181818;stroke-width:0.5;" width="142.8652" x="928" y="269.5"/><ellipse cx="943" cy="285.5" fill="#ADD1B2" rx="11" ry="11" style="stroke:#181818;stroke-width:1;"/><path d="M945.9688,291.1406 Q945.3906,291.4375 944.75,291.5781 Q944.1094,291.7344 943.4063,291.7344 Q940.9063,291.7344 939.5781,290.0938 Q938.2656,288.4375 938.2656,285.3125 Q938.2656,282.1875 939.5781,280.5313 Q940.9063,278.875 943.4063,278.875 Q944.1094,278.875 944.75,279.0313 Q945.4063,279.1875 945.9688,279.4844 L945.9688,282.2031 Q945.3438,281.625 944.75,281.3594 Q944.1563,281.0781 943.5313,281.0781 Q942.1875,281.0781 941.5,282.1563 Q940.8125,283.2188 940.8125,285.3125 Q940.8125,287.4063 941.5,288.4844 Q942.1875,289.5469 943.5313,289.5469 Q944.1563,289.5469 944.75,289.2813 Q945.3438,289 945.9688,288.4219 L945.9688,291.1406 Z " fill="#000000"/><text fill="#000000" font-family="sans-serif" font-size="14" lengthAdjust="spacing" textLength="110.8652" x="957" y="290.3467">ChallengeEntity</text><line style="stroke:#181818;stroke-width:0.5;" x1="929" x2="1069.8652" y1="301.5" y2="301.5"/><line style="stroke:#181818;stroke-width:0.5;" x1="929" x2="1069.8652" y1="309.5" y2="309.5"/></g><!--link ChallengeController to ChallengeService--><g id="link_ChallengeController_ChallengeService"><path codeLine="44" d="M592.59,136.71 C567.87,164.2 540.5021,194.6387 513.7021,224.4387 " fill="transparent" id="ChallengeController-to-ChallengeService" style="stroke:#181818;stroke-width:1;"/><polygon fill="#181818" points="509.69,228.9,518.6824,224.8829,513.0334,225.1823,512.734,219.5334,509.69,228.9" style="stroke:#181818;stroke-width:1;"/></g><!--link ChallengeService to AIService--><g id="link_ChallengeService_AIService"><path codeLine="45" d="M369.62,358.22 C343.49,378.31 320.1463,396.2624 296.8563,414.1724 " fill="transparent" id="ChallengeService-to-AIService" style="stroke:#181818;stroke-width:1;"/><polygon fill="#181818" points="292.1,417.83,301.6728,415.5145,296.0636,414.782,296.796,409.1728,292.1,417.83" style="stroke:#181818;stroke-width:1;"/></g><!--link ChallengeService to LocationValidator--><g id="link_ChallengeService_LocationValidator"><path codeLine="46" d="M535.38,358.22 C561.51,378.31 584.8537,396.2624 608.1437,414.1724 " fill="transparent" id="ChallengeService-to-LocationValidator" style="stroke:#181818;stroke-width:1;"/><polygon fill="#181818" points="612.9,417.83,608.204,409.1728,608.9364,414.782,603.3272,415.5145,612.9,417.83" style="stroke:#181818;stroke-width:1;"/></g><!--link ChallengeDTO to ChallengeService--><g id="link_ChallengeDTO_ChallengeService"><path codeLine="47" d="M340.96,169.14 C358.86,188.93 373.7658,205.4296 390.8558,224.3296 " fill="transparent" id="ChallengeDTO-to-ChallengeService" style="stroke:#181818;stroke-width:1;"/><polygon fill="#181818" points="394.88,228.78,391.8106,219.4216,391.5265,225.0713,385.8768,224.7872,394.88,228.78" style="stroke:#181818;stroke-width:1;"/></g><!--reverse link ParticipationVO to ChallengeEntity--><g id="link_ParticipationVO_ChallengeEntity"><path codeLine="48" d="M999.5,150.61 C999.5,191.56 999.5,239.17 999.5,269.3 " fill="transparent" id="ParticipationVO-backto-ChallengeEntity" style="stroke:#181818;stroke-width:1;"/><polygon fill="#181818" points="999.5,144.61,995.5,153.61,999.5,149.61,1003.5,153.61,999.5,144.61" style="stroke:#181818;stroke-width:1;"/></g><!--SRC=[VLHFRzCm5B_tK_X6ghNQFQegiHQXIeLDtTJxg_EMMNFjo7OgLOW39yHOXRXNWbqv0CTT9huBeWLEy15mR2TD_uXJelT-Vhy_VWdbe3NfNG7dA5BiNvoI5mr2siGmmp4cvqOnaRfAWfegbXacnLQTbeSlvbbrWaJhDszNDz-ELyklwu-lcmwPeZQvsi5zNzx-kNzt_FV3-uL7SH395DJr88d9K0OI1GdBTKpwCfzmjAKZCWFE4Z0ODMCoaonfl6mqgBDp1iemoZ8ej8vBHvcIgK9T7rBC5TTMHam6mc2AoXKdLkS8gLH9pUWHeS1fpYtZ2IJMIi4xPDfqFAIxuQ_YF4SrOnI3W2gePv1bgE8DpXUyUqczREzEgYA4dP830gj17Wy2bHUgqAgifaVrwssvJ9jLj3P7LEnolfLPL3HRP5nqc2VlWm5xQY8bHn07lFQaC4hQT-Ni_b-5dJH2dNFJAPYw3f-YUOwW9lCAgAFIUXbrrHgV-aCwdqoPgGkDjbJNgKwyTdTHZsnalp_T_lhoQhrSh6xkWfign-2XtB6dVdCZDeMqsjqMCQ2iwj0iovOmCBaH2HgaPXYMUdj2UGrEq8-7nS-7prvKaBDtyq4MqmCnWYBKCyc4QP7my8kz8w00zwwO00-kTItjeUjhjxjxAzpOs-a2jLcxW-tznTtwqHpasVrsE-ts1lH4sD_I_1y0]--></g></svg>