<svg xmlns="http://www.w3.org/2000/svg" xmlns:xlink="http://www.w3.org/1999/xlink" contentStyleType="text/css" data-diagram-type="CLASS" height="489px" preserveAspectRatio="none" style="width:1300px;height:489px;background:#FFFFFF;" version="1.1" viewBox="0 0 1300 489" width="1300px" zoomAndPan="magnify"><defs/><g><!--class ChallengeEntity--><g id="elem_ChallengeEntity"><rect codeLine="1" fill="#F1F1F1" height="178.375" id="ChallengeEntity" rx="2.5" ry="2.5" style="stroke:#181818;stroke-width:0.5;" width="250.4512" x="7" y="196"/><ellipse cx="72.543" cy="212" fill="#ADD1B2" rx="11" ry="11" style="stroke:#181818;stroke-width:1;"/><path d="M75.5117,217.6406 Q74.9336,217.9375 74.293,218.0781 Q73.6523,218.2344 72.9492,218.2344 Q70.4492,218.2344 69.1211,216.5938 Q67.8086,214.9375 67.8086,211.8125 Q67.8086,208.6875 69.1211,207.0313 Q70.4492,205.375 72.9492,205.375 Q73.6523,205.375 74.293,205.5313 Q74.9492,205.6875 75.5117,205.9844 L75.5117,208.7031 Q74.8867,208.125 74.293,207.8594 Q73.6992,207.5781 73.0742,207.5781 Q71.7305,207.5781 71.043,208.6563 Q70.3555,209.7188 70.3555,211.8125 Q70.3555,213.9063 71.043,214.9844 Q71.7305,216.0469 73.0742,216.0469 Q73.6992,216.0469 74.293,215.7813 Q74.8867,215.5 75.5117,214.9219 L75.5117,217.6406 Z " fill="#000000"/><text fill="#000000" font-family="sans-serif" font-size="14" lengthAdjust="spacing" textLength="110.8652" x="93.043" y="216.8467">ChallengeEntity</text><line style="stroke:#181818;stroke-width:0.5;" x1="8" x2="256.4512" y1="228" y2="228"/><rect fill="transparent" height="6" style="stroke:#C82930;stroke-width:1;" width="6" x="15" y="238.6484"/><text fill="#000000" font-family="sans-serif" font-size="14" lengthAdjust="spacing" textLength="56.0684" x="27" y="244.9951">id: Long</text><rect fill="transparent" height="6" style="stroke:#C82930;stroke-width:1;" width="6" x="15" y="254.9453"/><text fill="#000000" font-family="sans-serif" font-size="14" lengthAdjust="spacing" textLength="78.3193" x="27" y="261.292">title: String</text><rect fill="transparent" height="6" style="stroke:#C82930;stroke-width:1;" width="6" x="15" y="271.2422"/><text fill="#000000" font-family="sans-serif" font-size="14" lengthAdjust="spacing" textLength="106.7637" x="27" y="277.5889">creatorId: Long</text><rect fill="transparent" height="6" style="stroke:#C82930;stroke-width:1;" width="6" x="15" y="287.5391"/><text fill="#000000" font-family="sans-serif" font-size="14" lengthAdjust="spacing" textLength="189.5742" x="27" y="293.8857">participationCount: Integer</text><rect fill="transparent" height="6" style="stroke:#C82930;stroke-width:1;" width="6" x="15" y="303.8359"/><text fill="#000000" font-family="sans-serif" font-size="14" lengthAdjust="spacing" textLength="129.1309" x="27" y="310.1826">tags: List&lt;String&gt;</text><line style="stroke:#181818;stroke-width:0.5;" x1="8" x2="256.4512" y1="317.4844" y2="317.4844"/><rect fill="#F24D5C" height="6" style="stroke:#C82930;stroke-width:1;" width="6" x="15" y="328.1328"/><text fill="#000000" font-family="sans-serif" font-size="14" lengthAdjust="spacing" textLength="171.3496" x="27" y="334.4795">location: Point (&#31354;&#38388;&#22352;&#26631;)</text><rect fill="#F24D5C" height="6" style="stroke:#C82930;stroke-width:1;" width="6" x="15" y="344.4297"/><text fill="#000000" font-family="sans-serif" font-size="14" lengthAdjust="spacing" textLength="224.4512" x="27" y="350.7764">status: Integer (0&#24453;&#23457;&#26680;/1&#24050;&#21457;&#24067;)</text><ellipse cx="18" cy="363.7266" fill="#84BE84" rx="3" ry="3" style="stroke:#038048;stroke-width:1;"/><text fill="#000000" font-family="sans-serif" font-size="14" lengthAdjust="spacing" textLength="203.6631" x="27" y="367.0732">calculatePopularity(): Double</text></g><!--class PostEntity--><g id="elem_PostEntity"><rect codeLine="12" fill="#F1F1F1" height="162.0781" id="PostEntity" rx="2.5" ry="2.5" style="stroke:#181818;stroke-width:0.5;" width="251.2305" x="635.5" y="204"/><ellipse cx="721.5337" cy="220" fill="#ADD1B2" rx="11" ry="11" style="stroke:#181818;stroke-width:1;"/><path d="M724.5024,225.6406 Q723.9243,225.9375 723.2837,226.0781 Q722.6431,226.2344 721.9399,226.2344 Q719.4399,226.2344 718.1118,224.5938 Q716.7993,222.9375 716.7993,219.8125 Q716.7993,216.6875 718.1118,215.0313 Q719.4399,213.375 721.9399,213.375 Q722.6431,213.375 723.2837,213.5313 Q723.9399,213.6875 724.5024,213.9844 L724.5024,216.7031 Q723.8774,216.125 723.2837,215.8594 Q722.6899,215.5781 722.0649,215.5781 Q720.7212,215.5781 720.0337,216.6563 Q719.3462,217.7188 719.3462,219.8125 Q719.3462,221.9063 720.0337,222.9844 Q720.7212,224.0469 722.0649,224.0469 Q722.6899,224.0469 723.2837,223.7813 Q723.8774,223.5 724.5024,222.9219 L724.5024,225.6406 Z " fill="#000000"/><text fill="#000000" font-family="sans-serif" font-size="14" lengthAdjust="spacing" textLength="70.6631" x="742.0337" y="224.8467">PostEntity</text><line style="stroke:#181818;stroke-width:0.5;" x1="636.5" x2="885.7305" y1="236" y2="236"/><rect fill="transparent" height="6" style="stroke:#C82930;stroke-width:1;" width="6" x="643.5" y="246.6484"/><text fill="#000000" font-family="sans-serif" font-size="14" lengthAdjust="spacing" textLength="56.0684" x="655.5" y="252.9951">id: Long</text><rect fill="transparent" height="6" style="stroke:#C82930;stroke-width:1;" width="6" x="643.5" y="262.9453"/><text fill="#000000" font-family="sans-serif" font-size="14" lengthAdjust="spacing" textLength="104.5488" x="655.5" y="269.292">content: String</text><rect fill="transparent" height="6" style="stroke:#C82930;stroke-width:1;" width="6" x="643.5" y="279.2422"/><text fill="#000000" font-family="sans-serif" font-size="14" lengthAdjust="spacing" textLength="169.6748" x="655.5" y="285.5889">imageUrls: List&lt;String&gt;</text><rect fill="transparent" height="6" style="stroke:#C82930;stroke-width:1;" width="6" x="643.5" y="295.5391"/><text fill="#000000" font-family="sans-serif" font-size="14" lengthAdjust="spacing" textLength="125.6035" x="655.5" y="301.8857">likeCount: Integer</text><rect fill="transparent" height="6" style="stroke:#C82930;stroke-width:1;" width="6" x="643.5" y="311.8359"/><text fill="#000000" font-family="sans-serif" font-size="14" lengthAdjust="spacing" textLength="144.1699" x="655.5" y="318.1826">reportCount: Integer</text><line style="stroke:#181818;stroke-width:0.5;" x1="636.5" x2="885.7305" y1="325.4844" y2="325.4844"/><rect fill="#F24D5C" height="6" style="stroke:#C82930;stroke-width:1;" width="6" x="643.5" y="336.1328"/><text fill="#000000" font-family="sans-serif" font-size="14" lengthAdjust="spacing" textLength="196.1777" x="655.5" y="342.4795">version: Integer (&#29992;&#20110;&#20048;&#35266;&#38145;)</text><ellipse cx="646.5" cy="355.4297" fill="#84BE84" rx="3" ry="3" style="stroke:#038048;stroke-width:1;"/><text fill="#000000" font-family="sans-serif" font-size="14" lengthAdjust="spacing" textLength="225.2305" x="655.5" y="358.7764">checkSensitiveWords(): boolean</text></g><!--class ContentQuery--><g id="elem_ContentQuery"><rect codeLine="22" fill="#F1F1F1" height="129.4844" id="ContentQuery" rx="2.5" ry="2.5" style="stroke:#181818;stroke-width:0.5;" width="302.9922" x="679.5" y="7"/><ellipse cx="777.6333" cy="23" fill="#ADD1B2" rx="11" ry="11" style="stroke:#181818;stroke-width:1;"/><path d="M780.6021,28.6406 Q780.0239,28.9375 779.3833,29.0781 Q778.7427,29.2344 778.0396,29.2344 Q775.5396,29.2344 774.2114,27.5938 Q772.8989,25.9375 772.8989,22.8125 Q772.8989,19.6875 774.2114,18.0313 Q775.5396,16.375 778.0396,16.375 Q778.7427,16.375 779.3833,16.5313 Q780.0396,16.6875 780.6021,16.9844 L780.6021,19.7031 Q779.9771,19.125 779.3833,18.8594 Q778.7896,18.5781 778.1646,18.5781 Q776.8208,18.5781 776.1333,19.6563 Q775.4458,20.7188 775.4458,22.8125 Q775.4458,24.9063 776.1333,25.9844 Q776.8208,27.0469 778.1646,27.0469 Q778.7896,27.0469 779.3833,26.7813 Q779.9771,26.5 780.6021,25.9219 L780.6021,28.6406 Z " fill="#000000"/><text fill="#000000" font-family="sans-serif" font-size="14" lengthAdjust="spacing" textLength="98.2256" x="798.1333" y="27.8467">ContentQuery</text><line style="stroke:#181818;stroke-width:0.5;" x1="680.5" x2="981.4922" y1="39" y2="39"/><rect fill="transparent" height="6" style="stroke:#C82930;stroke-width:1;" width="6" x="687.5" y="49.6484"/><text fill="#000000" font-family="sans-serif" font-size="14" lengthAdjust="spacing" textLength="102.5459" x="699.5" y="55.9951">status: Integer</text><rect fill="transparent" height="6" style="stroke:#C82930;stroke-width:1;" width="6" x="687.5" y="65.9453"/><text fill="#000000" font-family="sans-serif" font-size="14" lengthAdjust="spacing" textLength="113.7432" x="699.5" y="72.292">reporterId: Long</text><line style="stroke:#181818;stroke-width:0.5;" x1="680.5" x2="981.4922" y1="79.5938" y2="79.5938"/><rect fill="#F24D5C" height="6" style="stroke:#C82930;stroke-width:1;" width="6" x="687.5" y="90.2422"/><text fill="#000000" font-family="sans-serif" font-size="14" lengthAdjust="spacing" textLength="214.9766" x="699.5" y="96.5889">contentType: String (&#25361;&#25112;/&#24086;&#23376;)</text><rect fill="#F24D5C" height="6" style="stroke:#C82930;stroke-width:1;" width="6" x="687.5" y="106.5391"/><text fill="#000000" font-family="sans-serif" font-size="14" lengthAdjust="spacing" textLength="276.9922" x="699.5" y="112.8857">sortField: String (createTime/likeCount)</text><rect fill="#F24D5C" height="6" style="stroke:#C82930;stroke-width:1;" width="6" x="687.5" y="122.8359"/><text fill="#000000" font-family="sans-serif" font-size="14" lengthAdjust="spacing" textLength="204.7021" x="699.5" y="129.1826">sortOrder: String (ASC/DESC)</text></g><!--class ContentService--><g id="elem_ContentService"><rect codeLine="30" fill="#F1F1F1" height="129.4844" id="ContentService" rx="2.5" ry="2.5" style="stroke:#181818;stroke-width:0.5;" width="307.6543" x="292" y="220.5"/><ellipse cx="387.8672" cy="236.5" fill="#ADD1B2" rx="11" ry="11" style="stroke:#181818;stroke-width:1;"/><path d="M390.8359,242.1406 Q390.2578,242.4375 389.6172,242.5781 Q388.9766,242.7344 388.2734,242.7344 Q385.7734,242.7344 384.4453,241.0938 Q383.1328,239.4375 383.1328,236.3125 Q383.1328,233.1875 384.4453,231.5313 Q385.7734,229.875 388.2734,229.875 Q388.9766,229.875 389.6172,230.0313 Q390.2734,230.1875 390.8359,230.4844 L390.8359,233.2031 Q390.2109,232.625 389.6172,232.3594 Q389.0234,232.0781 388.3984,232.0781 Q387.0547,232.0781 386.3672,233.1563 Q385.6797,234.2188 385.6797,236.3125 Q385.6797,238.4063 386.3672,239.4844 Q387.0547,240.5469 388.3984,240.5469 Q389.0234,240.5469 389.6172,240.2813 Q390.2109,240 390.8359,239.4219 L390.8359,242.1406 Z " fill="#000000"/><text fill="#000000" font-family="sans-serif" font-size="14" lengthAdjust="spacing" textLength="107.4199" x="408.3672" y="241.3467">ContentService</text><line style="stroke:#181818;stroke-width:0.5;" x1="293" x2="598.6543" y1="252.5" y2="252.5"/><rect fill="transparent" height="6" style="stroke:#C82930;stroke-width:1;" width="6" x="300" y="263.1484"/><text fill="#000000" font-family="sans-serif" font-size="14" lengthAdjust="spacing" textLength="252.6768" x="312" y="269.4951">challengeMapper: ChallengeMapper</text><rect fill="transparent" height="6" style="stroke:#C82930;stroke-width:1;" width="6" x="300" y="279.4453"/><text fill="#000000" font-family="sans-serif" font-size="14" lengthAdjust="spacing" textLength="174.7949" x="312" y="285.792">postMapper: PostMapper</text><line style="stroke:#181818;stroke-width:0.5;" x1="293" x2="598.6543" y1="293.0938" y2="293.0938"/><ellipse cx="303" cy="306.7422" fill="#84BE84" rx="3" ry="3" style="stroke:#038048;stroke-width:1;"/><text fill="#000000" font-family="sans-serif" font-size="14" lengthAdjust="spacing" textLength="264.9473" x="312" y="310.0889">auditContent(Long, AuditAction): void</text><ellipse cx="303" cy="323.0391" fill="#84BE84" rx="3" ry="3" style="stroke:#038048;stroke-width:1;"/><text fill="#000000" font-family="sans-serif" font-size="14" lengthAdjust="spacing" textLength="205.9258" x="312" y="326.3857">batchDelete(List&lt;Long&gt;): int</text><ellipse cx="303" cy="339.3359" fill="#84BE84" rx="3" ry="3" style="stroke:#038048;stroke-width:1;"/><text fill="#000000" font-family="sans-serif" font-size="14" lengthAdjust="spacing" textLength="281.6543" x="312" y="342.6826">getReportDetails(Long): ReportDetailVO</text></g><!--class ContentController--><g id="elem_ContentController"><rect codeLine="38" fill="#F1F1F1" height="96.8906" id="ContentController" rx="2.5" ry="2.5" style="stroke:#181818;stroke-width:0.5;" width="395.5371" x="248" y="23"/><ellipse cx="379.0928" cy="39" fill="#ADD1B2" rx="11" ry="11" style="stroke:#181818;stroke-width:1;"/><path d="M382.0615,44.6406 Q381.4834,44.9375 380.8428,45.0781 Q380.2021,45.2344 379.499,45.2344 Q376.999,45.2344 375.6709,43.5938 Q374.3584,41.9375 374.3584,38.8125 Q374.3584,35.6875 375.6709,34.0313 Q376.999,32.375 379.499,32.375 Q380.2021,32.375 380.8428,32.5313 Q381.499,32.6875 382.0615,32.9844 L382.0615,35.7031 Q381.4365,35.125 380.8428,34.8594 Q380.249,34.5781 379.624,34.5781 Q378.2803,34.5781 377.5928,35.6563 Q376.9053,36.7188 376.9053,38.8125 Q376.9053,40.9063 377.5928,41.9844 Q378.2803,43.0469 379.624,43.0469 Q380.249,43.0469 380.8428,42.7813 Q381.4365,42.5 382.0615,41.9219 L382.0615,44.6406 Z " fill="#000000"/><text fill="#000000" font-family="sans-serif" font-size="14" lengthAdjust="spacing" textLength="124.8516" x="399.5928" y="43.8467">ContentController</text><line style="stroke:#181818;stroke-width:0.5;" x1="249" x2="642.5371" y1="55" y2="55"/><line style="stroke:#181818;stroke-width:0.5;" x1="249" x2="642.5371" y1="63" y2="63"/><ellipse cx="259" cy="76.6484" fill="#84BE84" rx="3" ry="3" style="stroke:#038048;stroke-width:1;"/><text fill="#000000" font-family="sans-serif" font-size="14" lengthAdjust="spacing" textLength="369.5371" x="268" y="79.9951">listContents(ContentQuery): PageData&lt;ContentVO&gt;</text><ellipse cx="259" cy="92.9453" fill="#84BE84" rx="3" ry="3" style="stroke:#038048;stroke-width:1;"/><text fill="#000000" font-family="sans-serif" font-size="14" lengthAdjust="spacing" textLength="339.8691" x="268" y="96.292">handleReport(ReportHandleDTO): Result&lt;Void&gt;</text><ellipse cx="259" cy="109.2422" fill="#84BE84" rx="3" ry="3" style="stroke:#038048;stroke-width:1;"/><text fill="#000000" font-family="sans-serif" font-size="14" lengthAdjust="spacing" textLength="345.9395" x="268" y="112.5889">getContentTrends(TimeRange): List&lt;ChartData&gt;</text></g><!--class ReportDetailVO--><g id="elem_ReportDetailVO"><rect codeLine="45" fill="#F1F1F1" height="113.1875" id="ReportDetailVO" rx="2.5" ry="2.5" style="stroke:#181818;stroke-width:0.5;" width="275.8398" x="1018" y="15"/><ellipse cx="1097.2319" cy="31" fill="#ADD1B2" rx="11" ry="11" style="stroke:#181818;stroke-width:1;"/><path d="M1100.2007,36.6406 Q1099.6226,36.9375 1098.9819,37.0781 Q1098.3413,37.2344 1097.6382,37.2344 Q1095.1382,37.2344 1093.8101,35.5938 Q1092.4976,33.9375 1092.4976,30.8125 Q1092.4976,27.6875 1093.8101,26.0313 Q1095.1382,24.375 1097.6382,24.375 Q1098.3413,24.375 1098.9819,24.5313 Q1099.6382,24.6875 1100.2007,24.9844 L1100.2007,27.7031 Q1099.5757,27.125 1098.9819,26.8594 Q1098.3882,26.5781 1097.7632,26.5781 Q1096.4194,26.5781 1095.7319,27.6563 Q1095.0444,28.7188 1095.0444,30.8125 Q1095.0444,32.9063 1095.7319,33.9844 Q1096.4194,35.0469 1097.7632,35.0469 Q1098.3882,35.0469 1098.9819,34.7813 Q1099.5757,34.5 1100.2007,33.9219 L1100.2007,36.6406 Z " fill="#000000"/><text fill="#000000" font-family="sans-serif" font-size="14" lengthAdjust="spacing" textLength="108.876" x="1117.7319" y="35.8467">ReportDetailVO</text><line style="stroke:#181818;stroke-width:0.5;" x1="1019" x2="1292.8398" y1="47" y2="47"/><rect fill="transparent" height="6" style="stroke:#C82930;stroke-width:1;" width="6" x="1026" y="57.6484"/><text fill="#000000" font-family="sans-serif" font-size="14" lengthAdjust="spacing" textLength="193.4092" x="1038" y="63.9951">reporterInfo: UserSimpleVO</text><rect fill="transparent" height="6" style="stroke:#C82930;stroke-width:1;" width="6" x="1026" y="73.9453"/><text fill="#000000" font-family="sans-serif" font-size="14" lengthAdjust="spacing" textLength="169.9961" x="1038" y="80.292">contentSnapshot: String</text><rect fill="transparent" height="6" style="stroke:#C82930;stroke-width:1;" width="6" x="1026" y="90.2422"/><text fill="#000000" font-family="sans-serif" font-size="14" lengthAdjust="spacing" textLength="249.8398" x="1038" y="96.5889">handleHistory: List&lt;HandleLogVO&gt;</text><line style="stroke:#181818;stroke-width:0.5;" x1="1019" x2="1292.8398" y1="103.8906" y2="103.8906"/><ellipse cx="1029" cy="117.5391" fill="#84BE84" rx="3" ry="3" style="stroke:#038048;stroke-width:1;"/><text fill="#000000" font-family="sans-serif" font-size="14" lengthAdjust="spacing" textLength="245.9092" x="1038" y="120.8857">addHandleLog(HandleLogVO): void</text></g><!--class ChallengeMapper--><g id="elem_ChallengeMapper"><rect fill="#F1F1F1" height="48" id="ChallengeMapper" rx="2.5" ry="2.5" style="stroke:#181818;stroke-width:0.5;" width="154.7939" x="247.5" y="434"/><ellipse cx="262.5" cy="450" fill="#ADD1B2" rx="11" ry="11" style="stroke:#181818;stroke-width:1;"/><path d="M265.4688,455.6406 Q264.8906,455.9375 264.25,456.0781 Q263.6094,456.2344 262.9063,456.2344 Q260.4063,456.2344 259.0781,454.5938 Q257.7656,452.9375 257.7656,449.8125 Q257.7656,446.6875 259.0781,445.0313 Q260.4063,443.375 262.9063,443.375 Q263.6094,443.375 264.25,443.5313 Q264.9063,443.6875 265.4688,443.9844 L265.4688,446.7031 Q264.8438,446.125 264.25,445.8594 Q263.6563,445.5781 263.0313,445.5781 Q261.6875,445.5781 261,446.6563 Q260.3125,447.7188 260.3125,449.8125 Q260.3125,451.9063 261,452.9844 Q261.6875,454.0469 263.0313,454.0469 Q263.6563,454.0469 264.25,453.7813 Q264.8438,453.5 265.4688,452.9219 L265.4688,455.6406 Z " fill="#000000"/><text fill="#000000" font-family="sans-serif" font-size="14" lengthAdjust="spacing" textLength="122.7939" x="276.5" y="454.8467">ChallengeMapper</text><line style="stroke:#181818;stroke-width:0.5;" x1="248.5" x2="401.2939" y1="466" y2="466"/><line style="stroke:#181818;stroke-width:0.5;" x1="248.5" x2="401.2939" y1="474" y2="474"/></g><!--class PostMapper--><g id="elem_PostMapper"><rect fill="#F1F1F1" height="48" id="PostMapper" rx="2.5" ry="2.5" style="stroke:#181818;stroke-width:0.5;" width="114.5918" x="509.5" y="434"/><ellipse cx="524.5" cy="450" fill="#ADD1B2" rx="11" ry="11" style="stroke:#181818;stroke-width:1;"/><path d="M527.4688,455.6406 Q526.8906,455.9375 526.25,456.0781 Q525.6094,456.2344 524.9063,456.2344 Q522.4063,456.2344 521.0781,454.5938 Q519.7656,452.9375 519.7656,449.8125 Q519.7656,446.6875 521.0781,445.0313 Q522.4063,443.375 524.9063,443.375 Q525.6094,443.375 526.25,443.5313 Q526.9063,443.6875 527.4688,443.9844 L527.4688,446.7031 Q526.8438,446.125 526.25,445.8594 Q525.6563,445.5781 525.0313,445.5781 Q523.6875,445.5781 523,446.6563 Q522.3125,447.7188 522.3125,449.8125 Q522.3125,451.9063 523,452.9844 Q523.6875,454.0469 525.0313,454.0469 Q525.6563,454.0469 526.25,453.7813 Q526.8438,453.5 527.4688,452.9219 L527.4688,455.6406 Z " fill="#000000"/><text fill="#000000" font-family="sans-serif" font-size="14" lengthAdjust="spacing" textLength="82.5918" x="538.5" y="454.8467">PostMapper</text><line style="stroke:#181818;stroke-width:0.5;" x1="510.5" x2="623.0918" y1="466" y2="466"/><line style="stroke:#181818;stroke-width:0.5;" x1="510.5" x2="623.0918" y1="474" y2="474"/></g><!--reverse link ChallengeEntity to ChallengeMapper--><g id="link_ChallengeEntity_ChallengeMapper"><path codeLine="52" d="M235.8198,377.9801 C260.7498,400.0801 280.95,417.97 298.72,433.71 " fill="transparent" id="ChallengeEntity-backto-ChallengeMapper" style="stroke:#181818;stroke-width:1;"/><polygon fill="#181818" points="231.33,374,235.4113,382.9634,235.0715,377.3168,240.7182,376.977,231.33,374" style="stroke:#181818;stroke-width:1;"/></g><!--reverse link PostEntity to PostMapper--><g id="link_PostEntity_PostMapper"><path codeLine="53" d="M665.46,370.2087 C637.51,394.8587 613.38,416.12 593.44,433.7 " fill="transparent" id="PostEntity-backto-PostMapper" style="stroke:#181818;stroke-width:1;"/><polygon fill="#181818" points="669.96,366.24,660.5643,369.193,666.21,369.5472,665.8558,375.193,669.96,366.24" style="stroke:#181818;stroke-width:1;"/></g><!--link ContentController to ContentService--><g id="link_ContentController_ContentService"><path codeLine="54" d="M446,120.23 C446,149.83 446,182.23 446,214.4 " fill="transparent" id="ContentController-to-ContentService" style="stroke:#181818;stroke-width:1;"/><polygon fill="#181818" points="446,220.4,450,211.4,446,215.4,442,211.4,446,220.4" style="stroke:#181818;stroke-width:1;"/></g><!--link ContentService to ChallengeMapper--><g id="link_ContentService_ChallengeMapper"><path codeLine="55" d="M400.94,349.67 C380.11,379.11 360.1363,407.3526 344.8763,428.9126 " fill="transparent" id="ContentService-to-ChallengeMapper" style="stroke:#181818;stroke-width:1;"/><polygon fill="#181818" points="341.41,433.81,349.8744,428.7748,344.2986,429.7288,343.3446,424.153,341.41,433.81" style="stroke:#181818;stroke-width:1;"/></g><!--link ContentService to PostMapper--><g id="link_ContentService_PostMapper"><path codeLine="56" d="M491.06,349.67 C511.89,379.11 531.8637,407.3526 547.1237,428.9126 " fill="transparent" id="ContentService-to-PostMapper" style="stroke:#181818;stroke-width:1;"/><polygon fill="#181818" points="550.59,433.81,548.6554,424.153,547.7014,429.7288,542.1256,428.7748,550.59,433.81" style="stroke:#181818;stroke-width:1;"/></g><!--SRC=[TLHTQnD157tFhvWtTwaX-Xf2e2IL5Yg9tRG-JtQlcw7JdMLcDb341p-gKaHJA2g8K45H7_H11MCV-ckwYVqNtftzoER3fzazzt3dd7lFhikfKgGre9n3uCD6e9a-9FShX5G9y-faMmI-UK6SGvquMh8CSILGBUHMcSM5IpKJGPrq1GiqiQPVpw_U_8hVZoPdpsn32QdKp6MXuRL45EWwsGeq-21DNMcg8rLWnBeHNnp5tpzCpiQrc_7l7_6hatZyEEsbgO_CRQPq8nNMH7YDk9Ix4QSQkYB4Kw8bowwJjeZw72eFAXNNkEuAfVzls1Ke815NiimEg0-xaYzVYjRPFgom8o4KKgye344gCwd2wFJqo-Nvoyi_ex-V7rsTFhHJBmDmznq85DDi27U5z5JYfIy41nhCpBHIkNSYaBcTp47lC2mMHwp9YvF9yxUrUFmw_ZQoLqsy91lcjwiGkiM0UxDs9WJGOmTGAmPW5-IEz43EoEjEgzRUS5hsacm7v92va0lFutYRXc7Ie3KFf3d2xUNrRl5iPaOZZ-ciivMelqxM4sZTJJA7qniAvXbcdsftq0OE6YopqOJTH0Q6rn1yq3jc56tGb75bsc6z3EvrblmaXnIeMHfBQvWEbIjILdbNsAkBeMfJJHiPljT9OpoWWSSXlSbAZqq3jNiT8q55N3Vsq4iprvfrw4a8C2V9MdOeZitEyefpHD5uLJDHV8rSZYycnv_YZq-cewVJT-Fuw6TcOzvUjfOY4y4zKIUx2gJ33a8EwByKDoUWeHg8-GydjRA96eGypCIaNhQ5d_kbdbTWLgcQBmmbB_we6jNgKZXAdtLIBcLZUJdLQdCXWfM5H1h6mWqhABDR_W40]--></g></svg>