<svg xmlns="http://www.w3.org/2000/svg" xmlns:xlink="http://www.w3.org/1999/xlink" contentStyleType="text/css" data-diagram-type="CLASS" height="538px" preserveAspectRatio="none" style="width:900px;height:538px;background:#FFFFFF;" version="1.1" viewBox="0 0 900 538" width="900px" zoomAndPan="magnify"><defs/><g><!--class LoginDTO--><g id="elem_LoginDTO"><rect codeLine="1" fill="#F1F1F1" height="96.8906" id="LoginDTO" rx="2.5" ry="2.5" style="stroke:#181818;stroke-width:0.5;" width="275.9082" x="19.5" y="23"/><ellipse cx="119.021" cy="39" fill="#ADD1B2" rx="11" ry="11" style="stroke:#181818;stroke-width:1;"/><path d="M121.9897,44.6406 Q121.4116,44.9375 120.771,45.0781 Q120.1304,45.2344 119.4272,45.2344 Q116.9272,45.2344 115.5991,43.5938 Q114.2866,41.9375 114.2866,38.8125 Q114.2866,35.6875 115.5991,34.0313 Q116.9272,32.375 119.4272,32.375 Q120.1304,32.375 120.771,32.5313 Q121.4272,32.6875 121.9897,32.9844 L121.9897,35.7031 Q121.3647,35.125 120.771,34.8594 Q120.1772,34.5781 119.5522,34.5781 Q118.2085,34.5781 117.521,35.6563 Q116.8335,36.7188 116.8335,38.8125 Q116.8335,40.9063 117.521,41.9844 Q118.2085,43.0469 119.5522,43.0469 Q120.1772,43.0469 120.771,42.7813 Q121.3647,42.5 121.9897,41.9219 L121.9897,44.6406 Z " fill="#000000"/><text fill="#000000" font-family="sans-serif" font-size="14" lengthAdjust="spacing" textLength="68.3662" x="139.521" y="43.8467">LoginDTO</text><line style="stroke:#181818;stroke-width:0.5;" x1="20.5" x2="294.4082" y1="55" y2="55"/><rect fill="transparent" height="6" style="stroke:#C82930;stroke-width:1;" width="6" x="27.5" y="65.6484"/><text fill="#000000" font-family="sans-serif" font-size="14" lengthAdjust="spacing" textLength="94.7598" x="39.5" y="71.9951">phone: String</text><line style="stroke:#181818;stroke-width:0.5;" x1="20.5" x2="294.4082" y1="79.2969" y2="79.2969"/><rect fill="#F24D5C" height="6" style="stroke:#C82930;stroke-width:1;" width="6" x="27.5" y="89.9453"/><text fill="#000000" font-family="sans-serif" font-size="14" lengthAdjust="spacing" textLength="249.9082" x="39.5" y="96.292">loginType: String (WECHAT/PHONE)</text><rect fill="#F24D5C" height="6" style="stroke:#C82930;stroke-width:1;" width="6" x="27.5" y="106.2422"/><text fill="#000000" font-family="sans-serif" font-size="14" lengthAdjust="spacing" textLength="245.8477" x="39.5" y="112.5889">code: String (&#24494;&#20449;code&#25110;&#30701;&#20449;&#39564;&#35777;&#30721;)</text></g><!--class WxUserInfo--><g id="elem_WxUserInfo"><rect codeLine="7" fill="#F1F1F1" height="129.4844" id="WxUserInfo" rx="2.5" ry="2.5" style="stroke:#181818;stroke-width:0.5;" width="205.71" x="687.5" y="7"/><ellipse cx="745.8379" cy="23" fill="#ADD1B2" rx="11" ry="11" style="stroke:#181818;stroke-width:1;"/><path d="M748.8066,28.6406 Q748.2285,28.9375 747.5879,29.0781 Q746.9473,29.2344 746.2441,29.2344 Q743.7441,29.2344 742.416,27.5938 Q741.1035,25.9375 741.1035,22.8125 Q741.1035,19.6875 742.416,18.0313 Q743.7441,16.375 746.2441,16.375 Q746.9473,16.375 747.5879,16.5313 Q748.2441,16.6875 748.8066,16.9844 L748.8066,19.7031 Q748.1816,19.125 747.5879,18.8594 Q746.9941,18.5781 746.3691,18.5781 Q745.0254,18.5781 744.3379,19.6563 Q743.6504,20.7188 743.6504,22.8125 Q743.6504,24.9063 744.3379,25.9844 Q745.0254,27.0469 746.3691,27.0469 Q746.9941,27.0469 747.5879,26.7813 Q748.1816,26.5 748.8066,25.9219 L748.8066,28.6406 Z " fill="#000000"/><text fill="#000000" font-family="sans-serif" font-size="14" lengthAdjust="spacing" textLength="80.5342" x="766.3379" y="27.8467">WxUserInfo</text><line style="stroke:#181818;stroke-width:0.5;" x1="688.5" x2="892.21" y1="39" y2="39"/><rect fill="transparent" height="6" style="stroke:#C82930;stroke-width:1;" width="6" x="695.5" y="49.6484"/><text fill="#000000" font-family="sans-serif" font-size="14" lengthAdjust="spacing" textLength="98.9023" x="707.5" y="55.9951">openId: String</text><rect fill="transparent" height="6" style="stroke:#C82930;stroke-width:1;" width="6" x="695.5" y="65.9453"/><text fill="#000000" font-family="sans-serif" font-size="14" lengthAdjust="spacing" textLength="103.0381" x="707.5" y="72.292">unionId: String</text><rect fill="transparent" height="6" style="stroke:#C82930;stroke-width:1;" width="6" x="695.5" y="82.2422"/><text fill="#000000" font-family="sans-serif" font-size="14" lengthAdjust="spacing" textLength="119.2188" x="707.5" y="88.5889">nickname: String</text><rect fill="transparent" height="6" style="stroke:#C82930;stroke-width:1;" width="6" x="695.5" y="98.5391"/><text fill="#000000" font-family="sans-serif" font-size="14" lengthAdjust="spacing" textLength="116.1084" x="707.5" y="104.8857">avatarUrl: String</text><line style="stroke:#181818;stroke-width:0.5;" x1="688.5" x2="892.21" y1="112.1875" y2="112.1875"/><ellipse cx="698.5" cy="125.8359" fill="#84BE84" rx="3" ry="3" style="stroke:#038048;stroke-width:1;"/><text fill="#000000" font-family="sans-serif" font-size="14" lengthAdjust="spacing" textLength="179.71" x="707.5" y="129.1826">toUserEntity(): UserEntity</text></g><!--class CaptchaCache--><g id="elem_CaptchaCache"><rect codeLine="15" fill="#F1F1F1" height="129.4844" id="CaptchaCache" rx="2.5" ry="2.5" style="stroke:#181818;stroke-width:0.5;" width="308.6182" x="7" y="402"/><ellipse cx="106.3501" cy="418" fill="#ADD1B2" rx="11" ry="11" style="stroke:#181818;stroke-width:1;"/><path d="M109.3188,423.6406 Q108.7407,423.9375 108.1001,424.0781 Q107.4595,424.2344 106.7563,424.2344 Q104.2563,424.2344 102.9282,422.5938 Q101.6157,420.9375 101.6157,417.8125 Q101.6157,414.6875 102.9282,413.0313 Q104.2563,411.375 106.7563,411.375 Q107.4595,411.375 108.1001,411.5313 Q108.7563,411.6875 109.3188,411.9844 L109.3188,414.7031 Q108.6938,414.125 108.1001,413.8594 Q107.5063,413.5781 106.8813,413.5781 Q105.5376,413.5781 104.8501,414.6563 Q104.1626,415.7188 104.1626,417.8125 Q104.1626,419.9063 104.8501,420.9844 Q105.5376,422.0469 106.8813,422.0469 Q107.5063,422.0469 108.1001,421.7813 Q108.6938,421.5 109.3188,420.9219 L109.3188,423.6406 Z " fill="#000000"/><text fill="#000000" font-family="sans-serif" font-size="14" lengthAdjust="spacing" textLength="101.418" x="126.8501" y="422.8467">CaptchaCache</text><line style="stroke:#181818;stroke-width:0.5;" x1="8" x2="314.6182" y1="434" y2="434"/><rect fill="transparent" height="6" style="stroke:#C82930;stroke-width:1;" width="6" x="15" y="444.6484"/><text fill="#000000" font-family="sans-serif" font-size="14" lengthAdjust="spacing" textLength="214.5391" x="27" y="450.9951">redisTemplate: RedisTemplate</text><line style="stroke:#181818;stroke-width:0.5;" x1="8" x2="314.6182" y1="458.2969" y2="458.2969"/><ellipse cx="18" cy="471.9453" fill="#84BE84" rx="3" ry="3" style="stroke:#038048;stroke-width:1;"/><text fill="#000000" font-family="sans-serif" font-size="14" lengthAdjust="spacing" textLength="209.2549" x="27" y="475.292">generateCaptchaKey(): String</text><ellipse cx="18" cy="488.2422" fill="#84BE84" rx="3" ry="3" style="stroke:#038048;stroke-width:1;"/><text fill="#000000" font-family="sans-serif" font-size="14" lengthAdjust="spacing" textLength="232.832" x="27" y="491.5889">saveCaptcha(String, String): void</text><ellipse cx="18" cy="504.5391" fill="#84BE84" rx="3" ry="3" style="stroke:#038048;stroke-width:1;"/><text fill="#000000" font-family="sans-serif" font-size="14" lengthAdjust="spacing" textLength="282.6182" x="27" y="507.8857">validateCaptcha(String, String): boolean</text><ellipse cx="18" cy="520.8359" fill="#84BE84" rx="3" ry="3" style="stroke:#038048;stroke-width:1;"/><text fill="#000000" font-family="sans-serif" font-size="14" lengthAdjust="spacing" textLength="241.6094" x="27" y="524.1826">getFailedAttempts(String): Integer</text></g><!--class AuthService--><g id="elem_AuthService"><rect codeLine="23" fill="#F1F1F1" height="145.7813" id="AuthService" rx="2.5" ry="2.5" style="stroke:#181818;stroke-width:0.5;" width="269.0654" x="190" y="196"/><ellipse cx="278.0059" cy="212" fill="#ADD1B2" rx="11" ry="11" style="stroke:#181818;stroke-width:1;"/><path d="M280.9746,217.6406 Q280.3965,217.9375 279.7559,218.0781 Q279.1152,218.2344 278.4121,218.2344 Q275.9121,218.2344 274.584,216.5938 Q273.2715,214.9375 273.2715,211.8125 Q273.2715,208.6875 274.584,207.0313 Q275.9121,205.375 278.4121,205.375 Q279.1152,205.375 279.7559,205.5313 Q280.4121,205.6875 280.9746,205.9844 L280.9746,208.7031 Q280.3496,208.125 279.7559,207.8594 Q279.1621,207.5781 278.5371,207.5781 Q277.1934,207.5781 276.5059,208.6563 Q275.8184,209.7188 275.8184,211.8125 Q275.8184,213.9063 276.5059,214.9844 Q277.1934,216.0469 278.5371,216.0469 Q279.1621,216.0469 279.7559,215.7813 Q280.3496,215.5 280.9746,214.9219 L280.9746,217.6406 Z " fill="#000000"/><text fill="#000000" font-family="sans-serif" font-size="14" lengthAdjust="spacing" textLength="84.5537" x="298.5059" y="216.8467">AuthService</text><line style="stroke:#181818;stroke-width:0.5;" x1="191" x2="458.0654" y1="228" y2="228"/><rect fill="transparent" height="6" style="stroke:#C82930;stroke-width:1;" width="6" x="198" y="238.6484"/><text fill="#000000" font-family="sans-serif" font-size="14" lengthAdjust="spacing" textLength="177.2148" x="210" y="244.9951">userMapper: UserMapper</text><rect fill="transparent" height="6" style="stroke:#C82930;stroke-width:1;" width="6" x="198" y="254.9453"/><text fill="#000000" font-family="sans-serif" font-size="14" lengthAdjust="spacing" textLength="154.4443" x="210" y="261.292">wxClient: WxApiClient</text><rect fill="transparent" height="6" style="stroke:#C82930;stroke-width:1;" width="6" x="198" y="271.2422"/><text fill="#000000" font-family="sans-serif" font-size="14" lengthAdjust="spacing" textLength="168.5811" x="210" y="277.5889">smsSender: SmsService</text><line style="stroke:#181818;stroke-width:0.5;" x1="191" x2="458.0654" y1="284.8906" y2="284.8906"/><ellipse cx="201" cy="298.5391" fill="#84BE84" rx="3" ry="3" style="stroke:#038048;stroke-width:1;"/><text fill="#000000" font-family="sans-serif" font-size="14" lengthAdjust="spacing" textLength="192.4043" x="210" y="301.8857">wxLogin(String): UserEntity</text><ellipse cx="201" cy="314.8359" fill="#84BE84" rx="3" ry="3" style="stroke:#038048;stroke-width:1;"/><text fill="#000000" font-family="sans-serif" font-size="14" lengthAdjust="spacing" textLength="243.0654" x="210" y="318.1826">phoneLogin(LoginDTO): UserEntity</text><ellipse cx="201" cy="331.1328" fill="#84BE84" rx="3" ry="3" style="stroke:#038048;stroke-width:1;"/><text fill="#000000" font-family="sans-serif" font-size="14" lengthAdjust="spacing" textLength="190.8252" x="210" y="334.4795">sendSmsCode(String): void</text></g><!--class AuthController--><g id="elem_AuthController"><rect codeLine="32" fill="#F1F1F1" height="96.8906" id="AuthController" rx="2.5" ry="2.5" style="stroke:#181818;stroke-width:0.5;" width="322.2422" x="330.5" y="23"/><ellipse cx="436.3784" cy="39" fill="#ADD1B2" rx="11" ry="11" style="stroke:#181818;stroke-width:1;"/><path d="M439.3472,44.6406 Q438.769,44.9375 438.1284,45.0781 Q437.4878,45.2344 436.7847,45.2344 Q434.2847,45.2344 432.9565,43.5938 Q431.644,41.9375 431.644,38.8125 Q431.644,35.6875 432.9565,34.0313 Q434.2847,32.375 436.7847,32.375 Q437.4878,32.375 438.1284,32.5313 Q438.7847,32.6875 439.3472,32.9844 L439.3472,35.7031 Q438.7222,35.125 438.1284,34.8594 Q437.5347,34.5781 436.9097,34.5781 Q435.5659,34.5781 434.8784,35.6563 Q434.1909,36.7188 434.1909,38.8125 Q434.1909,40.9063 434.8784,41.9844 Q435.5659,43.0469 436.9097,43.0469 Q437.5347,43.0469 438.1284,42.7813 Q438.7222,42.5 439.3472,41.9219 L439.3472,44.6406 Z " fill="#000000"/><text fill="#000000" font-family="sans-serif" font-size="14" lengthAdjust="spacing" textLength="101.9854" x="456.8784" y="43.8467">AuthController</text><line style="stroke:#181818;stroke-width:0.5;" x1="331.5" x2="651.7422" y1="55" y2="55"/><line style="stroke:#181818;stroke-width:0.5;" x1="331.5" x2="651.7422" y1="63" y2="63"/><ellipse cx="341.5" cy="76.6484" fill="#84BE84" rx="3" ry="3" style="stroke:#038048;stroke-width:1;"/><text fill="#000000" font-family="sans-serif" font-size="14" lengthAdjust="spacing" textLength="294.2939" x="350.5" y="79.9951">wxLogin(WxLoginDTO): Result&lt;LoginVO&gt;</text><ellipse cx="341.5" cy="92.9453" fill="#84BE84" rx="3" ry="3" style="stroke:#038048;stroke-width:1;"/><text fill="#000000" font-family="sans-serif" font-size="14" lengthAdjust="spacing" textLength="296.2422" x="350.5" y="96.292">phoneLogin(LoginDTO): Result&lt;LoginVO&gt;</text><ellipse cx="341.5" cy="109.2422" fill="#84BE84" rx="3" ry="3" style="stroke:#038048;stroke-width:1;"/><text fill="#000000" font-family="sans-serif" font-size="14" lengthAdjust="spacing" textLength="285.0723" x="350.5" y="112.5889">refreshToken(String): Result&lt;TokenVO&gt;</text></g><!--class WxApiClient--><g id="elem_WxApiClient"><rect codeLine="39" fill="#F1F1F1" height="113.1875" id="WxApiClient" rx="2.5" ry="2.5" style="stroke:#181818;stroke-width:0.5;" width="271.9297" x="351.5" y="410"/><ellipse cx="440.709" cy="426" fill="#ADD1B2" rx="11" ry="11" style="stroke:#181818;stroke-width:1;"/><path d="M443.6777,431.6406 Q443.0996,431.9375 442.459,432.0781 Q441.8184,432.2344 441.1152,432.2344 Q438.6152,432.2344 437.2871,430.5938 Q435.9746,428.9375 435.9746,425.8125 Q435.9746,422.6875 437.2871,421.0313 Q438.6152,419.375 441.1152,419.375 Q441.8184,419.375 442.459,419.5313 Q443.1152,419.6875 443.6777,419.9844 L443.6777,422.7031 Q443.0527,422.125 442.459,421.8594 Q441.8652,421.5781 441.2402,421.5781 Q439.8965,421.5781 439.209,422.6563 Q438.5215,423.7188 438.5215,425.8125 Q438.5215,427.9063 439.209,428.9844 Q439.8965,430.0469 441.2402,430.0469 Q441.8652,430.0469 442.459,429.7813 Q443.0527,429.5 443.6777,428.9219 L443.6777,431.6406 Z " fill="#000000"/><text fill="#000000" font-family="sans-serif" font-size="14" lengthAdjust="spacing" textLength="85.0117" x="461.209" y="430.8467">WxApiClient</text><line style="stroke:#181818;stroke-width:0.5;" x1="352.5" x2="622.4297" y1="442" y2="442"/><rect fill="transparent" height="6" style="stroke:#C82930;stroke-width:1;" width="6" x="359.5" y="452.6484"/><text fill="#000000" font-family="sans-serif" font-size="14" lengthAdjust="spacing" textLength="90.3164" x="371.5" y="458.9951">appId: String</text><rect fill="transparent" height="6" style="stroke:#C82930;stroke-width:1;" width="6" x="359.5" y="468.9453"/><text fill="#000000" font-family="sans-serif" font-size="14" lengthAdjust="spacing" textLength="122.3564" x="371.5" y="475.292">appSecret: String</text><line style="stroke:#181818;stroke-width:0.5;" x1="352.5" x2="622.4297" y1="482.5938" y2="482.5938"/><ellipse cx="362.5" cy="496.2422" fill="#84BE84" rx="3" ry="3" style="stroke:#038048;stroke-width:1;"/><text fill="#000000" font-family="sans-serif" font-size="14" lengthAdjust="spacing" textLength="245.9297" x="371.5" y="499.5889">getWxUserInfo(String): WxUserInfo</text><ellipse cx="362.5" cy="512.5391" fill="#84BE84" rx="3" ry="3" style="stroke:#038048;stroke-width:1;"/><text fill="#000000" font-family="sans-serif" font-size="14" lengthAdjust="spacing" textLength="200.6348" x="371.5" y="515.8857">decryptPhone(String): String</text></g><!--class UserEntity--><g id="elem_UserEntity"><rect fill="#F1F1F1" height="48" id="UserEntity" rx="2.5" ry="2.5" style="stroke:#181818;stroke-width:0.5;" width="104.7822" x="738" y="245"/><ellipse cx="753" cy="261" fill="#ADD1B2" rx="11" ry="11" style="stroke:#181818;stroke-width:1;"/><path d="M755.9688,266.6406 Q755.3906,266.9375 754.75,267.0781 Q754.1094,267.2344 753.4063,267.2344 Q750.9063,267.2344 749.5781,265.5938 Q748.2656,263.9375 748.2656,260.8125 Q748.2656,257.6875 749.5781,256.0313 Q750.9063,254.375 753.4063,254.375 Q754.1094,254.375 754.75,254.5313 Q755.4063,254.6875 755.9688,254.9844 L755.9688,257.7031 Q755.3438,257.125 754.75,256.8594 Q754.1563,256.5781 753.5313,256.5781 Q752.1875,256.5781 751.5,257.6563 Q750.8125,258.7188 750.8125,260.8125 Q750.8125,262.9063 751.5,263.9844 Q752.1875,265.0469 753.5313,265.0469 Q754.1563,265.0469 754.75,264.7813 Q755.3438,264.5 755.9688,263.9219 L755.9688,266.6406 Z " fill="#000000"/><text fill="#000000" font-family="sans-serif" font-size="14" lengthAdjust="spacing" textLength="72.7822" x="767" y="265.8467">UserEntity</text><line style="stroke:#181818;stroke-width:0.5;" x1="739" x2="841.7822" y1="277" y2="277"/><line style="stroke:#181818;stroke-width:0.5;" x1="739" x2="841.7822" y1="285" y2="285"/></g><!--link AuthController to AuthService--><g id="link_AuthController_AuthService"><path codeLine="46" d="M450.86,120.07 C431.45,142.79 411.707,165.9078 390.147,191.1478 " fill="transparent" id="AuthController-to-AuthService" style="stroke:#181818;stroke-width:1;"/><polygon fill="#181818" points="386.25,195.71,395.1369,191.4647,389.4975,191.9082,389.0541,186.2687,386.25,195.71" style="stroke:#181818;stroke-width:1;"/></g><!--link AuthService to WxApiClient--><g id="link_AuthService_WxApiClient"><path codeLine="47" d="M384.73,342.24 C403.32,364.54 419.6574,384.1319 437.1774,405.1419 " fill="transparent" id="AuthService-to-WxApiClient" style="stroke:#181818;stroke-width:1;"/><polygon fill="#181818" points="441.02,409.75,438.3281,400.2762,437.8178,405.9099,432.184,405.3996,441.02,409.75" style="stroke:#181818;stroke-width:1;"/></g><!--link AuthService to CaptchaCache--><g id="link_AuthService_CaptchaCache"><path codeLine="48" d="M264.27,342.24 C247.94,361.82 234.2435,378.2627 218.3435,397.3227 " fill="transparent" id="AuthService-to-CaptchaCache" style="stroke:#181818;stroke-width:1;"/><polygon fill="#181818" points="214.5,401.93,223.3368,397.5813,217.7029,398.0905,217.1937,392.4567,214.5,401.93" style="stroke:#181818;stroke-width:1;"/></g><!--link LoginDTO to AuthService--><g id="link_LoginDTO_AuthService"><path codeLine="49" d="M198.14,120.07 C217.55,142.79 237.293,165.9078 258.853,191.1478 " fill="transparent" id="LoginDTO-to-AuthService" style="stroke:#181818;stroke-width:1;"/><polygon fill="#181818" points="262.75,195.71,259.9459,186.2687,259.5025,191.9082,253.8631,191.4647,262.75,195.71" style="stroke:#181818;stroke-width:1;"/></g><!--link WxUserInfo to UserEntity--><g id="link_WxUserInfo_UserEntity"><path codeLine="50" d="M790.5,136.24 C790.5,173.46 790.5,212.19 790.5,238.79 " fill="transparent" id="WxUserInfo-to-UserEntity" style="stroke:#181818;stroke-width:1;"/><polygon fill="#181818" points="790.5,244.79,794.5,235.79,790.5,239.79,786.5,235.79,790.5,244.79" style="stroke:#181818;stroke-width:1;"/></g><!--SRC=[VLJBZjCm5DtdAxmZ8wZOLsYaA1HDnQFL94FN9hdJMEFQaNsRQOLOT874WZLRGEoGU7m1_0p337-1xQIncq7iSiyvztsTWbEjoHEvPE9XFYCl8q96X5iptzOm9Xag9fOaNapIaoI_Fp-PFPiSEL4Xou2_-l7rry-F5llzvjtr-o_6-FFvxSsttVM7NQklAobwX-XL51KkzM9pfa5DnRdiaiiQnBJiXHPQ2oQ7c635XQ0hE01fGv6gCyK3z2v1QLDC13BSnaTZuYrVHafhB2gQqgA2hX059TCvh6fEqQGv3KqNTma2b34wtyVWeWU9DMtsPDp2zphQw1h9IgTgA6Ub3tDR-K9A3bHqEV4HPHpA1D7KWZhkPLE1i0JbUqhMM6MW6bRiMrgRpf_IkWRLJg7zTjJb9kKC18xDHfAQjOPZz4fd84hhazbF5z0LSxbnX-DB22PhURVoLhA_iDiYRMARkAavdVXmE0UDf5AWafo3Shtuv8jD4FiKz9hZ0uSydnt_fuf_AHMSAz1LBYyWQAfJEjGgJLbtI7lloNnwzNrty-brVypzwBg9cm4F3jSW6HGAyE1Kp5xzI_2vFUPKfN7SrZYt7NcHVrA3GOr6n-4HHE51M2xSz90B7qJK_n-64OFNQoc_shy0]--></g></svg>