<svg xmlns="http://www.w3.org/2000/svg" xmlns:xlink="http://www.w3.org/1999/xlink" contentStyleType="text/css" data-diagram-type="CLASS" height="522px" preserveAspectRatio="none" style="width:1037px;height:522px;background:#FFFFFF;" version="1.1" viewBox="0 0 1037 522" width="1037px" zoomAndPan="magnify"><defs/><g><!--class BlogDTO--><g id="elem_BlogDTO"><rect codeLine="1" fill="#F1F1F1" height="145.7813" id="BlogDTO" rx="2.5" ry="2.5" style="stroke:#181818;stroke-width:0.5;" width="221.3779" x="95" y="7"/><ellipse cx="170.79" cy="23" fill="#ADD1B2" rx="11" ry="11" style="stroke:#181818;stroke-width:1;"/><path d="M173.7588,28.6406 Q173.1807,28.9375 172.54,29.0781 Q171.8994,29.2344 171.1963,29.2344 Q168.6963,29.2344 167.3682,27.5938 Q166.0557,25.9375 166.0557,22.8125 Q166.0557,19.6875 167.3682,18.0313 Q168.6963,16.375 171.1963,16.375 Q171.8994,16.375 172.54,16.5313 Q173.1963,16.6875 173.7588,16.9844 L173.7588,19.7031 Q173.1338,19.125 172.54,18.8594 Q171.9463,18.5781 171.3213,18.5781 Q169.9775,18.5781 169.29,19.6563 Q168.6025,20.7188 168.6025,22.8125 Q168.6025,24.9063 169.29,25.9844 Q169.9775,27.0469 171.3213,27.0469 Q171.9463,27.0469 172.54,26.7813 Q173.1338,26.5 173.7588,25.9219 L173.7588,28.6406 Z " fill="#000000"/><text fill="#000000" font-family="sans-serif" font-size="14" lengthAdjust="spacing" textLength="61.2979" x="191.29" y="27.8467">BlogDTO</text><line style="stroke:#181818;stroke-width:0.5;" x1="96" x2="315.3779" y1="39" y2="39"/><rect fill="transparent" height="6" style="stroke:#C82930;stroke-width:1;" width="6" x="103" y="49.6484"/><text fill="#000000" font-family="sans-serif" font-size="14" lengthAdjust="spacing" textLength="104.5488" x="115" y="55.9951">content: String</text><rect fill="transparent" height="6" style="stroke:#C82930;stroke-width:1;" width="6" x="103" y="65.9453"/><text fill="#000000" font-family="sans-serif" font-size="14" lengthAdjust="spacing" textLength="195.3779" x="115" y="72.292">images: List&lt;MultipartFile&gt;</text><rect fill="transparent" height="6" style="stroke:#C82930;stroke-width:1;" width="6" x="103" y="82.2422"/><text fill="#000000" font-family="sans-serif" font-size="14" lengthAdjust="spacing" textLength="118.7197" x="115" y="88.5889">isPublic: Boolean</text><rect fill="transparent" height="6" style="stroke:#C82930;stroke-width:1;" width="6" x="103" y="98.5391"/><text fill="#000000" font-family="sans-serif" font-size="14" lengthAdjust="spacing" textLength="154.5264" x="115" y="104.8857">location: LocationDTO</text><rect fill="transparent" height="6" style="stroke:#C82930;stroke-width:1;" width="6" x="103" y="114.8359"/><text fill="#000000" font-family="sans-serif" font-size="14" lengthAdjust="spacing" textLength="108.3223" x="115" y="121.1826">weather: String</text><line style="stroke:#181818;stroke-width:0.5;" x1="96" x2="315.3779" y1="128.4844" y2="128.4844"/><ellipse cx="106" cy="142.1328" fill="#84BE84" rx="3" ry="3" style="stroke:#038048;stroke-width:1;"/><text fill="#000000" font-family="sans-serif" font-size="14" lengthAdjust="spacing" textLength="105.9297" x="115" y="145.4795">validate(): void</text></g><!--class BlogVO--><g id="elem_BlogVO"><rect codeLine="10" fill="#F1F1F1" height="145.7813" id="BlogVO" rx="2.5" ry="2.5" style="stroke:#181818;stroke-width:0.5;" width="269.9609" x="760.5" y="7"/><ellipse cx="865.459" cy="23" fill="#ADD1B2" rx="11" ry="11" style="stroke:#181818;stroke-width:1;"/><path d="M868.4277,28.6406 Q867.8496,28.9375 867.209,29.0781 Q866.5684,29.2344 865.8652,29.2344 Q863.3652,29.2344 862.0371,27.5938 Q860.7246,25.9375 860.7246,22.8125 Q860.7246,19.6875 862.0371,18.0313 Q863.3652,16.375 865.8652,16.375 Q866.5684,16.375 867.209,16.5313 Q867.8652,16.6875 868.4277,16.9844 L868.4277,19.7031 Q867.8027,19.125 867.209,18.8594 Q866.6152,18.5781 865.9902,18.5781 Q864.6465,18.5781 863.959,19.6563 Q863.2715,20.7188 863.2715,22.8125 Q863.2715,24.9063 863.959,25.9844 Q864.6465,27.0469 865.9902,27.0469 Q866.6152,27.0469 867.209,26.7813 Q867.8027,26.5 868.4277,25.9219 L868.4277,28.6406 Z " fill="#000000"/><text fill="#000000" font-family="sans-serif" font-size="14" lengthAdjust="spacing" textLength="51.543" x="885.959" y="27.8467">BlogVO</text><line style="stroke:#181818;stroke-width:0.5;" x1="761.5" x2="1029.4609" y1="39" y2="39"/><rect fill="transparent" height="6" style="stroke:#C82930;stroke-width:1;" width="6" x="768.5" y="49.6484"/><text fill="#000000" font-family="sans-serif" font-size="14" lengthAdjust="spacing" textLength="56.0684" x="780.5" y="55.9951">id: Long</text><rect fill="transparent" height="6" style="stroke:#C82930;stroke-width:1;" width="6" x="768.5" y="65.9453"/><text fill="#000000" font-family="sans-serif" font-size="14" lengthAdjust="spacing" textLength="104.5488" x="780.5" y="72.292">content: String</text><rect fill="transparent" height="6" style="stroke:#C82930;stroke-width:1;" width="6" x="768.5" y="82.2422"/><text fill="#000000" font-family="sans-serif" font-size="14" lengthAdjust="spacing" textLength="121.9395" x="780.5" y="88.5889">thumbnail: String</text><rect fill="transparent" height="6" style="stroke:#C82930;stroke-width:1;" width="6" x="768.5" y="98.5391"/><text fill="#000000" font-family="sans-serif" font-size="14" lengthAdjust="spacing" textLength="129.8486" x="780.5" y="104.8857">heatScore: Double</text><rect fill="transparent" height="6" style="stroke:#C82930;stroke-width:1;" width="6" x="768.5" y="114.8359"/><text fill="#000000" font-family="sans-serif" font-size="14" lengthAdjust="spacing" textLength="155.6133" x="780.5" y="121.1826">author: UserSimpleVO</text><line style="stroke:#181818;stroke-width:0.5;" x1="761.5" x2="1029.4609" y1="128.4844" y2="128.4844"/><ellipse cx="771.5" cy="142.1328" fill="#84BE84" rx="3" ry="3" style="stroke:#038048;stroke-width:1;"/><text fill="#000000" font-family="sans-serif" font-size="14" lengthAdjust="spacing" textLength="243.9609" x="780.5" y="145.4795">addInteractionCount(Integer): void</text></g><!--class BlogService--><g id="elem_BlogService"><rect codeLine="19" fill="#F1F1F1" height="145.7813" id="BlogService" rx="2.5" ry="2.5" style="stroke:#181818;stroke-width:0.5;" width="335.7363" x="204.5" y="213"/><ellipse cx="326.7744" cy="229" fill="#ADD1B2" rx="11" ry="11" style="stroke:#181818;stroke-width:1;"/><path d="M329.7432,234.6406 Q329.165,234.9375 328.5244,235.0781 Q327.8838,235.2344 327.1807,235.2344 Q324.6807,235.2344 323.3525,233.5938 Q322.04,231.9375 322.04,228.8125 Q322.04,225.6875 323.3525,224.0313 Q324.6807,222.375 327.1807,222.375 Q327.8838,222.375 328.5244,222.5313 Q329.1807,222.6875 329.7432,222.9844 L329.7432,225.7031 Q329.1182,225.125 328.5244,224.8594 Q327.9307,224.5781 327.3057,224.5781 Q325.9619,224.5781 325.2744,225.6563 Q324.5869,226.7188 324.5869,228.8125 Q324.5869,230.9063 325.2744,231.9844 Q325.9619,233.0469 327.3057,233.0469 Q327.9307,233.0469 328.5244,232.7813 Q329.1182,232.5 329.7432,231.9219 L329.7432,234.6406 Z " fill="#000000"/><text fill="#000000" font-family="sans-serif" font-size="14" lengthAdjust="spacing" textLength="82.6875" x="347.2744" y="233.8467">BlogService</text><line style="stroke:#181818;stroke-width:0.5;" x1="205.5" x2="539.2363" y1="245" y2="245"/><rect fill="transparent" height="6" style="stroke:#C82930;stroke-width:1;" width="6" x="212.5" y="255.6484"/><text fill="#000000" font-family="sans-serif" font-size="14" lengthAdjust="spacing" textLength="175.9434" x="224.5" y="261.9951">blogMapper: BlogMapper</text><rect fill="transparent" height="6" style="stroke:#C82930;stroke-width:1;" width="6" x="212.5" y="271.9453"/><text fill="#000000" font-family="sans-serif" font-size="14" lengthAdjust="spacing" textLength="200.1016" x="224.5" y="278.292">imageService: ImageService</text><rect fill="transparent" height="6" style="stroke:#C82930;stroke-width:1;" width="6" x="212.5" y="288.2422"/><text fill="#000000" font-family="sans-serif" font-size="14" lengthAdjust="spacing" textLength="227.6572" x="224.5" y="294.5889">locationService: LocationService</text><line style="stroke:#181818;stroke-width:0.5;" x1="205.5" x2="539.2363" y1="301.8906" y2="301.8906"/><ellipse cx="215.5" cy="315.5391" fill="#84BE84" rx="3" ry="3" style="stroke:#038048;stroke-width:1;"/><text fill="#000000" font-family="sans-serif" font-size="14" lengthAdjust="spacing" textLength="234.2334" x="224.5" y="318.8857">createBlog(BlogDTO, Long): Long</text><ellipse cx="215.5" cy="331.8359" fill="#84BE84" rx="3" ry="3" style="stroke:#038048;stroke-width:1;"/><text fill="#000000" font-family="sans-serif" font-size="14" lengthAdjust="spacing" textLength="309.7363" x="224.5" y="335.1826">getBlogFeed(PageRequest): Page&lt;BlogVO&gt;</text><ellipse cx="215.5" cy="348.1328" fill="#84BE84" rx="3" ry="3" style="stroke:#038048;stroke-width:1;"/><text fill="#000000" font-family="sans-serif" font-size="14" lengthAdjust="spacing" textLength="201.9199" x="224.5" y="351.4795">deleteBlog(Long, Long): void</text></g><!--class BlogController--><g id="elem_BlogController"><rect codeLine="28" fill="#F1F1F1" height="96.8906" id="BlogController" rx="2.5" ry="2.5" style="stroke:#181818;stroke-width:0.5;" width="374.3457" x="351.5" y="31.5"/><ellipse cx="484.3633" cy="47.5" fill="#ADD1B2" rx="11" ry="11" style="stroke:#181818;stroke-width:1;"/><path d="M487.332,53.1406 Q486.7539,53.4375 486.1133,53.5781 Q485.4727,53.7344 484.7695,53.7344 Q482.2695,53.7344 480.9414,52.0938 Q479.6289,50.4375 479.6289,47.3125 Q479.6289,44.1875 480.9414,42.5313 Q482.2695,40.875 484.7695,40.875 Q485.4727,40.875 486.1133,41.0313 Q486.7695,41.1875 487.332,41.4844 L487.332,44.2031 Q486.707,43.625 486.1133,43.3594 Q485.5195,43.0781 484.8945,43.0781 Q483.5508,43.0781 482.8633,44.1563 Q482.1758,45.2188 482.1758,47.3125 Q482.1758,49.4063 482.8633,50.4844 Q483.5508,51.5469 484.8945,51.5469 Q485.5195,51.5469 486.1133,51.2813 Q486.707,51 487.332,50.4219 L487.332,53.1406 Z " fill="#000000"/><text fill="#000000" font-family="sans-serif" font-size="14" lengthAdjust="spacing" textLength="100.1191" x="504.8633" y="52.3467">BlogController</text><line style="stroke:#181818;stroke-width:0.5;" x1="352.5" x2="724.8457" y1="63.5" y2="63.5"/><line style="stroke:#181818;stroke-width:0.5;" x1="352.5" x2="724.8457" y1="71.5" y2="71.5"/><ellipse cx="362.5" cy="85.1484" fill="#84BE84" rx="3" ry="3" style="stroke:#038048;stroke-width:1;"/><text fill="#000000" font-family="sans-serif" font-size="14" lengthAdjust="spacing" textLength="244.043" x="371.5" y="88.4951">postBlog(BlogDTO): Result&lt;Long&gt;</text><ellipse cx="362.5" cy="101.4453" fill="#84BE84" rx="3" ry="3" style="stroke:#038048;stroke-width:1;"/><text fill="#000000" font-family="sans-serif" font-size="14" lengthAdjust="spacing" textLength="348.3457" x="371.5" y="104.792">getNearbyBlogs(LocationRequest): List&lt;BlogVO&gt;</text><ellipse cx="362.5" cy="117.7422" fill="#84BE84" rx="3" ry="3" style="stroke:#038048;stroke-width:1;"/><text fill="#000000" font-family="sans-serif" font-size="14" lengthAdjust="spacing" textLength="227.5342" x="371.5" y="121.0889">deleteBlog(Long): Result&lt;Void&gt;</text></g><!--class LocationService--><g id="elem_LocationService"><rect codeLine="35" fill="#F1F1F1" height="80.5938" id="LocationService" rx="2.5" ry="2.5" style="stroke:#181818;stroke-width:0.5;" width="368.877" x="7" y="427"/><ellipse cx="131.5884" cy="443" fill="#ADD1B2" rx="11" ry="11" style="stroke:#181818;stroke-width:1;"/><path d="M134.5571,448.6406 Q133.979,448.9375 133.3384,449.0781 Q132.6978,449.2344 131.9946,449.2344 Q129.4946,449.2344 128.1665,447.5938 Q126.854,445.9375 126.854,442.8125 Q126.854,439.6875 128.1665,438.0313 Q129.4946,436.375 131.9946,436.375 Q132.6978,436.375 133.3384,436.5313 Q133.9946,436.6875 134.5571,436.9844 L134.5571,439.7031 Q133.9321,439.125 133.3384,438.8594 Q132.7446,438.5781 132.1196,438.5781 Q130.7759,438.5781 130.0884,439.6563 Q129.4009,440.7188 129.4009,442.8125 Q129.4009,444.9063 130.0884,445.9844 Q130.7759,447.0469 132.1196,447.0469 Q132.7446,447.0469 133.3384,446.7813 Q133.9321,446.5 134.5571,445.9219 L134.5571,448.6406 Z " fill="#000000"/><text fill="#000000" font-family="sans-serif" font-size="14" lengthAdjust="spacing" textLength="111.2002" x="152.0884" y="447.8467">LocationService</text><line style="stroke:#181818;stroke-width:0.5;" x1="8" x2="374.877" y1="459" y2="459"/><line style="stroke:#181818;stroke-width:0.5;" x1="8" x2="374.877" y1="467" y2="467"/><ellipse cx="18" cy="480.6484" fill="#84BE84" rx="3" ry="3" style="stroke:#038048;stroke-width:1;"/><text fill="#000000" font-family="sans-serif" font-size="14" lengthAdjust="spacing" textLength="211.8525" x="27" y="483.9951">reverseGeocode(Point): String</text><ellipse cx="18" cy="496.9453" fill="#84BE84" rx="3" ry="3" style="stroke:#038048;stroke-width:1;"/><text fill="#000000" font-family="sans-serif" font-size="14" lengthAdjust="spacing" textLength="342.877" x="27" y="500.292">calculateHeat(List&lt;Point&gt;): Map&lt;Point,Integer&gt;</text></g><!--class ImageService--><g id="elem_ImageService"><rect codeLine="41" fill="#F1F1F1" height="96.8906" id="ImageService" rx="2.5" ry="2.5" style="stroke:#181818;stroke-width:0.5;" width="286.8389" x="411" y="419"/><ellipse cx="502.376" cy="435" fill="#ADD1B2" rx="11" ry="11" style="stroke:#181818;stroke-width:1;"/><path d="M505.3447,440.6406 Q504.7666,440.9375 504.126,441.0781 Q503.4854,441.2344 502.7822,441.2344 Q500.2822,441.2344 498.9541,439.5938 Q497.6416,437.9375 497.6416,434.8125 Q497.6416,431.6875 498.9541,430.0313 Q500.2822,428.375 502.7822,428.375 Q503.4854,428.375 504.126,428.5313 Q504.7822,428.6875 505.3447,428.9844 L505.3447,431.7031 Q504.7197,431.125 504.126,430.8594 Q503.5322,430.5781 502.9072,430.5781 Q501.5635,430.5781 500.876,431.6563 Q500.1885,432.7188 500.1885,434.8125 Q500.1885,436.9063 500.876,437.9844 Q501.5635,439.0469 502.9072,439.0469 Q503.5322,439.0469 504.126,438.7813 Q504.7197,438.5 505.3447,437.9219 L505.3447,440.6406 Z " fill="#000000"/><text fill="#000000" font-family="sans-serif" font-size="14" lengthAdjust="spacing" textLength="95.5869" x="522.876" y="439.8467">ImageService</text><line style="stroke:#181818;stroke-width:0.5;" x1="412" x2="696.8389" y1="451" y2="451"/><line style="stroke:#181818;stroke-width:0.5;" x1="412" x2="696.8389" y1="459" y2="459"/><ellipse cx="422" cy="472.6484" fill="#84BE84" rx="3" ry="3" style="stroke:#038048;stroke-width:1;"/><text fill="#000000" font-family="sans-serif" font-size="14" lengthAdjust="spacing" textLength="260.8389" x="431" y="475.9951">compressImage(MultipartFile): String</text><ellipse cx="422" cy="488.9453" fill="#84BE84" rx="3" ry="3" style="stroke:#038048;stroke-width:1;"/><text fill="#000000" font-family="sans-serif" font-size="14" lengthAdjust="spacing" textLength="241.1309" x="431" y="492.292">generateThumbnail(String): String</text><ellipse cx="422" cy="505.2422" fill="#84BE84" rx="3" ry="3" style="stroke:#038048;stroke-width:1;"/><text fill="#000000" font-family="sans-serif" font-size="14" lengthAdjust="spacing" textLength="179.4502" x="431" y="508.5889">deleteImage(String): void</text></g><!--class BlogEntity--><g id="elem_BlogEntity"><rect fill="#F1F1F1" height="48" id="BlogEntity" rx="2.5" ry="2.5" style="stroke:#181818;stroke-width:0.5;" width="103.8184" x="843.5" y="262"/><ellipse cx="858.5" cy="278" fill="#ADD1B2" rx="11" ry="11" style="stroke:#181818;stroke-width:1;"/><path d="M861.4688,283.6406 Q860.8906,283.9375 860.25,284.0781 Q859.6094,284.2344 858.9063,284.2344 Q856.4063,284.2344 855.0781,282.5938 Q853.7656,280.9375 853.7656,277.8125 Q853.7656,274.6875 855.0781,273.0313 Q856.4063,271.375 858.9063,271.375 Q859.6094,271.375 860.25,271.5313 Q860.9063,271.6875 861.4688,271.9844 L861.4688,274.7031 Q860.8438,274.125 860.25,273.8594 Q859.6563,273.5781 859.0313,273.5781 Q857.6875,273.5781 857,274.6563 Q856.3125,275.7188 856.3125,277.8125 Q856.3125,279.9063 857,280.9844 Q857.6875,282.0469 859.0313,282.0469 Q859.6563,282.0469 860.25,281.7813 Q860.8438,281.5 861.4688,280.9219 L861.4688,283.6406 Z " fill="#000000"/><text fill="#000000" font-family="sans-serif" font-size="14" lengthAdjust="spacing" textLength="71.8184" x="872.5" y="282.8467">BlogEntity</text><line style="stroke:#181818;stroke-width:0.5;" x1="844.5" x2="946.3184" y1="294" y2="294"/><line style="stroke:#181818;stroke-width:0.5;" x1="844.5" x2="946.3184" y1="302" y2="302"/></g><!--link BlogController to BlogService--><g id="link_BlogController_BlogService"><path codeLine="47" d="M499.79,128.57 C479.38,153.65 457.7174,180.2764 434.9374,208.2664 " fill="transparent" id="BlogController-to-BlogService" style="stroke:#181818;stroke-width:1;"/><polygon fill="#181818" points="431.15,212.92,439.9334,208.4645,434.3061,209.042,433.7287,203.4147,431.15,212.92" style="stroke:#181818;stroke-width:1;"/></g><!--link BlogService to ImageService--><g id="link_BlogService_ImageService"><path codeLine="48" d="M445.74,359.23 C466.09,379.3 483.3986,396.3763 501.9186,414.6463 " fill="transparent" id="BlogService-to-ImageService" style="stroke:#181818;stroke-width:1;"/><polygon fill="#181818" points="506.19,418.86,502.5921,409.6918,502.6305,415.3486,496.9738,415.387,506.19,418.86" style="stroke:#181818;stroke-width:1;"/></g><!--link BlogService to LocationService--><g id="link_BlogService_LocationService"><path codeLine="49" d="M299.66,359.23 C276.38,382.32 255.7407,402.7955 235.7007,422.6655 " fill="transparent" id="BlogService-to-LocationService" style="stroke:#181818;stroke-width:1;"/><polygon fill="#181818" points="231.44,426.89,240.6474,423.3937,234.9906,423.3696,235.0147,417.7128,231.44,426.89" style="stroke:#181818;stroke-width:1;"/></g><!--link BlogDTO to BlogService--><g id="link_BlogDTO_BlogService"><path codeLine="50" d="M264.61,153.21 C280.47,172.58 293.8089,188.8776 309.6689,208.2476 " fill="transparent" id="BlogDTO-to-BlogService" style="stroke:#181818;stroke-width:1;"/><polygon fill="#181818" points="313.47,212.89,310.8632,203.3924,310.3024,209.0214,304.6734,208.4605,313.47,212.89" style="stroke:#181818;stroke-width:1;"/></g><!--reverse link BlogVO to BlogEntity--><g id="link_BlogVO_BlogEntity"><path codeLine="51" d="M895.5,159.21 C895.5,197.26 895.5,235.38 895.5,261.7 " fill="transparent" id="BlogVO-backto-BlogEntity" style="stroke:#181818;stroke-width:1;"/><polygon fill="#181818" points="895.5,153.21,891.5,162.21,895.5,158.21,899.5,162.21,895.5,153.21" style="stroke:#181818;stroke-width:1;"/></g><!--SRC=[VPJDRjim3CVlVWhTfYBr2nY13sdNhK0_WgRBNP49Hu0YkPASeXXs631is801kw-N0hjlJx2zpDA-nYXPTkmiwCqYAV97yYzpoQmb4wdBu-jByZOX92LSAmVAPMJcZ51bi8aLAy5cv4nODpwlfHCLC-v4ICWRlvtM2obuHYPQIs0gMANcp0cjy5xymYh1SmlCBS7qQep8cabHC0Vq82DhBOhaNPBmZc_Uued2fujS-rZTibuj51DoO5rYnHdN1Z9oh94LWfNLRgaHuuq5CnEhIiByCi2meZZ5r8PnZtsaQ-MeDvHWzkBDmAm5XyYuGCivgohVuQJxtauoHcVaj7SQZAoBE1iQ0Xmts0pun3IkxZ2CvA2Rp8YKuBpl1A2WKono1JSrM8SX_ZHkHfg7q08an7J-UfVh_owFSDn6ImacD3eYbRQkpu6thi2YFiO-HzwIN00pYpiVOsdRq1OeYEePe6tIEHBb7ka5sTp_UlhsyU-VXyVtFn_llsw-F4JEdO55K0DhC1PUWUQw03hLGldIFVbn9dajSQwlSRWqC8Me7CDmVytXC6gWXVZ- - -dpfysF3uWIo_St6cjplQeCM1jSTF1wXWWbA5ISW-jMmRHn3gEQwJJ9Ed-xgvqjfMdUbsVIbwht3VItwzoLNlkRs9SKd-SuJOFvfNB2tVq3]--></g></svg>