<svg xmlns="http://www.w3.org/2000/svg" xmlns:xlink="http://www.w3.org/1999/xlink" contentStyleType="text/css" data-diagram-type="CLASS" height="694px" preserveAspectRatio="none" style="width:1340px;height:694px;background:#FFFFFF;" version="1.1" viewBox="0 0 1340 694" width="1340px" zoomAndPan="magnify"><defs/><g><!--class BlogEntity--><g id="elem_BlogEntity"><rect codeLine="1" fill="#F1F1F1" height="145.7813" id="BlogEntity" rx="2.5" ry="2.5" style="stroke:#181818;stroke-width:0.5;" width="219.293" x="323" y="196"/><ellipse cx="392.4873" cy="212" fill="#ADD1B2" rx="11" ry="11" style="stroke:#181818;stroke-width:1;"/><path d="M395.4561,217.6406 Q394.8779,217.9375 394.2373,218.0781 Q393.5967,218.2344 392.8936,218.2344 Q390.3936,218.2344 389.0654,216.5938 Q387.7529,214.9375 387.7529,211.8125 Q387.7529,208.6875 389.0654,207.0313 Q390.3936,205.375 392.8936,205.375 Q393.5967,205.375 394.2373,205.5313 Q394.8936,205.6875 395.4561,205.9844 L395.4561,208.7031 Q394.8311,208.125 394.2373,207.8594 Q393.6436,207.5781 393.0186,207.5781 Q391.6748,207.5781 390.9873,208.6563 Q390.2998,209.7188 390.2998,211.8125 Q390.2998,213.9063 390.9873,214.9844 Q391.6748,216.0469 393.0186,216.0469 Q393.6436,216.0469 394.2373,215.7813 Q394.8311,215.5 395.4561,214.9219 L395.4561,217.6406 Z " fill="#000000"/><text fill="#000000" font-family="sans-serif" font-size="14" lengthAdjust="spacing" textLength="71.8184" x="412.9873" y="216.8467">BlogEntity</text><line style="stroke:#181818;stroke-width:0.5;" x1="324" x2="541.293" y1="228" y2="228"/><rect fill="transparent" height="6" style="stroke:#C82930;stroke-width:1;" width="6" x="331" y="238.6484"/><text fill="#000000" font-family="sans-serif" font-size="14" lengthAdjust="spacing" textLength="56.0684" x="343" y="244.9951">id: Long</text><rect fill="transparent" height="6" style="stroke:#C82930;stroke-width:1;" width="6" x="331" y="254.9453"/><text fill="#000000" font-family="sans-serif" font-size="14" lengthAdjust="spacing" textLength="104.5488" x="343" y="261.292">content: String</text><rect fill="transparent" height="6" style="stroke:#C82930;stroke-width:1;" width="6" x="331" y="271.2422"/><text fill="#000000" font-family="sans-serif" font-size="14" lengthAdjust="spacing" textLength="99.9756" x="343" y="277.5889">location: Point</text><rect fill="transparent" height="6" style="stroke:#C82930;stroke-width:1;" width="6" x="331" y="287.5391"/><text fill="#000000" font-family="sans-serif" font-size="14" lengthAdjust="spacing" textLength="108.3223" x="343" y="293.8857">weather: String</text><rect fill="transparent" height="6" style="stroke:#C82930;stroke-width:1;" width="6" x="331" y="303.8359"/><text fill="#000000" font-family="sans-serif" font-size="14" lengthAdjust="spacing" textLength="90.6035" x="343" y="310.1826">mood: String</text><rect fill="transparent" height="6" style="stroke:#C82930;stroke-width:1;" width="6" x="331" y="320.1328"/><text fill="#000000" font-family="sans-serif" font-size="14" lengthAdjust="spacing" textLength="193.293" x="343" y="326.4795">createTime: LocalDateTime</text><line style="stroke:#181818;stroke-width:0.5;" x1="324" x2="541.293" y1="333.7813" y2="333.7813"/></g><!--class HeatmapService--><g id="elem_HeatmapService"><rect codeLine="10" fill="#F1F1F1" height="129.4844" id="HeatmapService" rx="2.5" ry="2.5" style="stroke:#181818;stroke-width:0.5;" width="519.3223" x="362" y="402"/><ellipse cx="559.3843" cy="418" fill="#ADD1B2" rx="11" ry="11" style="stroke:#181818;stroke-width:1;"/><path d="M562.353,423.6406 Q561.7749,423.9375 561.1343,424.0781 Q560.4937,424.2344 559.7905,424.2344 Q557.2905,424.2344 555.9624,422.5938 Q554.6499,420.9375 554.6499,417.8125 Q554.6499,414.6875 555.9624,413.0313 Q557.2905,411.375 559.7905,411.375 Q560.4937,411.375 561.1343,411.5313 Q561.7905,411.6875 562.353,411.9844 L562.353,414.7031 Q561.728,414.125 561.1343,413.8594 Q560.5405,413.5781 559.9155,413.5781 Q558.5718,413.5781 557.8843,414.6563 Q557.1968,415.7188 557.1968,417.8125 Q557.1968,419.9063 557.8843,420.9844 Q558.5718,422.0469 559.9155,422.0469 Q560.5405,422.0469 561.1343,421.7813 Q561.728,421.5 562.353,420.9219 L562.353,423.6406 Z " fill="#000000"/><text fill="#000000" font-family="sans-serif" font-size="14" lengthAdjust="spacing" textLength="116.0537" x="579.8843" y="422.8467">HeatmapService</text><line style="stroke:#181818;stroke-width:0.5;" x1="363" x2="880.3223" y1="434" y2="434"/><rect fill="transparent" height="6" style="stroke:#C82930;stroke-width:1;" width="6" x="370" y="444.6484"/><text fill="#000000" font-family="sans-serif" font-size="14" lengthAdjust="spacing" textLength="175.9434" x="382" y="450.9951">blogMapper: BlogMapper</text><rect fill="transparent" height="6" style="stroke:#C82930;stroke-width:1;" width="6" x="370" y="460.9453"/><text fill="#000000" font-family="sans-serif" font-size="14" lengthAdjust="spacing" textLength="161.0137" x="382" y="467.292">nlpService: NLPService</text><line style="stroke:#181818;stroke-width:0.5;" x1="363" x2="880.3223" y1="474.5938" y2="474.5938"/><ellipse cx="373" cy="488.2422" fill="#84BE84" rx="3" ry="3" style="stroke:#038048;stroke-width:1;"/><text fill="#000000" font-family="sans-serif" font-size="14" lengthAdjust="spacing" textLength="493.3223" x="382" y="491.5889">generateHeatmapData(Long userId, DateRange range): HeatmapData</text><ellipse cx="373" cy="504.5391" fill="#84BE84" rx="3" ry="3" style="stroke:#038048;stroke-width:1;"/><text fill="#000000" font-family="sans-serif" font-size="14" lengthAdjust="spacing" textLength="347.7852" x="382" y="507.8857">getLocationDetails(Point point): LocationDetailVO</text><ellipse cx="373" cy="520.8359" fill="#84BE84" rx="3" ry="3" style="stroke:#038048;stroke-width:1;"/><text fill="#000000" font-family="sans-serif" font-size="14" lengthAdjust="spacing" textLength="372.5654" x="382" y="524.1826">exportHeatmapImage(HeatmapConfig config): byte[]</text></g><!--class HeatmapData--><g id="elem_HeatmapData"><rect codeLine="18" fill="#F1F1F1" height="96.8906" id="HeatmapData" rx="2.5" ry="2.5" style="stroke:#181818;stroke-width:0.5;" width="295.7529" x="1037.5" y="23"/><ellipse cx="1132.2563" cy="39" fill="#ADD1B2" rx="11" ry="11" style="stroke:#181818;stroke-width:1;"/><path d="M1135.2251,44.6406 Q1134.647,44.9375 1134.0063,45.0781 Q1133.3657,45.2344 1132.6626,45.2344 Q1130.1626,45.2344 1128.8345,43.5938 Q1127.522,41.9375 1127.522,38.8125 Q1127.522,35.6875 1128.8345,34.0313 Q1130.1626,32.375 1132.6626,32.375 Q1133.3657,32.375 1134.0063,32.5313 Q1134.6626,32.6875 1135.2251,32.9844 L1135.2251,35.7031 Q1134.6001,35.125 1134.0063,34.8594 Q1133.4126,34.5781 1132.7876,34.5781 Q1131.4438,34.5781 1130.7563,35.6563 Q1130.0688,36.7188 1130.0688,38.8125 Q1130.0688,40.9063 1130.7563,41.9844 Q1131.4438,43.0469 1132.7876,43.0469 Q1133.4126,43.0469 1134.0063,42.7813 Q1134.6001,42.5 1135.2251,41.9219 L1135.2251,44.6406 Z " fill="#000000"/><text fill="#000000" font-family="sans-serif" font-size="14" lengthAdjust="spacing" textLength="97.7402" x="1152.7563" y="43.8467">HeatmapData</text><line style="stroke:#181818;stroke-width:0.5;" x1="1038.5" x2="1332.2529" y1="55" y2="55"/><rect fill="transparent" height="6" style="stroke:#C82930;stroke-width:1;" width="6" x="1045.5" y="65.6484"/><text fill="#000000" font-family="sans-serif" font-size="14" lengthAdjust="spacing" textLength="168.5674" x="1057.5" y="71.9951">points: List&lt;HeatPoint&gt;</text><rect fill="transparent" height="6" style="stroke:#C82930;stroke-width:1;" width="6" x="1045.5" y="81.9453"/><text fill="#000000" font-family="sans-serif" font-size="14" lengthAdjust="spacing" textLength="267.8389" x="1057.5" y="88.292">intensityRange: Map&lt;String, Double&gt;</text><line style="stroke:#181818;stroke-width:0.5;" x1="1038.5" x2="1332.2529" y1="95.5938" y2="95.5938"/><ellipse cx="1048.5" cy="109.2422" fill="#84BE84" rx="3" ry="3" style="stroke:#038048;stroke-width:1;"/><text fill="#000000" font-family="sans-serif" font-size="14" lengthAdjust="spacing" textLength="269.7529" x="1057.5" y="112.5889">addTimeFilter(DateRange range): void</text></g><!--class HeatPoint--><g id="elem_HeatPoint"><rect codeLine="24" fill="#F1F1F1" height="113.1875" id="HeatPoint" rx="2.5" ry="2.5" style="stroke:#181818;stroke-width:0.5;" width="213.8994" x="1078.5" y="212.5"/><ellipse cx="1146.9653" cy="228.5" fill="#ADD1B2" rx="11" ry="11" style="stroke:#181818;stroke-width:1;"/><path d="M1149.9341,234.1406 Q1149.356,234.4375 1148.7153,234.5781 Q1148.0747,234.7344 1147.3716,234.7344 Q1144.8716,234.7344 1143.5435,233.0938 Q1142.231,231.4375 1142.231,228.3125 Q1142.231,225.1875 1143.5435,223.5313 Q1144.8716,221.875 1147.3716,221.875 Q1148.0747,221.875 1148.7153,222.0313 Q1149.3716,222.1875 1149.9341,222.4844 L1149.9341,225.2031 Q1149.3091,224.625 1148.7153,224.3594 Q1148.1216,224.0781 1147.4966,224.0781 Q1146.1528,224.0781 1145.4653,225.1563 Q1144.7778,226.2188 1144.7778,228.3125 Q1144.7778,230.4063 1145.4653,231.4844 Q1146.1528,232.5469 1147.4966,232.5469 Q1148.1216,232.5469 1148.7153,232.2813 Q1149.3091,232 1149.9341,231.4219 L1149.9341,234.1406 Z " fill="#000000"/><text fill="#000000" font-family="sans-serif" font-size="14" lengthAdjust="spacing" textLength="68.4688" x="1167.4653" y="233.3467">HeatPoint</text><line style="stroke:#181818;stroke-width:0.5;" x1="1079.5" x2="1291.3994" y1="244.5" y2="244.5"/><rect fill="transparent" height="6" style="stroke:#C82930;stroke-width:1;" width="6" x="1086.5" y="255.1484"/><text fill="#000000" font-family="sans-serif" font-size="14" lengthAdjust="spacing" textLength="80.1309" x="1098.5" y="261.4951">point: Point</text><rect fill="transparent" height="6" style="stroke:#C82930;stroke-width:1;" width="6" x="1086.5" y="271.4453"/><text fill="#000000" font-family="sans-serif" font-size="14" lengthAdjust="spacing" textLength="119.4717" x="1098.5" y="277.792">intensity: Double</text><rect fill="transparent" height="6" style="stroke:#C82930;stroke-width:1;" width="6" x="1086.5" y="287.7422"/><text fill="#000000" font-family="sans-serif" font-size="14" lengthAdjust="spacing" textLength="141.7637" x="1098.5" y="294.0889">blogIds: List&lt;Long&gt;</text><rect fill="transparent" height="6" style="stroke:#C82930;stroke-width:1;" width="6" x="1086.5" y="304.0391"/><text fill="#000000" font-family="sans-serif" font-size="14" lengthAdjust="spacing" textLength="187.8994" x="1098.5" y="310.3857">latestTime: LocalDateTime</text><line style="stroke:#181818;stroke-width:0.5;" x1="1079.5" x2="1291.3994" y1="317.6875" y2="317.6875"/></g><!--class LocationDetailVO--><g id="elem_LocationDetailVO"><rect codeLine="31" fill="#F1F1F1" height="129.4844" id="LocationDetailVO" rx="2.5" ry="2.5" style="stroke:#181818;stroke-width:0.5;" width="282.3271" x="291.5" y="7"/><ellipse cx="367.7651" cy="23" fill="#ADD1B2" rx="11" ry="11" style="stroke:#181818;stroke-width:1;"/><path d="M370.7339,28.6406 Q370.1558,28.9375 369.5151,29.0781 Q368.8745,29.2344 368.1714,29.2344 Q365.6714,29.2344 364.3433,27.5938 Q363.0308,25.9375 363.0308,22.8125 Q363.0308,19.6875 364.3433,18.0313 Q365.6714,16.375 368.1714,16.375 Q368.8745,16.375 369.5151,16.5313 Q370.1714,16.6875 370.7339,16.9844 L370.7339,19.7031 Q370.1089,19.125 369.5151,18.8594 Q368.9214,18.5781 368.2964,18.5781 Q366.9526,18.5781 366.2651,19.6563 Q365.5776,20.7188 365.5776,22.8125 Q365.5776,24.9063 366.2651,25.9844 Q366.9526,27.0469 368.2964,27.0469 Q368.9214,27.0469 369.5151,26.7813 Q370.1089,26.5 370.7339,25.9219 L370.7339,28.6406 Z " fill="#000000"/><text fill="#000000" font-family="sans-serif" font-size="14" lengthAdjust="spacing" textLength="121.2969" x="388.2651" y="27.8467">LocationDetailVO</text><line style="stroke:#181818;stroke-width:0.5;" x1="292.5" x2="572.8271" y1="39" y2="39"/><rect fill="transparent" height="6" style="stroke:#C82930;stroke-width:1;" width="6" x="299.5" y="49.6484"/><text fill="#000000" font-family="sans-serif" font-size="14" lengthAdjust="spacing" textLength="106.2578" x="311.5" y="55.9951">address: String</text><rect fill="transparent" height="6" style="stroke:#C82930;stroke-width:1;" width="6" x="299.5" y="65.9453"/><text fill="#000000" font-family="sans-serif" font-size="14" lengthAdjust="spacing" textLength="129.9512" x="311.5" y="72.292">visitCount: Integer</text><rect fill="transparent" height="6" style="stroke:#C82930;stroke-width:1;" width="6" x="299.5" y="82.2422"/><text fill="#000000" font-family="sans-serif" font-size="14" lengthAdjust="spacing" textLength="256.3271" x="311.5" y="88.5889">weatherStats: Map&lt;String, Integer&gt;</text><rect fill="transparent" height="6" style="stroke:#C82930;stroke-width:1;" width="6" x="299.5" y="98.5391"/><text fill="#000000" font-family="sans-serif" font-size="14" lengthAdjust="spacing" textLength="238.6084" x="311.5" y="104.8857">moodStats: Map&lt;String, Integer&gt;</text><rect fill="transparent" height="6" style="stroke:#C82930;stroke-width:1;" width="6" x="299.5" y="114.8359"/><text fill="#000000" font-family="sans-serif" font-size="14" lengthAdjust="spacing" textLength="131.0723" x="311.5" y="121.1826">aiSummary: String</text><line style="stroke:#181818;stroke-width:0.5;" x1="292.5" x2="572.8271" y1="128.4844" y2="128.4844"/></g><!--class HeatmapController--><g id="elem_HeatmapController"><rect codeLine="39" fill="#F1F1F1" height="96.8906" id="HeatmapController" rx="2.5" ry="2.5" style="stroke:#181818;stroke-width:0.5;" width="466.4531" x="577.5" y="220.5"/><ellipse cx="739.7339" cy="236.5" fill="#ADD1B2" rx="11" ry="11" style="stroke:#181818;stroke-width:1;"/><path d="M742.7026,242.1406 Q742.1245,242.4375 741.4839,242.5781 Q740.8433,242.7344 740.1401,242.7344 Q737.6401,242.7344 736.312,241.0938 Q734.9995,239.4375 734.9995,236.3125 Q734.9995,233.1875 736.312,231.5313 Q737.6401,229.875 740.1401,229.875 Q740.8433,229.875 741.4839,230.0313 Q742.1401,230.1875 742.7026,230.4844 L742.7026,233.2031 Q742.0776,232.625 741.4839,232.3594 Q740.8901,232.0781 740.2651,232.0781 Q738.9214,232.0781 738.2339,233.1563 Q737.5464,234.2188 737.5464,236.3125 Q737.5464,238.4063 738.2339,239.4844 Q738.9214,240.5469 740.2651,240.5469 Q740.8901,240.5469 741.4839,240.2813 Q742.0776,240 742.7026,239.4219 L742.7026,242.1406 Z " fill="#000000"/><text fill="#000000" font-family="sans-serif" font-size="14" lengthAdjust="spacing" textLength="133.4854" x="760.2339" y="241.3467">HeatmapController</text><line style="stroke:#181818;stroke-width:0.5;" x1="578.5" x2="1042.9531" y1="252.5" y2="252.5"/><line style="stroke:#181818;stroke-width:0.5;" x1="578.5" x2="1042.9531" y1="260.5" y2="260.5"/><ellipse cx="588.5" cy="274.1484" fill="#84BE84" rx="3" ry="3" style="stroke:#038048;stroke-width:1;"/><text fill="#000000" font-family="sans-serif" font-size="14" lengthAdjust="spacing" textLength="388.0352" x="597.5" y="277.4951">getHeatmapData(Long userId): Result&lt;HeatmapData&gt;</text><ellipse cx="588.5" cy="290.4453" fill="#84BE84" rx="3" ry="3" style="stroke:#038048;stroke-width:1;"/><text fill="#000000" font-family="sans-serif" font-size="14" lengthAdjust="spacing" textLength="415.1328" x="597.5" y="293.792">getLocationDetails(Point point): Result&lt;LocationDetailVO&gt;</text><ellipse cx="588.5" cy="306.7422" fill="#84BE84" rx="3" ry="3" style="stroke:#038048;stroke-width:1;"/><text fill="#000000" font-family="sans-serif" font-size="14" lengthAdjust="spacing" textLength="440.4531" x="597.5" y="310.0889">exportImage(HeatmapConfig config): ResponseEntity&lt;byte[]&gt;</text></g><!--class NLPService--><g id="elem_NLPService"><rect codeLine="45" fill="#F1F1F1" height="80.5938" id="NLPService" rx="2.5" ry="2.5" style="stroke:#181818;stroke-width:0.5;" width="433.1895" x="630" y="599"/><ellipse cx="803.1167" cy="615" fill="#ADD1B2" rx="11" ry="11" style="stroke:#181818;stroke-width:1;"/><path d="M806.0854,620.6406 Q805.5073,620.9375 804.8667,621.0781 Q804.2261,621.2344 803.5229,621.2344 Q801.0229,621.2344 799.6948,619.5938 Q798.3823,617.9375 798.3823,614.8125 Q798.3823,611.6875 799.6948,610.0313 Q801.0229,608.375 803.5229,608.375 Q804.2261,608.375 804.8667,608.5313 Q805.5229,608.6875 806.0854,608.9844 L806.0854,611.7031 Q805.4604,611.125 804.8667,610.8594 Q804.2729,610.5781 803.6479,610.5781 Q802.3042,610.5781 801.6167,611.6563 Q800.9292,612.7188 800.9292,614.8125 Q800.9292,616.9063 801.6167,617.9844 Q802.3042,619.0469 803.6479,619.0469 Q804.2729,619.0469 804.8667,618.7813 Q805.4604,618.5 806.0854,617.9219 L806.0854,620.6406 Z " fill="#000000"/><text fill="#000000" font-family="sans-serif" font-size="14" lengthAdjust="spacing" textLength="78.4561" x="823.6167" y="619.8467">NLPService</text><line style="stroke:#181818;stroke-width:0.5;" x1="631" x2="1062.1895" y1="631" y2="631"/><line style="stroke:#181818;stroke-width:0.5;" x1="631" x2="1062.1895" y1="639" y2="639"/><ellipse cx="641" cy="652.6484" fill="#84BE84" rx="3" ry="3" style="stroke:#038048;stroke-width:1;"/><text fill="#000000" font-family="sans-serif" font-size="14" lengthAdjust="spacing" textLength="354.6758" x="650" y="655.9951">generateSummary(List&lt;BlogEntity&gt; blogs): String</text><ellipse cx="641" cy="668.9453" fill="#84BE84" rx="3" ry="3" style="stroke:#038048;stroke-width:1;"/><text fill="#000000" font-family="sans-serif" font-size="14" lengthAdjust="spacing" textLength="407.1895" x="650" y="672.292">analyzeMoodTrends(List&lt;BlogEntity&gt; blogs): MoodReport</text></g><!--class ExportService--><g id="elem_ExportService"><rect codeLine="50" fill="#F1F1F1" height="96.8906" id="ExportService" rx="2.5" ry="2.5" style="stroke:#181818;stroke-width:0.5;" width="393.5957" x="200.5" y="591"/><ellipse cx="344.2632" cy="607" fill="#ADD1B2" rx="11" ry="11" style="stroke:#181818;stroke-width:1;"/><path d="M347.2319,612.6406 Q346.6538,612.9375 346.0132,613.0781 Q345.3726,613.2344 344.6694,613.2344 Q342.1694,613.2344 340.8413,611.5938 Q339.5288,609.9375 339.5288,606.8125 Q339.5288,603.6875 340.8413,602.0313 Q342.1694,600.375 344.6694,600.375 Q345.3726,600.375 346.0132,600.5313 Q346.6694,600.6875 347.2319,600.9844 L347.2319,603.7031 Q346.6069,603.125 346.0132,602.8594 Q345.4194,602.5781 344.7944,602.5781 Q343.4507,602.5781 342.7632,603.6563 Q342.0757,604.7188 342.0757,606.8125 Q342.0757,608.9063 342.7632,609.9844 Q343.4507,611.0469 344.7944,611.0469 Q345.4194,611.0469 346.0132,610.7813 Q346.6069,610.5 347.2319,609.9219 L347.2319,612.6406 Z " fill="#000000"/><text fill="#000000" font-family="sans-serif" font-size="14" lengthAdjust="spacing" textLength="97.5693" x="364.7632" y="611.8467">ExportService</text><line style="stroke:#181818;stroke-width:0.5;" x1="201.5" x2="593.0957" y1="623" y2="623"/><rect fill="transparent" height="6" style="stroke:#C82930;stroke-width:1;" width="6" x="208.5" y="633.6484"/><text fill="#000000" font-family="sans-serif" font-size="14" lengthAdjust="spacing" textLength="268.3516" x="220.5" y="639.9951">imageGenerator: MapImageGenerator</text><line style="stroke:#181818;stroke-width:0.5;" x1="201.5" x2="593.0957" y1="647.2969" y2="647.2969"/><ellipse cx="211.5" cy="660.9453" fill="#84BE84" rx="3" ry="3" style="stroke:#038048;stroke-width:1;"/><text fill="#000000" font-family="sans-serif" font-size="14" lengthAdjust="spacing" textLength="367.5957" x="220.5" y="664.292">generateHeatmapImage(HeatmapData data): byte[]</text><ellipse cx="211.5" cy="677.2422" fill="#84BE84" rx="3" ry="3" style="stroke:#038048;stroke-width:1;"/><text fill="#000000" font-family="sans-serif" font-size="14" lengthAdjust="spacing" textLength="333.751" x="220.5" y="680.5889">generatePDFReport(HeatmapData data): byte[]</text></g><g id="elem_GMN16"><path d="M916.5,431 L916.5,462.5 L881.35,466.5 L916.5,470.5 L916.5,501.5313 A0,0 0 0 0 916.5,501.5313 L1058.0356,501.5313 A0,0 0 0 0 1058.0356,501.5313 L1058.0356,441 L1048.0356,431 L916.5,431 A0,0 0 0 0 916.5,431 " fill="#FEFFDD" style="stroke:#181818;stroke-width:0.5;"/><path d="M1048.0356,431 L1048.0356,441 L1058.0356,441 L1048.0356,431 " fill="#FEFFDD" style="stroke:#181818;stroke-width:0.5;"/><text fill="#000000" font-family="sans-serif" font-size="13" lengthAdjust="spacing" textLength="104" x="922.5" y="448.0669">&#28909;&#21147;&#22270;&#29983;&#25104;&#36923;&#36753;&#65306;</text><text fill="#000000" font-family="sans-serif" font-size="13" lengthAdjust="spacing" textLength="120.5356" x="922.5" y="463.1997">1. &#26681;&#25454;&#22320;&#29702;&#22352;&#26631;&#32858;&#31867;</text><text fill="#000000" font-family="sans-serif" font-size="13" lengthAdjust="spacing" textLength="120.5356" x="922.5" y="478.3325">2. &#35745;&#31639;&#35775;&#38382;&#39057;&#27425;&#24378;&#24230;</text><text fill="#000000" font-family="sans-serif" font-size="13" lengthAdjust="spacing" textLength="120.5356" x="922.5" y="493.4653">3. &#20851;&#32852;&#21338;&#25991;&#24773;&#24863;&#20998;&#26512;</text></g><g id="elem_GMN19"><path d="M6,604 L6,674.5313 A0,0 0 0 0 6,674.5313 L164.8774,674.5313 A0,0 0 0 0 164.8774,674.5313 L164.8774,643.5 L200.44,639.5 L164.8774,635.5 L164.8774,614 L154.8774,604 L6,604 A0,0 0 0 0 6,604 " fill="#FEFFDD" style="stroke:#181818;stroke-width:0.5;"/><path d="M154.8774,604 L154.8774,614 L164.8774,614 L154.8774,604 " fill="#FEFFDD" style="stroke:#181818;stroke-width:0.5;"/><text fill="#000000" font-family="sans-serif" font-size="13" lengthAdjust="spacing" textLength="91" x="12" y="621.0669">&#25903;&#25345;&#23548;&#20986;&#26684;&#24335;&#65306;</text><text fill="#000000" font-family="sans-serif" font-size="13" lengthAdjust="spacing" textLength="62.4609" x="12" y="636.1997">- PNG&#22270;&#29255;</text><text fill="#000000" font-family="sans-serif" font-size="13" lengthAdjust="spacing" textLength="137.8774" x="12" y="651.3325">- PDF&#25253;&#21578;&#65288;&#21547;AI&#25688;&#35201;&#65289;</text><text fill="#000000" font-family="sans-serif" font-size="13" lengthAdjust="spacing" textLength="92.8916" x="12" y="666.4653">- GeoJSON&#25968;&#25454;</text></g><!--link BlogEntity to HeatmapService--><g id="link_BlogEntity_HeatmapService"><path codeLine="56" d="M502.34,342.24 C521.27,361.82 537.4392,378.5567 555.8692,397.6167 " fill="transparent" id="BlogEntity-to-HeatmapService" style="stroke:#181818;stroke-width:1;"/><polygon fill="#181818" points="560.04,401.93,556.6594,392.6795,556.5644,398.3356,550.9083,398.2405,560.04,401.93" style="stroke:#181818;stroke-width:1;"/></g><!--link HeatmapService to NLPService--><g id="link_HeatmapService_NLPService"><path codeLine="57" d="M705.28,531.17 C735.14,553.87 763.1235,575.1289 789.5635,595.2289 " fill="transparent" id="HeatmapService-to-NLPService" style="stroke:#181818;stroke-width:1;"/><polygon fill="#181818" points="794.34,598.86,789.596,590.229,790.3596,595.834,784.7545,596.5976,794.34,598.86" style="stroke:#181818;stroke-width:1;"/></g><!--link HeatmapService to ExportService--><g id="link_HeatmapService_ExportService"><path codeLine="58" d="M538.09,531.17 C512.22,550.93 488.9288,568.6988 464.7388,587.1688 " fill="transparent" id="HeatmapService-to-ExportService" style="stroke:#181818;stroke-width:1;"/><polygon fill="#181818" points="459.97,590.81,469.5507,588.5274,463.944,587.7757,464.6958,582.169,459.97,590.81" style="stroke:#181818;stroke-width:1;"/></g><!--link HeatmapController to HeatmapService--><g id="link_HeatmapController_HeatmapService"><path codeLine="59" d="M764.51,317.57 C740.03,342.89 713.7704,370.0563 687.2804,397.4563 " fill="transparent" id="HeatmapController-to-HeatmapService" style="stroke:#181818;stroke-width:1;"/><polygon fill="#181818" points="683.11,401.77,692.2414,398.0798,686.5853,398.1753,686.4898,392.5192,683.11,401.77" style="stroke:#181818;stroke-width:1;"/></g><!--link HeatmapData to HeatPoint--><g id="link_HeatmapData_HeatPoint"><path codeLine="60" d="M1185.5,120.07 C1185.5,147.88 1185.5,177.11 1185.5,206.22 " fill="transparent" id="HeatmapData-to-HeatPoint" style="stroke:#181818;stroke-width:1;"/><polygon fill="#181818" points="1185.5,212.22,1189.5,203.22,1185.5,207.22,1181.5,203.22,1185.5,212.22" style="stroke:#181818;stroke-width:1;"/></g><!--link LocationDetailVO to BlogEntity--><g id="link_LocationDetailVO_BlogEntity"><path codeLine="61" d="M432.5,136.24 C432.5,155.3 432.5,170.32 432.5,189.87 " fill="transparent" id="LocationDetailVO-to-BlogEntity" style="stroke:#181818;stroke-width:1;"/><polygon fill="#181818" points="432.5,195.87,436.5,186.87,432.5,190.87,428.5,186.87,432.5,195.87" style="stroke:#181818;stroke-width:1;"/></g><!--SRC=[ZLJFJnD15BxlNp774Ys9UjkGJOG2rl2ZeSIByJ1qXsMIxKupEqMhCR51Q24IsmJ5W0gOo4Kj64_21l-QdPOJ_u8piqExsm9wsNRclPdl-zxxtXHSwFjWr2NEkCSmgu0N1W1fW6qJJ17FKOi2yHZoc0doZ6Azvv82P9Xu9iWHx36rznH1jeHe8gz8Y9tOA52HXUPn4Kc40dGpUccyD8o2OlD0P1HXAO_eCYuWpMX1K9o6fPAyVxJxNuKyzpBN13DJEVrVX6u11tc82W1zfS22AQaBb7r4i_Pj8D7deESWGELto0InL7q5cz9YCuX1xFef9HcKv7SeKj6BFffLfz2p4g5CtvKjGWUbz6ACU8lOaKKLF-BuGeMXnqy6r4jyBLq1-G88-sn4XXM-5JLAjiONZLCYJ23ACX9LMsWZvGKNMOeFj6rPv0diCaHJWwgN2RQJ72AHCGRnLdTXJOtIxL7MlcGgwnoHT0MSpsxiUNyHDR2WJP7l9noqZ0Nm62bBHbd1mz4sqFRBCoYB5I-4phAwZlnN3iJvSh48QQKBtDyUqKL6YUiYgfWgcrnZCb7TEUINtQXtEi7wFs_fW_tLiM8Ukz5Sudo9U3wAXdiayfhLKzCRbwwCQ62q_fJgPEzvi5IF_Q5OGuItFEXMdgDfKTXvYZpRl_wKp9b3adQFmxYIaPnsB4LDHbm8LPtA9hQkckv49TJysEBJ6x7uaLnc8k9nGxvW67iOqschxsKo-XugcH5xVww89gGQWrQw7aFHkmn7SpWmCZBS8smO7c5YmB6pn01PxByNWFRAZt1ZDzmzQs_jyNhZ_DLfvwnv4Uo8q9rXmFT_yyrM-F6utLWBFpNuVgrJtMd_F1NHkyEWqpfejxOxhJ_dswtpBqt-_I0CJiAJGn6zDmp2rL-TwbQukSFVr_ZAAd-z5zRN-EU68Sm192lDpKMBYbgoB03mhIF-fXeU1M7jXEy7OV0sefK6kPb9INYz5gqo4tpZQzZSk0ZgOUFR_InlVkWSLY-2THMUHEHXVdQ6lpiMIhhOVm40]--></g></svg>